<svg width="2830" height="338" viewBox="0 0 2830 338" fill="none" xmlns="http://www.w3.org/2000/svg">
<path d="M25 14H435.934C511.586 14 572.912 75.3397 572.912 151.006H25V14Z" fill="#1449EC"/>
<path d="M25 320.839H435.934C511.586 320.839 572.912 259.5 572.912 183.834H25V320.839Z" fill="#1449EC"/>
<path d="M2804.21 246.914L2803.64 268.019H2783.68C2774.55 268.019 2766.56 266.593 2759.43 263.456C2752.3 260.319 2746.6 255.756 2742.61 249.481C2738.61 243.207 2736.62 235.506 2736.62 226.095V225.524V136.257H2704.39V115.152H2736.62V78.9316H2764.57V115.152H2803.35V136.257H2764.57V225.524V226.095C2764.57 233.795 2766.56 239.214 2770.27 242.351C2773.98 245.488 2779.68 246.914 2787.1 246.914H2804.21Z" fill="white"/>
<path d="M2603.96 261.175L2602.53 261.746C2591.12 255.186 2582.57 245.774 2576.58 233.796C2570.59 221.818 2567.45 207.843 2567.45 192.157C2567.45 176.471 2570.59 162.496 2576.58 150.518C2582.57 138.539 2591.41 129.128 2602.82 122.568C2614.23 116.008 2627.35 112.586 2642.18 112.586C2654.44 112.586 2665.56 114.868 2675.26 119.431C2684.96 123.994 2692.94 130.554 2698.93 138.824C2704.92 147.095 2709.2 156.507 2711.48 167.344H2682.96C2680.68 157.362 2676.11 149.092 2669.27 142.532C2662.42 135.972 2653.58 132.835 2642.46 132.835C2633.05 132.835 2624.78 135.117 2617.93 139.965C2611.09 144.814 2605.96 151.658 2602.25 160.5C2598.54 169.341 2596.83 179.608 2596.83 191.586C2596.83 203.565 2598.54 213.832 2602.25 222.673C2605.96 231.514 2611.37 238.359 2618.22 243.208C2625.06 248.056 2633.33 250.338 2642.75 250.338C2664.42 250.338 2678.4 239.215 2684.96 216.684H2713.48C2710.91 228.092 2706.35 237.789 2699.79 246.06C2693.23 254.33 2684.96 260.605 2675.26 264.883C2665.56 269.161 2655.01 271.157 2643.32 271.157C2628.49 271.157 2615.37 267.735 2603.96 261.175Z" fill="white"/>
<path d="M2554.07 268.02H2526.13V115.152H2554.07V268.02ZM2555.22 88.914H2524.98V51.2676H2555.22V88.914Z" fill="white"/>
<path d="M2473.73 51.2676L2502.54 52.1232V268.875H2474.59V235.507C2471.45 242.637 2467.17 248.911 2461.47 254.33C2455.77 259.749 2449.49 264.027 2442.36 267.164C2435.23 270.301 2427.82 271.727 2420.12 271.727C2407.85 271.727 2396.73 268.305 2386.75 261.46C2376.77 254.615 2369.06 245.204 2363.36 233.225C2357.66 221.247 2354.8 207.557 2354.8 192.156C2354.8 176.756 2357.66 163.066 2363.36 151.088C2369.06 139.109 2376.77 129.698 2386.75 122.853C2396.73 116.008 2407.85 112.586 2420.12 112.586C2429.24 112.586 2437.51 114.297 2444.64 118.004C2451.77 121.712 2457.76 126.56 2462.61 132.55C2467.46 138.539 2471.17 145.098 2473.73 152.228V51.2676ZM2454.34 244.348L2454.05 245.489C2460.9 240.64 2466.32 233.796 2470.03 224.954C2473.73 216.113 2475.44 205.561 2475.44 193.582C2475.44 181.604 2473.73 171.052 2470.03 162.21C2466.32 153.369 2461.18 146.524 2454.34 141.676C2447.49 136.828 2439.22 134.261 2429.81 134.261C2420.4 134.261 2412.13 136.542 2405.29 141.391C2398.44 146.239 2393.31 153.084 2389.6 161.925C2385.89 170.766 2384.18 181.034 2384.18 193.012C2384.18 204.99 2385.89 215.258 2389.6 224.099C2393.31 232.94 2398.44 239.785 2405.29 244.633C2412.13 249.482 2420.4 251.763 2429.81 251.763C2439.22 251.763 2447.49 249.196 2454.34 244.348Z" fill="white"/>
<path d="M2348.89 199.857L2233.1 200.428C2234.24 216.684 2238.81 229.233 2246.51 238.074C2254.21 246.915 2264.47 251.193 2277.31 251.193C2287.86 251.193 2296.42 248.912 2302.69 244.348C2308.97 239.785 2313.81 232.94 2316.95 224.099H2345.47C2341.19 240.07 2333.21 252.049 2321.51 260.034C2309.82 268.02 2295.28 272.013 2277.59 272.013C2262.48 272.013 2249.64 268.59 2238.81 261.746C2227.97 254.901 2219.7 245.489 2213.99 233.511C2208.29 221.532 2205.44 207.843 2205.44 192.442C2205.44 176.756 2208.29 163.066 2213.99 151.088C2219.7 139.11 2227.97 129.698 2238.81 122.853C2249.64 116.008 2262.48 112.586 2277.31 112.586C2291.57 112.586 2304.12 115.723 2314.95 121.998C2325.79 128.272 2334.35 137.398 2340.34 149.092C2346.33 160.785 2349.46 174.189 2349.46 189.59C2349.46 191.586 2349.18 195.009 2348.89 199.857ZM2247.36 145.099L2247.08 144.814C2239.38 152.799 2234.81 164.207 2233.1 179.323H2320.37C2319.8 170.196 2317.81 162.211 2314.1 155.366C2310.39 148.521 2305.26 143.102 2298.98 139.11C2292.71 135.117 2285.58 133.12 2277.31 133.12C2265.04 133.12 2255.06 137.113 2247.36 145.099Z" fill="white"/>
<path d="M2159.43 147.951H2159.14C2166.84 123.994 2183.67 112.016 2209.62 112.016V139.68H2201.07C2191.37 139.68 2183.67 140.821 2177.68 143.102C2171.69 145.384 2167.13 149.092 2163.99 154.51C2160.85 159.929 2159.43 167.059 2159.43 175.9V268.02H2131.48V115.153H2159.43V147.951Z" fill="white"/>
<path d="M2038.96 51.2676H2038.67C2055.78 51.2676 2070.61 53.8344 2082.88 58.968C2095.14 64.1016 2104.55 71.802 2111.11 82.0692C2117.67 92.3364 2121.1 104.6 2121.1 119.145C2121.1 133.69 2117.96 145.954 2111.4 156.221C2104.84 166.488 2095.43 174.189 2083.16 179.322C2070.9 184.456 2056.07 187.023 2038.96 187.023H1987.91V268.02H1959.1V51.2676H2038.96ZM2039.53 161.355C2056.35 161.355 2069.19 157.932 2078.03 150.802C2086.87 143.672 2091.15 133.12 2091.15 119.145C2091.15 105.17 2086.87 94.618 2078.03 87.488C2069.19 80.358 2056.35 76.9356 2039.53 76.9356H1987.62V161.355H2039.53Z" fill="white"/>
<path d="M1830.71 182.745L1905.72 268.02H1870.92L1798.48 185.597V268.02H1770.53V51.2676H1798.48V180.463L1868.07 115.152H1902.86L1830.71 182.745Z" fill="white"/>
<path d="M1642.08 261.175H1641.8C1630.39 254.616 1621.83 245.204 1615.85 233.226C1609.86 221.247 1606.72 207.272 1606.72 191.586C1606.72 175.9 1609.86 161.926 1615.85 149.947C1621.83 137.969 1630.68 128.557 1642.08 121.998C1653.49 115.438 1666.61 112.016 1681.44 112.016C1696.27 112.016 1709.39 115.438 1720.51 121.998C1731.64 128.557 1740.19 137.969 1746.18 149.947C1752.17 161.926 1755.31 175.9 1755.31 191.586C1755.31 207.272 1752.17 221.247 1746.18 233.226C1740.19 245.204 1731.64 254.616 1720.51 261.175C1709.39 267.735 1696.27 271.157 1681.44 271.157C1666.61 271.157 1653.49 267.735 1642.08 261.175ZM1705.4 243.493L1705.11 244.634C1711.96 239.785 1717.09 232.94 1720.8 224.099C1724.51 215.258 1726.22 204.706 1726.22 192.727C1726.22 180.749 1724.51 170.196 1720.8 161.355C1717.09 152.514 1711.96 145.669 1705.11 140.821C1698.27 135.972 1690 133.406 1680.59 133.406C1671.17 133.406 1662.9 135.687 1656.06 140.536C1649.21 145.384 1644.08 152.229 1640.37 161.07C1636.66 169.911 1634.95 180.178 1634.95 192.157C1634.95 204.135 1636.66 214.402 1640.37 223.244C1644.08 232.085 1649.5 238.93 1656.34 243.778C1663.19 248.626 1671.46 250.908 1680.87 250.908C1690.28 250.908 1698.55 248.341 1705.4 243.493Z" fill="white"/>
<path d="M1488.26 261.175H1487.97C1476.56 254.616 1468.01 245.204 1462.02 233.226C1456.03 221.247 1452.89 207.272 1452.89 191.586C1452.89 175.9 1456.03 161.926 1462.02 149.947C1468.01 137.969 1476.85 128.557 1488.26 121.998C1499.66 115.438 1512.78 112.016 1527.61 112.016C1542.44 112.016 1555.56 115.438 1566.69 121.998C1577.81 128.557 1586.36 137.969 1592.35 149.947C1598.34 161.926 1601.48 175.9 1601.48 191.586C1601.48 207.272 1598.34 221.247 1592.35 233.226C1586.36 245.204 1577.81 254.616 1566.69 261.175C1555.56 267.735 1542.44 271.157 1527.61 271.157C1512.78 271.157 1499.66 267.735 1488.26 261.175ZM1551.57 243.493L1551.28 244.634C1558.13 239.785 1563.26 232.94 1566.97 224.099C1570.68 215.258 1572.39 204.706 1572.39 192.727C1572.39 180.749 1570.68 170.196 1566.97 161.355C1563.26 152.514 1558.13 145.669 1551.28 140.821C1544.44 135.972 1536.17 133.406 1526.76 133.406C1517.35 133.406 1509.08 135.687 1502.23 140.536C1495.39 145.384 1490.25 152.229 1486.54 161.07C1482.84 169.911 1481.13 180.178 1481.13 192.157C1481.13 204.135 1482.84 214.402 1486.54 223.244C1490.25 232.085 1495.67 238.93 1502.52 243.778C1509.36 248.626 1517.63 250.908 1527.04 250.908C1536.45 250.908 1544.73 248.341 1551.57 243.493Z" fill="white"/>
<path d="M1430.95 170.481H1430.67C1440.93 179.037 1446.07 191.586 1446.07 207.842C1446.07 220.676 1442.93 231.514 1436.66 240.355C1430.38 249.196 1421.26 256.041 1409.28 260.604C1397.3 265.168 1382.75 267.449 1365.93 267.449H1284.36V50.6973H1365.93C1382.75 50.6973 1396.73 53.2641 1407.57 58.3977C1418.4 63.5313 1426.39 70.3761 1431.52 78.9321C1436.66 87.4881 1439.22 96.8997 1439.22 107.452C1439.22 116.864 1436.94 125.134 1432.38 132.264C1427.82 139.394 1421.54 144.813 1413.27 148.806C1405 152.799 1395.59 155.366 1385.04 156.506C1405.28 157.362 1420.68 161.925 1430.95 170.481ZM1397.58 85.2065V84.9213C1390.17 79.5025 1379.62 76.6505 1365.64 76.6505H1312.88V143.102H1365.64C1394.45 143.102 1408.71 131.979 1408.71 110.019C1408.71 98.8961 1405 90.6253 1397.58 85.2065ZM1366.5 242.066L1365.93 242.637C1382.47 242.637 1395.02 239.5 1403.29 233.225C1411.56 226.951 1415.84 217.824 1415.84 205.846C1415.84 193.582 1411.84 184.456 1403.57 178.182C1395.3 171.907 1383.04 168.77 1366.5 168.77H1312.88V242.066H1366.5Z" fill="white"/>
<path d="M1235.62 122.283L1236.47 121.712C1246.45 128.557 1254.15 137.969 1259.86 149.947C1265.56 161.926 1268.41 175.615 1268.41 191.016C1268.41 206.417 1265.56 220.106 1259.86 232.085C1254.15 244.063 1246.45 253.475 1236.47 260.32C1226.49 267.164 1215.37 270.587 1203.1 270.587C1195.4 270.587 1187.99 269.161 1180.86 266.024C1173.73 262.886 1167.45 258.608 1161.75 253.19C1156.04 247.771 1151.77 241.496 1148.63 234.366V323.634H1120.68V114.868H1148.63V151.944C1151.2 144.814 1154.9 138.254 1159.75 132.265C1164.6 126.276 1170.59 121.427 1177.72 117.72C1184.85 114.012 1193.12 112.016 1202.25 112.016C1214.51 112.016 1225.63 115.438 1235.62 122.283ZM1218.79 242.922L1218.5 244.063C1225.35 239.215 1230.48 232.37 1234.19 223.529C1237.9 214.688 1239.61 204.135 1239.61 192.157C1239.61 180.178 1237.9 169.626 1234.19 160.785C1230.48 151.944 1225.35 145.099 1218.5 140.25C1211.66 135.402 1203.39 132.835 1193.98 132.835C1184.56 132.835 1176.29 135.117 1169.45 139.965C1162.6 144.814 1157.47 151.658 1153.76 160.5C1150.06 169.341 1148.34 179.608 1148.34 191.586C1148.34 203.565 1150.06 213.832 1153.76 222.673C1157.47 231.514 1162.89 238.359 1169.73 243.208C1176.58 248.056 1184.85 250.338 1194.26 250.338C1203.67 250.338 1211.94 247.771 1218.79 242.922Z" fill="white"/>
<path d="M1105.35 199.857L989.563 200.428C990.704 216.684 995.267 229.233 1002.97 238.074C1010.67 246.915 1020.93 251.193 1033.77 251.193C1044.32 251.193 1052.88 248.912 1059.15 244.348C1065.43 239.785 1070.27 232.94 1073.41 224.099H1101.93C1097.65 240.07 1089.67 252.049 1077.97 260.034C1066.28 268.02 1051.74 272.013 1034.05 272.013C1018.94 272.013 1006.1 268.59 995.267 261.746C984.429 254.901 976.158 245.489 970.454 233.511C964.75 221.532 961.898 207.843 961.898 192.442C961.898 176.756 964.75 163.066 970.454 151.088C976.158 139.11 984.429 129.698 995.267 122.853C1006.1 116.008 1018.94 112.586 1033.77 112.586C1048.03 112.586 1060.58 115.723 1071.42 121.998C1082.25 128.272 1090.81 137.398 1096.8 149.092C1102.79 160.785 1105.92 174.189 1105.92 189.59C1105.92 191.586 1105.64 195.009 1105.35 199.857ZM1003.82 145.099L1003.54 144.814C995.837 152.799 991.274 164.207 989.563 179.323H1076.83C1076.26 170.196 1074.27 162.211 1070.56 155.366C1066.85 148.521 1061.72 143.102 1055.44 139.11C1049.17 135.117 1042.04 133.12 1033.77 133.12C1021.51 133.12 1011.52 137.113 1003.82 145.099Z" fill="white"/>
<path d="M955.706 199.857L839.914 200.428C841.055 216.684 845.618 229.233 853.319 238.074C861.019 246.915 871.286 251.193 884.12 251.193C894.673 251.193 903.229 248.912 909.503 244.348C915.778 239.785 920.626 232.94 923.763 224.099H952.283C948.005 240.07 940.02 252.049 928.326 260.034C916.633 268.02 902.088 272.013 884.406 272.013C869.29 272.013 856.456 268.59 845.618 261.746C834.781 254.901 826.51 245.489 820.806 233.511C815.102 221.532 812.25 207.843 812.25 192.442C812.25 176.756 815.102 163.066 820.806 151.088C826.51 139.11 834.781 129.698 845.618 122.853C856.456 116.008 869.29 112.586 884.12 112.586C898.38 112.586 910.929 115.723 921.767 121.998C932.604 128.272 941.16 137.398 947.15 149.092C953.139 160.785 956.276 174.189 956.276 189.59C956.276 191.586 955.991 195.009 955.706 199.857ZM854.174 145.099L853.889 144.814C846.189 152.799 841.626 164.207 839.914 179.323H927.186C926.615 170.196 924.619 162.211 920.911 155.366C917.204 148.521 912.07 143.102 905.796 139.11C899.521 135.117 892.391 133.12 884.12 133.12C871.857 133.12 861.875 137.113 854.174 145.099Z" fill="white"/>
<path d="M696.961 51.2676H696.675C718.351 51.2676 737.174 55.5456 753.43 63.8164C769.687 72.0872 782.235 84.3508 791.077 100.607C799.918 116.864 804.481 136.542 804.481 159.644C804.481 182.745 800.203 202.424 791.362 218.68C782.521 234.936 769.972 247.2 753.715 255.471C737.459 263.742 718.636 268.02 696.961 268.02H623.094V51.2676H696.961ZM697.531 242.352L696.961 241.781C713.217 241.781 727.192 238.644 738.6 232.37C750.008 226.095 758.849 216.684 764.838 204.42C770.827 192.156 773.965 177.041 773.965 159.358C773.965 141.961 771.113 127.131 765.123 114.867C759.134 102.604 750.293 93.192 738.885 86.6324C727.477 80.0728 713.787 76.9356 697.531 76.9356H651.614V242.352H697.531Z" fill="white"/>
</svg>
