<svg width="1400" height="2489" viewBox="0 0 1400 2489" fill="none" xmlns="http://www.w3.org/2000/svg">
<g clip-path="url(#clip0_3681_237)">
<rect width="1400" height="2489" fill="#F2EEE4"/>
<line y1="1401" x2="1400" y2="1401" stroke="#4DA2FF" stroke-width="8"/>
<line y1="1106" x2="1400" y2="1106" stroke="#4DA2FF" stroke-width="8"/>
<line y1="811" x2="1400" y2="811" stroke="#4DA2FF" stroke-width="8"/>
<line y1="516" x2="1400" y2="516" stroke="#4DA2FF" stroke-width="8"/>
<line y1="221" x2="1400" y2="221" stroke="#4DA2FF" stroke-width="8"/>
<line x1="114" y1="5" x2="114" y2="1405" stroke="#4DA2FF" stroke-width="8"/>
<line x1="409" y1="-5" x2="409" y2="1395" stroke="#4DA2FF" stroke-width="8"/>
<line x1="704" y1="5" x2="704" y2="1405" stroke="#4DA2FF" stroke-width="8"/>
<line x1="999" y1="5" x2="999" y2="1405" stroke="#4DA2FF" stroke-width="8"/>
<line x1="1294" y1="5" x2="1294" y2="1405" stroke="#4DA2FF" stroke-width="8"/>
<rect x="1290" y="513" width="110" height="597" fill="#000F1D"/>
<rect x="1290" y="807" width="110" height="303" fill="#4DA2FF"/>
<rect x="-2" y="325" width="248" height="130" fill="#000F1D"/>
<g clip-path="url(#clip1_3681_237)">
<rect width="110" height="477" transform="translate(0 719)" fill="#DBCDEB"/>
<rect y="717.438" width="89.0769" height="404.753" fill="#DBCDEB"/>
<line y1="754.288" x2="110.225" y2="754.288" stroke="black" stroke-width="2.60459"/>
<line y1="925.969" x2="110.225" y2="925.969" stroke="black" stroke-width="2.60459"/>
<line y1="1097.65" x2="110.225" y2="1097.65" stroke="black" stroke-width="2.60459"/>
<line y1="811.514" x2="110.225" y2="811.514" stroke="black" stroke-width="2.60459"/>
<line y1="983.198" x2="110.225" y2="983.198" stroke="black" stroke-width="2.60459"/>
<line y1="1154.88" x2="110.225" y2="1154.88" stroke="black" stroke-width="2.60459"/>
<line y1="868.743" x2="110.225" y2="868.743" stroke="black" stroke-width="2.60459"/>
<line y1="1040.43" x2="110.225" y2="1040.43" stroke="black" stroke-width="2.60459"/>
<line y1="735.732" x2="110.225" y2="735.732" stroke="black" stroke-width="1.56275"/>
<line y1="907.416" x2="110.225" y2="907.416" stroke="black" stroke-width="1.56275"/>
<line y1="1079.1" x2="110.225" y2="1079.1" stroke="black" stroke-width="1.56275"/>
<line y1="792.959" x2="110.225" y2="792.959" stroke="black" stroke-width="1.56275"/>
<line y1="964.642" x2="110.225" y2="964.642" stroke="black" stroke-width="1.56275"/>
<line y1="1136.33" x2="110.225" y2="1136.33" stroke="black" stroke-width="1.56275"/>
<line y1="850.187" x2="110.225" y2="850.187" stroke="black" stroke-width="1.56275"/>
<line y1="1021.87" x2="110.225" y2="1021.87" stroke="black" stroke-width="1.56275"/>
<line y1="1193.55" x2="110.225" y2="1193.55" stroke="black" stroke-width="1.56275"/>
<line y1="888.34" x2="110.225" y2="888.34" stroke="black" stroke-width="1.56275"/>
<line y1="1060.02" x2="110.225" y2="1060.02" stroke="black" stroke-width="1.56275"/>
<line y1="773.883" x2="110.225" y2="773.883" stroke="black" stroke-width="1.56275"/>
<line y1="945.566" x2="110.225" y2="945.566" stroke="black" stroke-width="1.56275"/>
<line y1="1117.25" x2="110.225" y2="1117.25" stroke="black" stroke-width="1.56275"/>
<line y1="831.113" x2="110.225" y2="831.113" stroke="black" stroke-width="1.56275"/>
<line y1="1002.79" x2="110.225" y2="1002.79" stroke="black" stroke-width="1.56275"/>
<line y1="1174.48" x2="110.225" y2="1174.48" stroke="black" stroke-width="1.56275"/>
<line x1="76.7242" y1="717.438" x2="76.7241" y2="1194.34" stroke="black" stroke-width="2.60459"/>
<line x1="16.771" y1="717.438" x2="16.771" y2="1194.34" stroke="black" stroke-width="2.60459"/>
<line x1="96.1798" y1="717.438" x2="96.1798" y2="1194.34" stroke="black" stroke-width="1.56275"/>
<line x1="36.2345" y1="717.438" x2="36.2345" y2="1194.34" stroke="black" stroke-width="1.56275"/>
<line x1="56.2189" y1="717.438" x2="56.2189" y2="1194.34" stroke="black" stroke-width="1.56275"/>
</g>
<g clip-path="url(#clip2_3681_237)">
<rect width="118.985" height="536" transform="translate(864 1523.99) rotate(-90)" fill="#DBCDEB"/>
<rect x="862.227" y="1523.99" width="100.941" height="458.663" transform="rotate(-90 862.227 1523.99)" fill="#DBCDEB"/>
<line x1="903.985" y1="1523.99" x2="903.985" y2="1404.75" stroke="black" stroke-width="2.9515"/>
<line x1="1098.54" y1="1523.99" x2="1098.54" y2="1404.75" stroke="black" stroke-width="2.9515"/>
<line x1="1293.09" y1="1523.99" x2="1293.09" y2="1404.75" stroke="black" stroke-width="2.9515"/>
<line x1="968.829" y1="1523.99" x2="968.829" y2="1404.75" stroke="black" stroke-width="2.9515"/>
<line x1="1163.38" y1="1523.99" x2="1163.38" y2="1404.75" stroke="black" stroke-width="2.9515"/>
<line x1="1357.94" y1="1523.99" x2="1357.94" y2="1404.75" stroke="black" stroke-width="2.9515"/>
<line x1="1033.69" y1="1523.99" x2="1033.69" y2="1404.75" stroke="black" stroke-width="2.9515"/>
<line x1="1228.24" y1="1523.99" x2="1228.24" y2="1404.75" stroke="black" stroke-width="2.9515"/>
<line x1="882.966" y1="1523.99" x2="882.966" y2="1404.75" stroke="black" stroke-width="1.7709"/>
<line x1="1077.51" y1="1523.99" x2="1077.51" y2="1404.75" stroke="black" stroke-width="1.7709"/>
<line x1="1272.07" y1="1523.99" x2="1272.07" y2="1404.75" stroke="black" stroke-width="1.7709"/>
<line x1="947.81" y1="1523.99" x2="947.81" y2="1404.75" stroke="black" stroke-width="1.7709"/>
<line x1="1142.36" y1="1523.99" x2="1142.36" y2="1404.75" stroke="black" stroke-width="1.7709"/>
<line x1="1336.91" y1="1523.99" x2="1336.91" y2="1404.75" stroke="black" stroke-width="1.7709"/>
<line x1="1012.66" y1="1523.99" x2="1012.66" y2="1404.75" stroke="black" stroke-width="1.7709"/>
<line x1="1207.21" y1="1523.99" x2="1207.21" y2="1404.75" stroke="black" stroke-width="1.7709"/>
<line x1="1055.9" y1="1523.99" x2="1055.9" y2="1404.75" stroke="black" stroke-width="1.7709"/>
<line x1="1250.44" y1="1523.99" x2="1250.44" y2="1404.75" stroke="black" stroke-width="1.7709"/>
<line x1="926.193" y1="1523.99" x2="926.193" y2="1404.75" stroke="black" stroke-width="1.7709"/>
<line x1="1120.75" y1="1523.99" x2="1120.75" y2="1404.75" stroke="black" stroke-width="1.7709"/>
<line x1="1315.29" y1="1523.99" x2="1315.29" y2="1404.75" stroke="black" stroke-width="1.7709"/>
<line x1="991.044" y1="1523.99" x2="991.044" y2="1404.75" stroke="black" stroke-width="1.7709"/>
<line x1="1185.6" y1="1523.99" x2="1185.6" y2="1404.75" stroke="black" stroke-width="1.7709"/>
<line x1="1380.15" y1="1523.99" x2="1380.15" y2="1404.75" stroke="black" stroke-width="1.7709"/>
<line x1="862.227" y1="1440.93" x2="1402.64" y2="1440.93" stroke="black" stroke-width="2.9515"/>
<line x1="862.227" y1="1505.78" x2="1402.64" y2="1505.78" stroke="black" stroke-width="2.9515"/>
<line x1="862.227" y1="1419.91" x2="1402.64" y2="1419.91" stroke="black" stroke-width="1.7709"/>
<line x1="862.227" y1="1484.76" x2="1402.64" y2="1484.76" stroke="black" stroke-width="1.7709"/>
<line x1="862.227" y1="1463.14" x2="1402.64" y2="1463.14" stroke="black" stroke-width="1.7709"/>
</g>
<g clip-path="url(#clip3_3681_237)">
<rect width="33" height="380" transform="translate(1372 -2)" fill="#DBCDEB"/>
<rect x="1372" y="-3.5625" width="89.0769" height="404.753" fill="#DBCDEB"/>
<line x1="1372" y1="33.3403" x2="1477.23" y2="33.3403" stroke="black" stroke-width="2.60459"/>
<line x1="1372" y1="205.262" x2="1477.23" y2="205.262" stroke="black" stroke-width="2.60459"/>
<line x1="1372" y1="377.186" x2="1477.23" y2="377.186" stroke="black" stroke-width="2.60459"/>
<line x1="1372" y1="90.6469" x2="1477.23" y2="90.6469" stroke="black" stroke-width="2.60459"/>
<line x1="1372" y1="262.569" x2="1477.23" y2="262.569" stroke="black" stroke-width="2.60459"/>
<line x1="1372" y1="147.956" x2="1477.23" y2="147.956" stroke="black" stroke-width="2.60459"/>
<line x1="1372" y1="319.877" x2="1477.23" y2="319.877" stroke="black" stroke-width="2.60459"/>
<line x1="1372" y1="14.7596" x2="1477.23" y2="14.7596" stroke="black" stroke-width="1.56275"/>
<line x1="1372" y1="186.682" x2="1477.23" y2="186.682" stroke="black" stroke-width="1.56275"/>
<line x1="1372" y1="358.603" x2="1477.23" y2="358.603" stroke="black" stroke-width="1.56275"/>
<line x1="1372" y1="72.0643" x2="1477.23" y2="72.0643" stroke="black" stroke-width="1.56275"/>
<line x1="1372" y1="243.988" x2="1477.23" y2="243.988" stroke="black" stroke-width="1.56275"/>
<line x1="1372" y1="129.373" x2="1477.23" y2="129.373" stroke="black" stroke-width="1.56275"/>
<line x1="1372" y1="301.297" x2="1477.23" y2="301.297" stroke="black" stroke-width="1.56275"/>
<line x1="1372" y1="167.578" x2="1477.23" y2="167.578" stroke="black" stroke-width="1.56275"/>
<line x1="1372" y1="339.502" x2="1477.23" y2="339.502" stroke="black" stroke-width="1.56275"/>
<line x1="1372" y1="52.9628" x2="1477.23" y2="52.9628" stroke="black" stroke-width="1.56275"/>
<line x1="1372" y1="224.885" x2="1477.23" y2="224.885" stroke="black" stroke-width="1.56275"/>
<line x1="1372" y1="110.273" x2="1477.23" y2="110.273" stroke="black" stroke-width="1.56275"/>
<line x1="1372" y1="282.193" x2="1477.23" y2="282.193" stroke="black" stroke-width="1.56275"/>
<line x1="1388.07" y1="-3.5625" x2="1388.07" y2="474" stroke="black" stroke-width="2.60459"/>
</g>
<rect y="1196" width="110" height="91" fill="#FFFC4D"/>
<rect y="1287" width="110" height="46" fill="#F79F4D"/>
<rect y="2415" width="378" height="74" fill="#FFD731"/>
<rect x="378" y="2415" width="283" height="74" fill="#55DB9C"/>
<rect x="661" y="2415" width="448" height="74" fill="#00BFFF"/>
<rect x="1109" y="2415" width="291" height="74" fill="#5C4ADE"/>
<rect width="246" height="325" fill="#4DA2FF"/>
<rect y="1405" width="304" height="304" fill="#4DA2FF"/>
<rect x="1210.5" y="-0.5" width="160" height="160" fill="#FF6600" stroke="#000F1D" stroke-width="3"/>
<rect x="1210.5" y="160.438" width="160" height="160" fill="#55DB9C" stroke="#000F1D" stroke-width="3"/>
<rect x="1210.5" y="321.373" width="160" height="160" fill="#FFD731" stroke="#000F1D" stroke-width="3"/>
<rect x="1210.5" y="482.311" width="160" height="160" fill="#E9CCFF" stroke="#000F1D" stroke-width="3"/>
<path d="M1290.88 2271.88C1293.58 2271.88 1295.76 2269.7 1295.76 2267.01C1295.76 2264.31 1293.58 2262.12 1290.88 2262.12C1288.18 2262.12 1286 2264.31 1286 2267.01C1286 2269.7 1288.18 2271.88 1290.88 2271.88Z" fill="#001019"/>
<path d="M1279.49 2283.71C1282.18 2283.71 1284.37 2281.53 1284.37 2278.83C1284.37 2276.14 1282.18 2273.95 1279.49 2273.95C1276.79 2273.95 1274.61 2276.14 1274.61 2278.83C1274.61 2281.53 1276.79 2283.71 1279.49 2283.71Z" fill="#001019"/>
<path d="M1290.9 2283.72C1293.6 2283.72 1295.79 2281.53 1295.79 2278.83C1295.79 2276.13 1293.6 2273.94 1290.9 2273.94C1288.2 2273.94 1286.01 2276.13 1286.01 2278.83C1286.01 2281.53 1288.2 2283.72 1290.9 2283.72Z" fill="#001019"/>
<path d="M1302.33 2283.64C1305.03 2283.64 1307.21 2281.46 1307.21 2278.76C1307.21 2276.07 1305.03 2273.88 1302.33 2273.88C1299.64 2273.88 1297.45 2276.07 1297.45 2278.76C1297.45 2281.46 1299.64 2283.64 1302.33 2283.64Z" fill="#001019"/>
<path d="M1290.95 2295.5C1293.65 2295.5 1295.85 2293.3 1295.85 2290.6C1295.85 2287.89 1293.65 2285.7 1290.95 2285.7C1288.24 2285.7 1286.05 2287.89 1286.05 2290.6C1286.05 2293.3 1288.24 2295.5 1290.95 2295.5Z" fill="#001019"/>
<path d="M1314.02 2295.46C1316.72 2295.46 1318.91 2293.27 1318.91 2290.57C1318.91 2287.87 1316.72 2285.68 1314.02 2285.68C1311.32 2285.68 1309.13 2287.87 1309.13 2290.57C1309.13 2293.27 1311.32 2295.46 1314.02 2295.46Z" fill="#001019"/>
<path d="M1267.84 2295.57C1270.54 2295.57 1272.73 2293.38 1272.73 2290.68C1272.73 2287.97 1270.54 2285.79 1267.84 2285.79C1265.14 2285.79 1262.95 2287.97 1262.95 2290.68C1262.95 2293.38 1265.14 2295.57 1267.84 2295.57Z" fill="#001019"/>
<path d="M1326.03 2307.21C1328.72 2307.21 1330.91 2305.02 1330.91 2302.33C1330.91 2299.63 1328.72 2297.45 1326.03 2297.45C1323.33 2297.45 1321.15 2299.63 1321.15 2302.33C1321.15 2305.02 1323.33 2307.21 1326.03 2307.21Z" fill="#001019"/>
<path d="M1255.89 2307.37C1258.59 2307.37 1260.78 2305.18 1260.78 2302.48C1260.78 2299.78 1258.59 2297.59 1255.89 2297.59C1253.19 2297.59 1251 2299.78 1251 2302.48C1251 2305.18 1253.19 2307.37 1255.89 2307.37Z" fill="#001019"/>
<path d="M1290.97 2307.3C1293.66 2307.3 1295.85 2305.11 1295.85 2302.42C1295.85 2299.72 1293.66 2297.54 1290.97 2297.54C1288.27 2297.54 1286.09 2299.72 1286.09 2302.42C1286.09 2305.11 1288.27 2307.3 1290.97 2307.3Z" fill="#001019"/>
<path d="M1290.98 2319.07C1293.67 2319.07 1295.85 2316.89 1295.85 2314.2C1295.85 2311.51 1293.67 2309.33 1290.98 2309.33C1288.29 2309.33 1286.11 2311.51 1286.11 2314.2C1286.11 2316.89 1288.29 2319.07 1290.98 2319.07Z" fill="#001019"/>
<path d="M1291 2330.87C1293.69 2330.87 1295.88 2328.68 1295.88 2325.99C1295.88 2323.29 1293.69 2321.11 1291 2321.11C1288.3 2321.11 1286.12 2323.29 1286.12 2325.99C1286.12 2328.68 1288.3 2330.87 1291 2330.87Z" fill="#001019"/>
<path d="M1291.02 2342.69C1293.72 2342.69 1295.91 2340.5 1295.91 2337.8C1295.91 2335.1 1293.72 2332.91 1291.02 2332.91C1288.32 2332.91 1286.13 2335.1 1286.13 2337.8C1286.13 2340.5 1288.32 2342.69 1291.02 2342.69Z" fill="#001019"/>
<path d="M1290.88 2154.32C1293.58 2154.32 1295.76 2152.14 1295.76 2149.44C1295.76 2146.75 1293.58 2144.56 1290.88 2144.56C1288.18 2144.56 1286 2146.75 1286 2149.44C1286 2152.14 1288.18 2154.32 1290.88 2154.32Z" fill="#001019"/>
<path d="M1279.49 2166.15C1282.18 2166.15 1284.37 2163.97 1284.37 2161.27C1284.37 2158.58 1282.18 2156.39 1279.49 2156.39C1276.79 2156.39 1274.61 2158.58 1274.61 2161.27C1274.61 2163.97 1276.79 2166.15 1279.49 2166.15Z" fill="#001019"/>
<path d="M1290.9 2166.15C1293.6 2166.15 1295.79 2163.97 1295.79 2161.26C1295.79 2158.56 1293.6 2156.38 1290.9 2156.38C1288.2 2156.38 1286.01 2158.56 1286.01 2161.26C1286.01 2163.97 1288.2 2166.15 1290.9 2166.15Z" fill="#001019"/>
<path d="M1302.33 2166.08C1305.03 2166.08 1307.21 2163.9 1307.21 2161.2C1307.21 2158.51 1305.03 2156.32 1302.33 2156.32C1299.64 2156.32 1297.45 2158.51 1297.45 2161.2C1297.45 2163.9 1299.64 2166.08 1302.33 2166.08Z" fill="#001019"/>
<path d="M1290.95 2177.93C1293.65 2177.93 1295.85 2175.74 1295.85 2173.03C1295.85 2170.33 1293.65 2168.13 1290.95 2168.13C1288.24 2168.13 1286.05 2170.33 1286.05 2173.03C1286.05 2175.74 1288.24 2177.93 1290.95 2177.93Z" fill="#001019"/>
<path d="M1314.02 2177.89C1316.72 2177.89 1318.91 2175.7 1318.91 2173C1318.91 2170.3 1316.72 2168.11 1314.02 2168.11C1311.32 2168.11 1309.13 2170.3 1309.13 2173C1309.13 2175.7 1311.32 2177.89 1314.02 2177.89Z" fill="#001019"/>
<path d="M1267.84 2178C1270.54 2178 1272.73 2175.81 1272.73 2173.11C1272.73 2170.41 1270.54 2168.22 1267.84 2168.22C1265.14 2168.22 1262.95 2170.41 1262.95 2173.11C1262.95 2175.81 1265.14 2178 1267.84 2178Z" fill="#001019"/>
<path d="M1326.03 2189.64C1328.72 2189.64 1330.91 2187.46 1330.91 2184.76C1330.91 2182.07 1328.72 2179.88 1326.03 2179.88C1323.33 2179.88 1321.15 2182.07 1321.15 2184.76C1321.15 2187.46 1323.33 2189.64 1326.03 2189.64Z" fill="#001019"/>
<path d="M1255.89 2189.81C1258.59 2189.81 1260.78 2187.62 1260.78 2184.92C1260.78 2182.22 1258.59 2180.03 1255.89 2180.03C1253.19 2180.03 1251 2182.22 1251 2184.92C1251 2187.62 1253.19 2189.81 1255.89 2189.81Z" fill="#001019"/>
<path d="M1290.97 2189.73C1293.66 2189.73 1295.85 2187.55 1295.85 2184.85C1295.85 2182.16 1293.66 2179.97 1290.97 2179.97C1288.27 2179.97 1286.09 2182.16 1286.09 2184.85C1286.09 2187.55 1288.27 2189.73 1290.97 2189.73Z" fill="#001019"/>
<path d="M1290.98 2201.51C1293.67 2201.51 1295.85 2199.33 1295.85 2196.64C1295.85 2193.95 1293.67 2191.77 1290.98 2191.77C1288.29 2191.77 1286.11 2193.95 1286.11 2196.64C1286.11 2199.33 1288.29 2201.51 1290.98 2201.51Z" fill="#001019"/>
<path d="M1291 2213.3C1293.69 2213.3 1295.88 2211.12 1295.88 2208.42C1295.88 2205.73 1293.69 2203.54 1291 2203.54C1288.3 2203.54 1286.12 2205.73 1286.12 2208.42C1286.12 2211.12 1288.3 2213.3 1291 2213.3Z" fill="#001019"/>
<path d="M1291.02 2225.12C1293.72 2225.12 1295.91 2222.93 1295.91 2220.23C1295.91 2217.53 1293.72 2215.34 1291.02 2215.34C1288.32 2215.34 1286.13 2217.53 1286.13 2220.23C1286.13 2222.93 1288.32 2225.12 1291.02 2225.12Z" fill="#001019"/>
<path d="M1290.88 2036.76C1293.58 2036.76 1295.76 2034.58 1295.76 2031.88C1295.76 2029.18 1293.58 2027 1290.88 2027C1288.18 2027 1286 2029.18 1286 2031.88C1286 2034.58 1288.18 2036.76 1290.88 2036.76Z" fill="#001019"/>
<path d="M1279.49 2048.59C1282.18 2048.59 1284.37 2046.4 1284.37 2043.71C1284.37 2041.01 1282.18 2038.83 1279.49 2038.83C1276.79 2038.83 1274.61 2041.01 1274.61 2043.71C1274.61 2046.4 1276.79 2048.59 1279.49 2048.59Z" fill="#001019"/>
<path d="M1290.9 2048.59C1293.6 2048.59 1295.79 2046.4 1295.79 2043.7C1295.79 2041 1293.6 2038.81 1290.9 2038.81C1288.2 2038.81 1286.01 2041 1286.01 2043.7C1286.01 2046.4 1288.2 2048.59 1290.9 2048.59Z" fill="#001019"/>
<path d="M1302.33 2048.52C1305.03 2048.52 1307.21 2046.33 1307.21 2043.64C1307.21 2040.94 1305.03 2038.76 1302.33 2038.76C1299.64 2038.76 1297.45 2040.94 1297.45 2043.64C1297.45 2046.33 1299.64 2048.52 1302.33 2048.52Z" fill="#001019"/>
<path d="M1290.95 2060.37C1293.65 2060.37 1295.85 2058.18 1295.85 2055.47C1295.85 2052.76 1293.65 2050.57 1290.95 2050.57C1288.24 2050.57 1286.05 2052.76 1286.05 2055.47C1286.05 2058.18 1288.24 2060.37 1290.95 2060.37Z" fill="#001019"/>
<path d="M1314.02 2060.33C1316.72 2060.33 1318.91 2058.14 1318.91 2055.44C1318.91 2052.74 1316.72 2050.55 1314.02 2050.55C1311.32 2050.55 1309.13 2052.74 1309.13 2055.44C1309.13 2058.14 1311.32 2060.33 1314.02 2060.33Z" fill="#001019"/>
<path d="M1267.84 2060.44C1270.54 2060.44 1272.73 2058.25 1272.73 2055.55C1272.73 2052.85 1270.54 2050.66 1267.84 2050.66C1265.14 2050.66 1262.95 2052.85 1262.95 2055.55C1262.95 2058.25 1265.14 2060.44 1267.84 2060.44Z" fill="#001019"/>
<path d="M1326.03 2072.08C1328.72 2072.08 1330.91 2069.9 1330.91 2067.2C1330.91 2064.51 1328.72 2062.32 1326.03 2062.32C1323.33 2062.32 1321.15 2064.51 1321.15 2067.2C1321.15 2069.9 1323.33 2072.08 1326.03 2072.08Z" fill="#001019"/>
<path d="M1255.89 2072.25C1258.59 2072.25 1260.78 2070.06 1260.78 2067.36C1260.78 2064.66 1258.59 2062.47 1255.89 2062.47C1253.19 2062.47 1251 2064.66 1251 2067.36C1251 2070.06 1253.19 2072.25 1255.89 2072.25Z" fill="#001019"/>
<path d="M1290.97 2072.17C1293.66 2072.17 1295.85 2069.99 1295.85 2067.29C1295.85 2064.6 1293.66 2062.41 1290.97 2062.41C1288.27 2062.41 1286.09 2064.6 1286.09 2067.29C1286.09 2069.99 1288.27 2072.17 1290.97 2072.17Z" fill="#001019"/>
<path d="M1290.98 2083.94C1293.67 2083.94 1295.85 2081.76 1295.85 2079.07C1295.85 2076.38 1293.67 2074.2 1290.98 2074.2C1288.29 2074.2 1286.11 2076.38 1286.11 2079.07C1286.11 2081.76 1288.29 2083.94 1290.98 2083.94Z" fill="#001019"/>
<path d="M1291 2095.74C1293.69 2095.74 1295.88 2093.56 1295.88 2090.86C1295.88 2088.17 1293.69 2085.98 1291 2085.98C1288.3 2085.98 1286.12 2088.17 1286.12 2090.86C1286.12 2093.56 1288.3 2095.74 1291 2095.74Z" fill="#001019"/>
<path d="M1291.02 2107.56C1293.72 2107.56 1295.91 2105.37 1295.91 2102.67C1295.91 2099.97 1293.72 2097.78 1291.02 2097.78C1288.32 2097.78 1286.13 2099.97 1286.13 2102.67C1286.13 2105.37 1288.32 2107.56 1291.02 2107.56Z" fill="#001019"/>
<path d="M84.6939 1939.5C86.7685 1939.5 88.4503 1937.82 88.4503 1935.74C88.4503 1933.67 86.7685 1931.99 84.6939 1931.99C82.6193 1931.99 80.9375 1933.67 80.9375 1935.74C80.9375 1937.82 82.6193 1939.5 84.6939 1939.5Z" fill="#001019"/>
<path d="M75.9283 1948.61C78.0029 1948.61 79.6846 1946.92 79.6846 1944.85C79.6846 1942.78 78.0029 1941.09 75.9283 1941.09C73.8537 1941.09 72.1719 1942.78 72.1719 1944.85C72.1719 1946.92 73.8537 1948.61 75.9283 1948.61Z" fill="#001019"/>
<path d="M84.7094 1948.61C86.7882 1948.61 88.4735 1946.92 88.4735 1944.85C88.4735 1942.77 86.7882 1941.08 84.7094 1941.08C82.6306 1941.08 80.9453 1942.77 80.9453 1944.85C80.9453 1946.92 82.6306 1948.61 84.7094 1948.61Z" fill="#001019"/>
<path d="M93.5142 1948.55C95.5888 1948.55 97.2706 1946.87 97.2706 1944.8C97.2706 1942.72 95.5888 1941.04 93.5142 1941.04C91.4396 1941.04 89.7578 1942.72 89.7578 1944.8C89.7578 1946.87 91.4396 1948.55 93.5142 1948.55Z" fill="#001019"/>
<path d="M84.7483 1957.68C86.8314 1957.68 88.5201 1955.99 88.5201 1953.9C88.5201 1951.82 86.8314 1950.13 84.7483 1950.13C82.6652 1950.13 80.9766 1951.82 80.9766 1953.9C80.9766 1955.99 82.6652 1957.68 84.7483 1957.68Z" fill="#001019"/>
<path d="M102.514 1957.65C104.593 1957.65 106.278 1955.96 106.278 1953.88C106.278 1951.8 104.593 1950.12 102.514 1950.12C100.435 1950.12 98.75 1951.8 98.75 1953.88C98.75 1955.96 100.435 1957.65 102.514 1957.65Z" fill="#001019"/>
<path d="M66.9672 1957.73C69.0461 1957.73 70.7313 1956.04 70.7313 1953.96C70.7313 1951.88 69.0461 1950.2 66.9672 1950.2C64.8884 1950.2 63.2031 1951.88 63.2031 1953.96C63.2031 1956.04 64.8884 1957.73 66.9672 1957.73Z" fill="#001019"/>
<path d="M111.756 1966.69C113.831 1966.69 115.513 1965.01 115.513 1962.93C115.513 1960.86 113.831 1959.18 111.756 1959.18C109.682 1959.18 108 1960.86 108 1962.93C108 1965.01 109.682 1966.69 111.756 1966.69Z" fill="#001019"/>
<path d="M57.7641 1966.82C59.8429 1966.82 61.5282 1965.13 61.5282 1963.05C61.5282 1960.97 59.8429 1959.29 57.7641 1959.29C55.6852 1959.29 54 1960.97 54 1963.05C54 1965.13 55.6852 1966.82 57.7641 1966.82Z" fill="#001019"/>
<path d="M84.7642 1966.76C86.8388 1966.76 88.5206 1965.08 88.5206 1963C88.5206 1960.93 86.8388 1959.25 84.7642 1959.25C82.6896 1959.25 81.0078 1960.93 81.0078 1963C81.0078 1965.08 82.6896 1966.76 84.7642 1966.76Z" fill="#001019"/>
<path d="M84.7721 1975.82C86.8425 1975.82 88.5208 1974.14 88.5208 1972.07C88.5208 1970 86.8425 1968.32 84.7721 1968.32C82.7018 1968.32 81.0234 1970 81.0234 1972.07C81.0234 1974.14 82.7018 1975.82 84.7721 1975.82Z" fill="#001019"/>
<path d="M84.7876 1984.9C86.8622 1984.9 88.544 1983.22 88.544 1981.14C88.544 1979.07 86.8622 1977.39 84.7876 1977.39C82.713 1977.39 81.0312 1979.07 81.0312 1981.14C81.0312 1983.22 82.713 1984.9 84.7876 1984.9Z" fill="#001019"/>
<path d="M84.811 1994C86.8898 1994 88.5751 1992.32 88.5751 1990.24C88.5751 1988.16 86.8898 1986.47 84.811 1986.47C82.7321 1986.47 81.0469 1988.16 81.0469 1990.24C81.0469 1992.32 82.7321 1994 84.811 1994Z" fill="#001019"/>
<path d="M84.6939 1849.01C86.7685 1849.01 88.4503 1847.33 88.4503 1845.25C88.4503 1843.18 86.7685 1841.49 84.6939 1841.49C82.6193 1841.49 80.9375 1843.18 80.9375 1845.25C80.9375 1847.33 82.6193 1849.01 84.6939 1849.01Z" fill="#001019"/>
<path d="M75.9283 1858.11C78.0029 1858.11 79.6846 1856.43 79.6846 1854.36C79.6846 1852.28 78.0029 1850.6 75.9283 1850.6C73.8537 1850.6 72.1719 1852.28 72.1719 1854.36C72.1719 1856.43 73.8537 1858.11 75.9283 1858.11Z" fill="#001019"/>
<path d="M84.7094 1858.11C86.7882 1858.11 88.4735 1856.43 88.4735 1854.35C88.4735 1852.27 86.7882 1850.59 84.7094 1850.59C82.6306 1850.59 80.9453 1852.27 80.9453 1854.35C80.9453 1856.43 82.6306 1858.11 84.7094 1858.11Z" fill="#001019"/>
<path d="M93.5142 1858.06C95.5888 1858.06 97.2706 1856.38 97.2706 1854.3C97.2706 1852.23 95.5888 1850.54 93.5142 1850.54C91.4396 1850.54 89.7578 1852.23 89.7578 1854.3C89.7578 1856.38 91.4396 1858.06 93.5142 1858.06Z" fill="#001019"/>
<path d="M84.7483 1867.18C86.8314 1867.18 88.5201 1865.49 88.5201 1863.41C88.5201 1861.33 86.8314 1859.64 84.7483 1859.64C82.6652 1859.64 80.9766 1861.33 80.9766 1863.41C80.9766 1865.49 82.6652 1867.18 84.7483 1867.18Z" fill="#001019"/>
<path d="M102.514 1867.15C104.593 1867.15 106.278 1865.46 106.278 1863.39C106.278 1861.31 104.593 1859.62 102.514 1859.62C100.435 1859.62 98.75 1861.31 98.75 1863.39C98.75 1865.46 100.435 1867.15 102.514 1867.15Z" fill="#001019"/>
<path d="M66.9672 1867.24C69.0461 1867.24 70.7313 1865.55 70.7313 1863.47C70.7313 1861.39 69.0461 1859.71 66.9672 1859.71C64.8884 1859.71 63.2031 1861.39 63.2031 1863.47C63.2031 1865.55 64.8884 1867.24 66.9672 1867.24Z" fill="#001019"/>
<path d="M111.756 1876.2C113.831 1876.2 115.513 1874.51 115.513 1872.44C115.513 1870.37 113.831 1868.68 111.756 1868.68C109.682 1868.68 108 1870.37 108 1872.44C108 1874.51 109.682 1876.2 111.756 1876.2Z" fill="#001019"/>
<path d="M57.7641 1876.33C59.8429 1876.33 61.5282 1874.64 61.5282 1872.56C61.5282 1870.48 59.8429 1868.8 57.7641 1868.8C55.6852 1868.8 54 1870.48 54 1872.56C54 1874.64 55.6852 1876.33 57.7641 1876.33Z" fill="#001019"/>
<path d="M84.7642 1876.26C86.8388 1876.26 88.5206 1874.58 88.5206 1872.51C88.5206 1870.43 86.8388 1868.75 84.7642 1868.75C82.6896 1868.75 81.0078 1870.43 81.0078 1872.51C81.0078 1874.58 82.6896 1876.26 84.7642 1876.26Z" fill="#001019"/>
<path d="M84.7721 1885.33C86.8425 1885.33 88.5208 1883.65 88.5208 1881.58C88.5208 1879.51 86.8425 1877.83 84.7721 1877.83C82.7018 1877.83 81.0234 1879.51 81.0234 1881.58C81.0234 1883.65 82.7018 1885.33 84.7721 1885.33Z" fill="#001019"/>
<path d="M84.7876 1894.41C86.8622 1894.41 88.544 1892.73 88.544 1890.65C88.544 1888.58 86.8622 1886.89 84.7876 1886.89C82.713 1886.89 81.0312 1888.58 81.0312 1890.65C81.0312 1892.73 82.713 1894.41 84.7876 1894.41Z" fill="#001019"/>
<path d="M84.811 1903.5C86.8898 1903.5 88.5751 1901.82 88.5751 1899.74C88.5751 1897.66 86.8898 1895.98 84.811 1895.98C82.7321 1895.98 81.0469 1897.66 81.0469 1899.74C81.0469 1901.82 82.7321 1903.5 84.811 1903.5Z" fill="#001019"/>
<path d="M84.6939 1758.51C86.7685 1758.51 88.4503 1756.83 88.4503 1754.76C88.4503 1752.68 86.7685 1751 84.6939 1751C82.6193 1751 80.9375 1752.68 80.9375 1754.76C80.9375 1756.83 82.6193 1758.51 84.6939 1758.51Z" fill="#001019"/>
<path d="M75.9283 1767.62C78.0029 1767.62 79.6846 1765.94 79.6846 1763.86C79.6846 1761.79 78.0029 1760.11 75.9283 1760.11C73.8537 1760.11 72.1719 1761.79 72.1719 1763.86C72.1719 1765.94 73.8537 1767.62 75.9283 1767.62Z" fill="#001019"/>
<path d="M84.7094 1767.62C86.7882 1767.62 88.4735 1765.93 88.4735 1763.86C88.4735 1761.78 86.7882 1760.09 84.7094 1760.09C82.6306 1760.09 80.9453 1761.78 80.9453 1763.86C80.9453 1765.93 82.6306 1767.62 84.7094 1767.62Z" fill="#001019"/>
<path d="M93.5142 1767.56C95.5888 1767.56 97.2706 1765.88 97.2706 1763.81C97.2706 1761.73 95.5888 1760.05 93.5142 1760.05C91.4396 1760.05 89.7578 1761.73 89.7578 1763.81C89.7578 1765.88 91.4396 1767.56 93.5142 1767.56Z" fill="#001019"/>
<path d="M84.7483 1776.69C86.8314 1776.69 88.5201 1775 88.5201 1772.91C88.5201 1770.83 86.8314 1769.14 84.7483 1769.14C82.6652 1769.14 80.9766 1770.83 80.9766 1772.91C80.9766 1775 82.6652 1776.69 84.7483 1776.69Z" fill="#001019"/>
<path d="M102.514 1776.66C104.593 1776.66 106.278 1774.97 106.278 1772.89C106.278 1770.81 104.593 1769.13 102.514 1769.13C100.435 1769.13 98.75 1770.81 98.75 1772.89C98.75 1774.97 100.435 1776.66 102.514 1776.66Z" fill="#001019"/>
<path d="M66.9672 1776.74C69.0461 1776.74 70.7313 1775.06 70.7313 1772.98C70.7313 1770.9 69.0461 1769.21 66.9672 1769.21C64.8884 1769.21 63.2031 1770.9 63.2031 1772.98C63.2031 1775.06 64.8884 1776.74 66.9672 1776.74Z" fill="#001019"/>
<path d="M111.756 1785.7C113.831 1785.7 115.513 1784.02 115.513 1781.94C115.513 1779.87 113.831 1778.19 111.756 1778.19C109.682 1778.19 108 1779.87 108 1781.94C108 1784.02 109.682 1785.7 111.756 1785.7Z" fill="#001019"/>
<path d="M57.7641 1785.83C59.8429 1785.83 61.5282 1784.15 61.5282 1782.07C61.5282 1779.99 59.8429 1778.3 57.7641 1778.3C55.6852 1778.3 54 1779.99 54 1782.07C54 1784.15 55.6852 1785.83 57.7641 1785.83Z" fill="#001019"/>
<path d="M84.7642 1785.77C86.8388 1785.77 88.5206 1784.09 88.5206 1782.01C88.5206 1779.94 86.8388 1778.26 84.7642 1778.26C82.6896 1778.26 81.0078 1779.94 81.0078 1782.01C81.0078 1784.09 82.6896 1785.77 84.7642 1785.77Z" fill="#001019"/>
<path d="M84.7721 1794.83C86.8425 1794.83 88.5208 1793.15 88.5208 1791.08C88.5208 1789.01 86.8425 1787.33 84.7721 1787.33C82.7018 1787.33 81.0234 1789.01 81.0234 1791.08C81.0234 1793.15 82.7018 1794.83 84.7721 1794.83Z" fill="#001019"/>
<path d="M84.7876 1803.91C86.8622 1803.91 88.544 1802.23 88.544 1800.16C88.544 1798.08 86.8622 1796.4 84.7876 1796.4C82.713 1796.4 81.0312 1798.08 81.0312 1800.16C81.0312 1802.23 82.713 1803.91 84.7876 1803.91Z" fill="#001019"/>
<path d="M84.811 1813.01C86.8898 1813.01 88.5751 1811.33 88.5751 1809.25C88.5751 1807.17 86.8898 1805.48 84.811 1805.48C82.7321 1805.48 81.0469 1807.17 81.0469 1809.25C81.0469 1811.33 82.7321 1813.01 84.811 1813.01Z" fill="#001019"/>
</g>
<defs>
<clipPath id="clip0_3681_237">
<rect width="1400" height="2489" fill="white"/>
</clipPath>
<clipPath id="clip1_3681_237">
<rect width="110" height="477" fill="white" transform="translate(0 719)"/>
</clipPath>
<clipPath id="clip2_3681_237">
<rect width="118.985" height="536" fill="white" transform="translate(864 1523.99) rotate(-90)"/>
</clipPath>
<clipPath id="clip3_3681_237">
<rect width="33" height="380" fill="white" transform="translate(1372 -2)"/>
</clipPath>
</defs>
</svg>
