<svg width="1138" height="2272" viewBox="0 0 1138 2272" fill="none" xmlns="http://www.w3.org/2000/svg">
<rect width="1138" height="2272" fill="white"/>
<rect x="27" y="1706" width="340.339" height="340.339" rx="51.5666" fill="#D9D9D9"/>
<path d="M87.0897 1808.78H79.7795L100.923 1751.2H108.12L129.264 1808.78H121.953L104.746 1760.31H104.297L87.0897 1808.78ZM89.7888 1786.29H119.254V1792.48H89.7888V1786.29ZM154.877 1809.68C150.829 1809.68 147.342 1808.73 144.418 1806.82C141.494 1804.9 139.245 1802.27 137.67 1798.91C136.096 1795.56 135.309 1791.73 135.309 1787.42C135.309 1783.03 136.115 1779.16 137.726 1775.8C139.357 1772.43 141.625 1769.8 144.531 1767.9C147.455 1765.99 150.866 1765.03 154.765 1765.03C157.801 1765.03 160.538 1765.6 162.975 1766.72C165.411 1767.85 167.408 1769.42 168.963 1771.45C170.519 1773.47 171.484 1775.83 171.859 1778.53H165.224C164.718 1776.56 163.593 1774.82 161.85 1773.3C160.126 1771.76 157.801 1771 154.877 1771C152.291 1771 150.023 1771.67 148.073 1773.02C146.143 1774.35 144.634 1776.23 143.546 1778.67C142.478 1781.09 141.944 1783.93 141.944 1787.19C141.944 1790.53 142.469 1793.43 143.518 1795.91C144.587 1798.38 146.086 1800.3 148.017 1801.67C149.966 1803.04 152.253 1803.72 154.877 1803.72C156.602 1803.72 158.167 1803.42 159.573 1802.82C160.978 1802.22 162.169 1801.36 163.143 1800.24C164.118 1799.11 164.812 1797.76 165.224 1796.19H171.859C171.484 1798.74 170.557 1801.03 169.076 1803.08C167.614 1805.1 165.674 1806.71 163.256 1807.91C160.857 1809.09 158.064 1809.68 154.877 1809.68ZM200.341 1765.6V1771.22H177.96V1765.6H200.341ZM184.483 1755.25H191.119V1796.41C191.119 1798.29 191.39 1799.69 191.934 1800.63C192.496 1801.55 193.209 1802.17 194.071 1802.49C194.952 1802.79 195.88 1802.94 196.854 1802.94C197.585 1802.94 198.185 1802.9 198.654 1802.82C199.122 1802.73 199.497 1802.65 199.778 1802.6L201.128 1808.56C200.678 1808.73 200.05 1808.9 199.244 1809.06C198.438 1809.25 197.417 1809.35 196.18 1809.35C194.305 1809.35 192.468 1808.94 190.669 1808.14C188.888 1807.33 187.407 1806.1 186.226 1804.45C185.064 1802.8 184.483 1800.72 184.483 1798.21V1755.25ZM210.322 1808.78V1765.6H216.957V1808.78H210.322ZM213.696 1758.4C212.402 1758.4 211.287 1757.96 210.35 1757.08C209.432 1756.2 208.972 1755.14 208.972 1753.9C208.972 1752.66 209.432 1751.6 210.35 1750.72C211.287 1749.84 212.402 1749.4 213.696 1749.4C214.989 1749.4 216.095 1749.84 217.013 1750.72C217.951 1751.6 218.419 1752.66 218.419 1753.9C218.419 1755.14 217.951 1756.2 217.013 1757.08C216.095 1757.96 214.989 1758.4 213.696 1758.4ZM246.655 1809.68C242.756 1809.68 239.335 1808.76 236.392 1806.9C233.468 1805.04 231.182 1802.45 229.532 1799.11C227.901 1795.77 227.086 1791.88 227.086 1787.42C227.086 1782.92 227.901 1778.99 229.532 1775.63C231.182 1772.28 233.468 1769.67 236.392 1767.82C239.335 1765.96 242.756 1765.03 246.655 1765.03C250.553 1765.03 253.965 1765.96 256.889 1767.82C259.832 1769.67 262.118 1772.28 263.749 1775.63C265.399 1778.99 266.223 1782.92 266.223 1787.42C266.223 1791.88 265.399 1795.77 263.749 1799.11C262.118 1802.45 259.832 1805.04 256.889 1806.9C253.965 1808.76 250.553 1809.68 246.655 1809.68ZM246.655 1803.72C249.616 1803.72 252.053 1802.96 253.965 1801.44C255.877 1799.93 257.292 1797.93 258.21 1795.46C259.129 1792.98 259.588 1790.3 259.588 1787.42C259.588 1784.53 259.129 1781.84 258.21 1779.35C257.292 1776.85 255.877 1774.84 253.965 1773.3C252.053 1771.76 249.616 1771 246.655 1771C243.693 1771 241.256 1771.76 239.345 1773.3C237.433 1774.84 236.017 1776.85 235.099 1779.35C234.181 1781.84 233.721 1784.53 233.721 1787.42C233.721 1790.3 234.181 1792.98 235.099 1795.46C236.017 1797.93 237.433 1799.93 239.345 1801.44C241.256 1802.96 243.693 1803.72 246.655 1803.72ZM282.988 1782.8V1808.78H276.352V1765.6H282.763V1772.34H283.325C284.337 1770.15 285.874 1768.39 287.936 1767.06C289.998 1765.71 292.659 1765.03 295.921 1765.03C298.845 1765.03 301.403 1765.63 303.596 1766.83C305.79 1768.02 307.495 1769.81 308.714 1772.23C309.932 1774.63 310.541 1777.67 310.541 1781.34V1808.78H303.906V1781.79C303.906 1778.4 303.025 1775.76 301.263 1773.86C299.501 1771.95 297.083 1771 294.009 1771C291.891 1771 289.998 1771.45 288.33 1772.37C286.68 1773.29 285.377 1774.63 284.421 1776.39C283.465 1778.16 282.988 1780.29 282.988 1782.8ZM80.0888 1904.78V1847.2H100.22C104.231 1847.2 107.539 1847.9 110.145 1849.28C112.75 1850.65 114.69 1852.5 115.965 1854.82C117.239 1857.13 117.877 1859.69 117.877 1862.5C117.877 1864.97 117.436 1867.01 116.555 1868.63C115.693 1870.24 114.55 1871.51 113.125 1872.45C111.719 1873.39 110.192 1874.08 108.542 1874.53V1875.09C110.304 1875.21 112.075 1875.82 113.856 1876.95C115.637 1878.07 117.127 1879.69 118.326 1881.78C119.526 1883.88 120.126 1886.45 120.126 1889.49C120.126 1892.37 119.47 1894.97 118.158 1897.28C116.846 1899.58 114.775 1901.41 111.944 1902.76C109.114 1904.11 105.431 1904.78 100.895 1904.78H80.0888ZM87.0616 1898.6H100.895C105.449 1898.6 108.683 1897.72 110.595 1895.95C112.525 1894.17 113.491 1892.02 113.491 1889.49C113.491 1887.54 112.994 1885.74 112 1884.09C111.007 1882.42 109.592 1881.09 107.755 1880.1C105.918 1879.09 103.744 1878.58 101.232 1878.58H87.0616V1898.6ZM87.0616 1872.51H99.9949C102.094 1872.51 103.987 1872.09 105.674 1871.27C107.38 1870.44 108.73 1869.28 109.723 1867.78C110.735 1866.28 111.241 1864.52 111.241 1862.5C111.241 1859.97 110.36 1857.82 108.598 1856.06C106.836 1854.28 104.044 1853.39 100.22 1853.39H87.0616V1872.51ZM157.9 1887.13V1861.6H164.535V1904.78H157.9V1897.47H157.45C156.438 1899.67 154.863 1901.53 152.726 1903.07C150.59 1904.59 147.89 1905.35 144.629 1905.35C141.93 1905.35 139.531 1904.76 137.431 1903.57C135.332 1902.37 133.682 1900.58 132.483 1898.18C131.283 1895.76 130.683 1892.71 130.683 1889.04V1861.6H137.319V1888.59C137.319 1891.74 138.2 1894.25 139.962 1896.12C141.742 1898 144.01 1898.94 146.766 1898.94C148.415 1898.94 150.093 1898.51 151.799 1897.67C153.523 1896.83 154.966 1895.53 156.128 1893.79C157.309 1892.05 157.9 1889.83 157.9 1887.13ZM195.47 1861.6V1867.22H173.089V1861.6H195.47ZM179.612 1851.25H186.248V1892.41C186.248 1894.29 186.519 1895.69 187.063 1896.63C187.625 1897.55 188.338 1898.17 189.2 1898.49C190.081 1898.79 191.009 1898.94 191.983 1898.94C192.714 1898.94 193.314 1898.9 193.783 1898.82C194.251 1898.73 194.626 1898.65 194.907 1898.6L196.257 1904.56C195.807 1904.73 195.179 1904.9 194.373 1905.06C193.567 1905.25 192.546 1905.35 191.308 1905.35C189.434 1905.35 187.597 1904.94 185.798 1904.14C184.017 1903.33 182.536 1902.1 181.355 1900.45C180.193 1898.8 179.612 1896.72 179.612 1894.21V1851.25ZM224.232 1861.6V1867.22H201.852V1861.6H224.232ZM208.375 1851.25H215.01V1892.41C215.01 1894.29 215.282 1895.69 215.826 1896.63C216.388 1897.55 217.1 1898.17 217.962 1898.49C218.843 1898.79 219.771 1898.94 220.746 1898.94C221.477 1898.94 222.077 1898.9 222.545 1898.82C223.014 1898.73 223.389 1898.65 223.67 1898.6L225.019 1904.56C224.57 1904.73 223.942 1904.9 223.136 1905.06C222.33 1905.25 221.308 1905.35 220.071 1905.35C218.197 1905.35 216.36 1904.94 214.56 1904.14C212.78 1903.33 211.299 1902.1 210.118 1900.45C208.956 1898.8 208.375 1896.72 208.375 1894.21V1851.25ZM251.294 1905.68C247.395 1905.68 243.974 1904.76 241.031 1902.9C238.107 1901.04 235.821 1898.45 234.171 1895.11C232.54 1891.77 231.725 1887.88 231.725 1883.42C231.725 1878.92 232.54 1874.99 234.171 1871.63C235.821 1868.28 238.107 1865.67 241.031 1863.82C243.974 1861.96 247.395 1861.03 251.294 1861.03C255.193 1861.03 258.604 1861.96 261.528 1863.82C264.471 1865.67 266.758 1868.28 268.388 1871.63C270.038 1874.99 270.863 1878.92 270.863 1883.42C270.863 1887.88 270.038 1891.77 268.388 1895.11C266.758 1898.45 264.471 1901.04 261.528 1902.9C258.604 1904.76 255.193 1905.68 251.294 1905.68ZM251.294 1899.72C254.255 1899.72 256.692 1898.96 258.604 1897.44C260.516 1895.93 261.931 1893.93 262.849 1891.46C263.768 1888.98 264.227 1886.3 264.227 1883.42C264.227 1880.53 263.768 1877.84 262.849 1875.35C261.931 1872.85 260.516 1870.84 258.604 1869.3C256.692 1867.76 254.255 1867 251.294 1867C248.332 1867 245.896 1867.76 243.984 1869.3C242.072 1870.84 240.657 1872.85 239.738 1875.35C238.82 1877.84 238.36 1880.53 238.36 1883.42C238.36 1886.3 238.82 1888.98 239.738 1891.46C240.657 1893.93 242.072 1895.93 243.984 1897.44C245.896 1898.96 248.332 1899.72 251.294 1899.72ZM287.627 1878.8V1904.78H280.991V1861.6H287.402V1868.34H287.964C288.976 1866.15 290.513 1864.39 292.575 1863.06C294.637 1861.71 297.299 1861.03 300.56 1861.03C303.484 1861.03 306.043 1861.63 308.236 1862.83C310.429 1864.02 312.134 1865.81 313.353 1868.23C314.571 1870.63 315.18 1873.67 315.18 1877.34V1904.78H308.545V1877.79C308.545 1874.4 307.664 1871.76 305.902 1869.86C304.14 1867.95 301.722 1867 298.648 1867C296.53 1867 294.637 1867.45 292.969 1868.37C291.319 1869.29 290.016 1870.63 289.061 1872.39C288.105 1874.16 287.627 1876.29 287.627 1878.8ZM204.976 1943.2V2000.78H198.004V1950.51H197.666L183.608 1959.85V1952.76L198.004 1943.2H204.976Z" fill="black"/>
<rect x="410.664" y="1706" width="340.339" height="340.339" rx="51.5666" fill="#D9D9D9"/>
<path d="M470.73 1808.78H463.42L484.563 1751.2H491.761L512.904 1808.78H505.594L488.387 1760.31H487.937L470.73 1808.78ZM473.429 1786.29H502.895V1792.48H473.429V1786.29ZM538.518 1809.68C534.469 1809.68 530.983 1808.73 528.059 1806.82C525.135 1804.9 522.885 1802.27 521.311 1798.91C519.736 1795.56 518.949 1791.73 518.949 1787.42C518.949 1783.03 519.755 1779.16 521.367 1775.8C522.998 1772.43 525.266 1769.8 528.171 1767.9C531.095 1765.99 534.507 1765.03 538.405 1765.03C541.442 1765.03 544.179 1765.6 546.615 1766.72C549.052 1767.85 551.048 1769.42 552.604 1771.45C554.16 1773.47 555.125 1775.83 555.5 1778.53H548.865C548.358 1776.56 547.234 1774.82 545.491 1773.3C543.766 1771.76 541.442 1771 538.518 1771C535.931 1771 533.663 1771.67 531.714 1773.02C529.783 1774.35 528.274 1776.23 527.187 1778.67C526.119 1781.09 525.585 1783.93 525.585 1787.19C525.585 1790.53 526.109 1793.43 527.159 1795.91C528.227 1798.38 529.727 1800.3 531.658 1801.67C533.607 1803.04 535.894 1803.72 538.518 1803.72C540.242 1803.72 541.807 1803.42 543.213 1802.82C544.619 1802.22 545.809 1801.36 546.784 1800.24C547.759 1799.11 548.452 1797.76 548.865 1796.19H555.5C555.125 1798.74 554.197 1801.03 552.716 1803.08C551.254 1805.1 549.314 1806.71 546.896 1807.91C544.497 1809.09 541.704 1809.68 538.518 1809.68ZM583.981 1765.6V1771.22H561.601V1765.6H583.981ZM568.124 1755.25H574.759V1796.41C574.759 1798.29 575.031 1799.69 575.575 1800.63C576.137 1801.55 576.849 1802.17 577.711 1802.49C578.592 1802.79 579.52 1802.94 580.495 1802.94C581.226 1802.94 581.826 1802.9 582.294 1802.82C582.763 1802.73 583.138 1802.65 583.419 1802.6L584.769 1808.56C584.319 1808.73 583.691 1808.9 582.885 1809.06C582.079 1809.25 581.057 1809.35 579.82 1809.35C577.946 1809.35 576.109 1808.94 574.309 1808.14C572.529 1807.33 571.048 1806.1 569.867 1804.45C568.705 1802.8 568.124 1800.72 568.124 1798.21V1755.25ZM593.962 1808.78V1765.6H600.598V1808.78H593.962ZM597.336 1758.4C596.043 1758.4 594.928 1757.96 593.991 1757.08C593.072 1756.2 592.613 1755.14 592.613 1753.9C592.613 1752.66 593.072 1751.6 593.991 1750.72C594.928 1749.84 596.043 1749.4 597.336 1749.4C598.63 1749.4 599.736 1749.84 600.654 1750.72C601.591 1751.6 602.06 1752.66 602.06 1753.9C602.06 1755.14 601.591 1756.2 600.654 1757.08C599.736 1757.96 598.63 1758.4 597.336 1758.4ZM630.295 1809.68C626.397 1809.68 622.976 1808.76 620.033 1806.9C617.109 1805.04 614.822 1802.45 613.173 1799.11C611.542 1795.77 610.727 1791.88 610.727 1787.42C610.727 1782.92 611.542 1778.99 613.173 1775.63C614.822 1772.28 617.109 1769.67 620.033 1767.82C622.976 1765.96 626.397 1765.03 630.295 1765.03C634.194 1765.03 637.605 1765.96 640.53 1767.82C643.472 1769.67 645.759 1772.28 647.39 1775.63C649.039 1778.99 649.864 1782.92 649.864 1787.42C649.864 1791.88 649.039 1795.77 647.39 1799.11C645.759 1802.45 643.472 1805.04 640.53 1806.9C637.605 1808.76 634.194 1809.68 630.295 1809.68ZM630.295 1803.72C633.257 1803.72 635.694 1802.96 637.605 1801.44C639.517 1799.93 640.933 1797.93 641.851 1795.46C642.769 1792.98 643.229 1790.3 643.229 1787.42C643.229 1784.53 642.769 1781.84 641.851 1779.35C640.933 1776.85 639.517 1774.84 637.605 1773.3C635.694 1771.76 633.257 1771 630.295 1771C627.334 1771 624.897 1771.76 622.985 1773.3C621.073 1774.84 619.658 1776.85 618.74 1779.35C617.821 1781.84 617.362 1784.53 617.362 1787.42C617.362 1790.3 617.821 1792.98 618.74 1795.46C619.658 1797.93 621.073 1799.93 622.985 1801.44C624.897 1802.96 627.334 1803.72 630.295 1803.72ZM666.628 1782.8V1808.78H659.993V1765.6H666.403V1772.34H666.966C667.978 1770.15 669.515 1768.39 671.577 1767.06C673.638 1765.71 676.3 1765.03 679.561 1765.03C682.486 1765.03 685.044 1765.63 687.237 1766.83C689.43 1768.02 691.136 1769.81 692.354 1772.23C693.573 1774.63 694.182 1777.67 694.182 1781.34V1808.78H687.546V1781.79C687.546 1778.4 686.665 1775.76 684.903 1773.86C683.142 1771.95 680.724 1771 677.65 1771C675.532 1771 673.638 1771.45 671.97 1772.37C670.321 1773.29 669.018 1774.63 668.062 1776.39C667.106 1778.16 666.628 1780.29 666.628 1782.8ZM463.729 1904.78V1847.2H483.86C487.872 1847.2 491.18 1847.9 493.785 1849.28C496.391 1850.65 498.331 1852.5 499.605 1854.82C500.88 1857.13 501.517 1859.69 501.517 1862.5C501.517 1864.97 501.077 1867.01 500.196 1868.63C499.334 1870.24 498.19 1871.51 496.766 1872.45C495.36 1873.39 493.832 1874.08 492.183 1874.53V1875.09C493.945 1875.21 495.716 1875.82 497.497 1876.95C499.277 1878.07 500.768 1879.69 501.967 1881.78C503.167 1883.88 503.767 1886.45 503.767 1889.49C503.767 1892.37 503.11 1894.97 501.798 1897.28C500.486 1899.58 498.415 1901.41 495.585 1902.76C492.754 1904.11 489.071 1904.78 484.535 1904.78H463.729ZM470.702 1898.6H484.535C489.09 1898.6 492.323 1897.72 494.235 1895.95C496.166 1894.17 497.131 1892.02 497.131 1889.49C497.131 1887.54 496.634 1885.74 495.641 1884.09C494.648 1882.42 493.232 1881.09 491.396 1880.1C489.559 1879.09 487.384 1878.58 484.873 1878.58H470.702V1898.6ZM470.702 1872.51H483.636C485.735 1872.51 487.628 1872.09 489.315 1871.27C491.021 1870.44 492.37 1869.28 493.364 1867.78C494.376 1866.28 494.882 1864.52 494.882 1862.5C494.882 1859.97 494.001 1857.82 492.239 1856.06C490.477 1854.28 487.684 1853.39 483.86 1853.39H470.702V1872.51ZM541.54 1887.13V1861.6H548.176V1904.78H541.54V1897.47H541.09C540.078 1899.67 538.504 1901.53 536.367 1903.07C534.23 1904.59 531.531 1905.35 528.27 1905.35C525.57 1905.35 523.171 1904.76 521.072 1903.57C518.973 1902.37 517.323 1900.58 516.123 1898.18C514.924 1895.76 514.324 1892.71 514.324 1889.04V1861.6H520.959V1888.59C520.959 1891.74 521.84 1894.25 523.602 1896.12C525.383 1898 527.651 1898.94 530.406 1898.94C532.056 1898.94 533.733 1898.51 535.439 1897.67C537.164 1896.83 538.607 1895.53 539.769 1893.79C540.95 1892.05 541.54 1889.83 541.54 1887.13ZM579.11 1861.6V1867.22H556.73V1861.6H579.11ZM563.253 1851.25H569.888V1892.41C569.888 1894.29 570.16 1895.69 570.704 1896.63C571.266 1897.55 571.978 1898.17 572.84 1898.49C573.721 1898.79 574.649 1898.94 575.624 1898.94C576.355 1898.94 576.955 1898.9 577.423 1898.82C577.892 1898.73 578.267 1898.65 578.548 1898.6L579.897 1904.56C579.448 1904.73 578.82 1904.9 578.014 1905.06C577.208 1905.25 576.186 1905.35 574.949 1905.35C573.075 1905.35 571.238 1904.94 569.438 1904.14C567.658 1903.33 566.177 1902.1 564.996 1900.45C563.834 1898.8 563.253 1896.72 563.253 1894.21V1851.25ZM607.873 1861.6V1867.22H585.493V1861.6H607.873ZM592.015 1851.25H598.651V1892.41C598.651 1894.29 598.923 1895.69 599.466 1896.63C600.028 1897.55 600.741 1898.17 601.603 1898.49C602.484 1898.79 603.412 1898.94 604.386 1898.94C605.117 1898.94 605.717 1898.9 606.186 1898.82C606.654 1898.73 607.029 1898.65 607.311 1898.6L608.66 1904.56C608.21 1904.73 607.582 1904.9 606.776 1905.06C605.97 1905.25 604.949 1905.35 603.712 1905.35C601.837 1905.35 600 1904.94 598.201 1904.14C596.42 1903.33 594.94 1902.1 593.759 1900.45C592.597 1898.8 592.015 1896.72 592.015 1894.21V1851.25ZM634.934 1905.68C631.036 1905.68 627.615 1904.76 624.672 1902.9C621.748 1901.04 619.461 1898.45 617.812 1895.11C616.181 1891.77 615.366 1887.88 615.366 1883.42C615.366 1878.92 616.181 1874.99 617.812 1871.63C619.461 1868.28 621.748 1865.67 624.672 1863.82C627.615 1861.96 631.036 1861.03 634.934 1861.03C638.833 1861.03 642.245 1861.96 645.169 1863.82C648.111 1865.67 650.398 1868.28 652.029 1871.63C653.678 1874.99 654.503 1878.92 654.503 1883.42C654.503 1887.88 653.678 1891.77 652.029 1895.11C650.398 1898.45 648.111 1901.04 645.169 1902.9C642.245 1904.76 638.833 1905.68 634.934 1905.68ZM634.934 1899.72C637.896 1899.72 640.333 1898.96 642.245 1897.44C644.156 1895.93 645.572 1893.93 646.49 1891.46C647.409 1888.98 647.868 1886.3 647.868 1883.42C647.868 1880.53 647.409 1877.84 646.49 1875.35C645.572 1872.85 644.156 1870.84 642.245 1869.3C640.333 1867.76 637.896 1867 634.934 1867C631.973 1867 629.536 1867.76 627.624 1869.3C625.712 1870.84 624.297 1872.85 623.379 1875.35C622.46 1877.84 622.001 1880.53 622.001 1883.42C622.001 1886.3 622.46 1888.98 623.379 1891.46C624.297 1893.93 625.712 1895.93 627.624 1897.44C629.536 1898.96 631.973 1899.72 634.934 1899.72ZM671.267 1878.8V1904.78H664.632V1861.6H671.042V1868.34H671.605C672.617 1866.15 674.154 1864.39 676.216 1863.06C678.278 1861.71 680.939 1861.03 684.201 1861.03C687.125 1861.03 689.683 1861.63 691.876 1862.83C694.069 1864.02 695.775 1865.81 696.993 1868.23C698.212 1870.63 698.821 1873.67 698.821 1877.34V1904.78H692.186V1877.79C692.186 1874.4 691.305 1871.76 689.543 1869.86C687.781 1867.95 685.363 1867 682.289 1867C680.171 1867 678.278 1867.45 676.609 1868.37C674.96 1869.29 673.657 1870.63 672.701 1872.39C671.745 1874.16 671.267 1876.29 671.267 1878.8ZM562.806 2000.78V1995.72L581.813 1974.92C584.043 1972.48 585.88 1970.36 587.324 1968.56C588.767 1966.74 589.835 1965.04 590.529 1963.45C591.241 1961.83 591.597 1960.15 591.597 1958.38C591.597 1956.36 591.11 1954.61 590.135 1953.13C589.179 1951.65 587.867 1950.5 586.199 1949.7C584.531 1948.89 582.656 1948.49 580.576 1948.49C578.364 1948.49 576.433 1948.95 574.784 1949.87C573.153 1950.76 571.888 1952.03 570.988 1953.66C570.107 1955.29 569.667 1957.2 569.667 1959.4H563.031C563.031 1956.02 563.809 1953.06 565.365 1950.51C566.921 1947.96 569.039 1945.98 571.719 1944.55C574.418 1943.13 577.446 1942.41 580.801 1942.41C584.175 1942.41 587.164 1943.13 589.77 1944.55C592.375 1945.98 594.418 1947.9 595.899 1950.32C597.38 1952.73 598.12 1955.42 598.12 1958.38C598.12 1960.5 597.736 1962.57 596.967 1964.6C596.218 1966.6 594.906 1968.84 593.031 1971.32C591.175 1973.77 588.598 1976.77 585.299 1980.31L572.366 1994.15V1994.6H599.132V2000.78H562.806Z" fill="black"/>
<rect x="774.047" y="1329.78" width="337.949" height="358.222" rx="51.2044" fill="#D9D9D9"/>
<path d="M860.498 1375.74H868.762L888.193 1423.2H888.863L908.295 1375.74H916.558V1432.92H910.081V1389.47H909.523L891.655 1432.92H885.401L867.534 1389.47H866.975V1432.92H860.498V1375.74ZM942.167 1433.92C939.449 1433.92 936.983 1433.41 934.768 1432.39C932.553 1431.34 930.795 1429.84 929.492 1427.89C928.189 1425.92 927.537 1423.54 927.537 1420.74C927.537 1418.29 928.021 1416.3 928.989 1414.77C929.957 1413.22 931.251 1412.01 932.87 1411.14C934.489 1410.26 936.276 1409.61 938.23 1409.19C940.203 1408.74 942.185 1408.38 944.177 1408.12C946.783 1407.79 948.895 1407.54 950.514 1407.37C952.152 1407.18 953.343 1406.88 954.088 1406.45C954.851 1406.02 955.233 1405.28 955.233 1404.22V1403.99C955.233 1401.24 954.479 1399.1 952.971 1397.57C951.482 1396.04 949.221 1395.28 946.187 1395.28C943.041 1395.28 940.575 1395.97 938.789 1397.35C937.002 1398.73 935.745 1400.2 935.02 1401.76L928.766 1399.53C929.883 1396.92 931.372 1394.89 933.233 1393.44C935.113 1391.97 937.16 1390.95 939.375 1390.37C941.608 1389.77 943.805 1389.47 945.964 1389.47C947.341 1389.47 948.923 1389.64 950.71 1389.98C952.515 1390.29 954.255 1390.95 955.931 1391.96C957.624 1392.96 959.029 1394.48 960.146 1396.51C961.263 1398.54 961.821 1401.26 961.821 1404.66V1432.92H955.233V1427.11H954.898C954.451 1428.04 953.706 1429.04 952.664 1430.1C951.622 1431.16 950.235 1432.06 948.504 1432.8C946.773 1433.55 944.661 1433.92 942.167 1433.92ZM943.172 1428C945.778 1428 947.974 1427.49 949.761 1426.47C951.566 1425.44 952.925 1424.12 953.837 1422.5C954.767 1420.88 955.233 1419.18 955.233 1417.39V1411.36C954.953 1411.7 954.339 1412.01 953.39 1412.28C952.459 1412.54 951.38 1412.78 950.151 1412.98C948.942 1413.17 947.76 1413.34 946.606 1413.48C945.47 1413.62 944.549 1413.73 943.842 1413.82C942.129 1414.04 940.529 1414.41 939.04 1414.91C937.569 1415.39 936.378 1416.13 935.466 1417.11C934.573 1418.08 934.126 1419.4 934.126 1421.08C934.126 1423.37 934.973 1425.1 936.667 1426.27C938.379 1427.43 940.547 1428 943.172 1428ZM973.847 1432.92V1390.03H980.436V1432.92H973.847ZM977.197 1382.89C975.913 1382.89 974.806 1382.45 973.875 1381.57C972.963 1380.7 972.507 1379.65 972.507 1378.42C972.507 1377.19 972.963 1376.14 973.875 1375.26C974.806 1374.39 975.913 1373.95 977.197 1373.95C978.482 1373.95 979.58 1374.39 980.492 1375.26C981.422 1376.14 981.888 1377.19 981.888 1378.42C981.888 1379.65 981.422 1380.7 980.492 1381.57C979.58 1382.45 978.482 1382.89 977.197 1382.89ZM999.093 1407.12V1432.92H992.504V1390.03H998.869V1396.73H999.428C1000.43 1394.56 1001.96 1392.81 1004.01 1391.48C1006.05 1390.14 1008.7 1389.47 1011.94 1389.47C1014.84 1389.47 1017.38 1390.07 1019.56 1391.26C1021.73 1392.43 1023.43 1394.22 1024.64 1396.62C1025.85 1399 1026.45 1402.02 1026.45 1405.67V1432.92H1019.86V1406.11C1019.86 1402.75 1018.99 1400.12 1017.24 1398.24C1015.49 1396.34 1013.09 1395.39 1010.04 1395.39C1007.93 1395.39 1006.05 1395.85 1004.4 1396.76C1002.76 1397.67 1001.47 1399 1000.52 1400.75C999.567 1402.5 999.093 1404.63 999.093 1407.12ZM833.707 1527.92H826.448L847.443 1470.74H854.59L875.585 1527.92H868.326L851.24 1479.78H850.793L833.707 1527.92ZM836.387 1505.58H865.646V1511.72H836.387V1505.58ZM901.018 1528.81C896.998 1528.81 893.536 1527.86 890.633 1525.96C887.729 1524.06 885.496 1521.45 883.932 1518.12C882.369 1514.79 881.587 1510.98 881.587 1506.7C881.587 1502.34 882.387 1498.5 883.988 1495.17C885.607 1491.82 887.859 1489.2 890.744 1487.32C893.648 1485.42 897.035 1484.47 900.907 1484.47C903.922 1484.47 906.639 1485.03 909.059 1486.15C911.478 1487.27 913.461 1488.83 915.005 1490.84C916.55 1492.85 917.509 1495.2 917.881 1497.88H911.292C910.79 1495.92 909.673 1494.19 907.942 1492.68C906.23 1491.16 903.922 1490.39 901.018 1490.39C898.45 1490.39 896.198 1491.06 894.262 1492.4C892.345 1493.73 890.847 1495.6 889.767 1498.02C888.706 1500.42 888.176 1503.24 888.176 1506.47C888.176 1509.79 888.697 1512.67 889.739 1515.13C890.8 1517.59 892.289 1519.49 894.206 1520.85C896.142 1522.21 898.413 1522.89 901.018 1522.89C902.731 1522.89 904.285 1522.59 905.681 1522C907.077 1521.4 908.259 1520.55 909.226 1519.43C910.194 1518.31 910.883 1516.97 911.292 1515.41H917.881C917.509 1517.94 916.588 1520.22 915.117 1522.25C913.665 1524.26 911.739 1525.86 909.338 1527.05C906.956 1528.22 904.182 1528.81 901.018 1528.81ZM946.163 1485.03V1490.62H923.939V1485.03H946.163ZM930.417 1474.76H937.005V1515.63C937.005 1517.49 937.275 1518.89 937.815 1519.82C938.373 1520.73 939.081 1521.35 939.937 1521.66C940.811 1521.96 941.733 1522.11 942.701 1522.11C943.427 1522.11 944.022 1522.07 944.487 1522C944.953 1521.9 945.325 1521.83 945.604 1521.77L946.944 1527.69C946.498 1527.86 945.874 1528.03 945.074 1528.2C944.273 1528.38 943.259 1528.47 942.031 1528.47C940.169 1528.47 938.345 1528.07 936.559 1527.27C934.79 1526.47 933.32 1525.25 932.147 1523.62C930.993 1521.98 930.417 1519.91 930.417 1517.42V1474.76ZM956.074 1527.92V1485.03H962.662V1527.92H956.074ZM959.424 1477.89C958.14 1477.89 957.032 1477.45 956.102 1476.57C955.19 1475.7 954.734 1474.65 954.734 1473.42C954.734 1472.19 955.19 1471.14 956.102 1470.26C957.032 1469.39 958.14 1468.95 959.424 1468.95C960.708 1468.95 961.806 1469.39 962.718 1470.26C963.649 1471.14 964.114 1472.19 964.114 1473.42C964.114 1474.65 963.649 1475.7 962.718 1476.57C961.806 1477.45 960.708 1477.89 959.424 1477.89ZM992.151 1528.81C988.28 1528.81 984.883 1527.89 981.961 1526.05C979.058 1524.2 976.787 1521.63 975.149 1518.31C973.53 1515 972.72 1511.13 972.72 1506.7C972.72 1502.23 973.53 1498.33 975.149 1495C976.787 1491.67 979.058 1489.08 981.961 1487.24C984.883 1485.4 988.28 1484.47 992.151 1484.47C996.023 1484.47 999.41 1485.4 1002.31 1487.24C1005.24 1489.08 1007.51 1491.67 1009.13 1495C1010.76 1498.33 1011.58 1502.23 1011.58 1506.7C1011.58 1511.13 1010.76 1515 1009.13 1518.31C1007.51 1521.63 1005.24 1524.2 1002.31 1526.05C999.41 1527.89 996.023 1528.81 992.151 1528.81ZM992.151 1522.89C995.092 1522.89 997.512 1522.14 999.41 1520.63C1001.31 1519.12 1002.71 1517.14 1003.63 1514.68C1004.54 1512.23 1004.99 1509.56 1004.99 1506.7C1004.99 1503.83 1004.54 1501.16 1003.63 1498.69C1002.71 1496.21 1001.31 1494.21 999.41 1492.68C997.512 1491.16 995.092 1490.39 992.151 1490.39C989.211 1490.39 986.791 1491.16 984.892 1492.68C982.994 1494.21 981.589 1496.21 980.677 1498.69C979.765 1501.16 979.309 1503.83 979.309 1506.7C979.309 1509.56 979.765 1512.23 980.677 1514.68C981.589 1517.14 982.994 1519.12 984.892 1520.63C986.791 1522.14 989.211 1522.89 992.151 1522.89ZM1028.23 1502.12V1527.92H1021.64V1485.03H1028.01V1491.73H1028.56C1029.57 1489.56 1031.1 1487.81 1033.14 1486.48C1035.19 1485.14 1037.83 1484.47 1041.07 1484.47C1043.98 1484.47 1046.52 1485.07 1048.69 1486.26C1050.87 1487.43 1052.56 1489.22 1053.77 1491.62C1054.98 1494 1055.59 1497.02 1055.59 1500.67V1527.92H1049V1501.11C1049 1497.75 1048.13 1495.12 1046.38 1493.24C1044.63 1491.34 1042.23 1490.39 1039.17 1490.39C1037.07 1490.39 1035.19 1490.85 1033.53 1491.76C1031.9 1492.67 1030.6 1494 1029.65 1495.75C1028.7 1497.5 1028.23 1499.63 1028.23 1502.12ZM826.755 1622.92V1565.74H846.745C850.728 1565.74 854.013 1566.43 856.6 1567.8C859.187 1569.16 861.113 1571 862.379 1573.3C863.645 1575.59 864.278 1578.13 864.278 1580.93C864.278 1583.38 863.84 1585.41 862.965 1587.01C862.109 1588.61 860.974 1589.88 859.559 1590.81C858.163 1591.74 856.647 1592.43 855.009 1592.88V1593.43C856.758 1593.55 858.517 1594.16 860.285 1595.28C862.053 1596.39 863.533 1597.99 864.724 1600.08C865.915 1602.16 866.511 1604.71 866.511 1607.73C866.511 1610.59 865.86 1613.17 864.557 1615.46C863.254 1617.75 861.197 1619.57 858.387 1620.91C855.576 1622.25 851.919 1622.92 847.415 1622.92H826.755ZM833.679 1616.77H847.415C851.938 1616.77 855.148 1615.9 857.047 1614.15C858.964 1612.38 859.922 1610.24 859.922 1607.73C859.922 1605.79 859.429 1604.01 858.443 1602.37C857.456 1600.71 856.051 1599.39 854.227 1598.4C852.403 1597.4 850.244 1596.9 847.75 1596.9H833.679V1616.77ZM833.679 1590.87H846.521C848.606 1590.87 850.486 1590.46 852.161 1589.64C853.855 1588.82 855.195 1587.66 856.181 1586.18C857.186 1584.69 857.689 1582.94 857.689 1580.93C857.689 1578.41 856.814 1576.28 855.064 1574.53C853.315 1572.77 850.542 1571.88 846.745 1571.88H833.679V1590.87ZM904.02 1605.38V1580.03H910.608V1622.92H904.02V1615.66H903.573C902.568 1617.83 901.004 1619.69 898.883 1621.21C896.761 1622.72 894.081 1623.47 890.842 1623.47C888.162 1623.47 885.779 1622.89 883.695 1621.72C881.61 1620.52 879.972 1618.74 878.781 1616.36C877.59 1613.95 876.994 1610.93 876.994 1607.28V1580.03H883.583V1606.83C883.583 1609.96 884.458 1612.46 886.208 1614.32C887.976 1616.18 890.228 1617.11 892.964 1617.11C894.602 1617.11 896.268 1616.69 897.961 1615.85C899.674 1615.02 901.107 1613.73 902.261 1612C903.433 1610.27 904.02 1608.06 904.02 1605.38ZM941.326 1580.03V1585.62H919.103V1580.03H941.326ZM925.58 1569.76H932.168V1610.63C932.168 1612.49 932.438 1613.89 932.978 1614.82C933.536 1615.73 934.244 1616.35 935.1 1616.66C935.975 1616.96 936.896 1617.11 937.864 1617.11C938.59 1617.11 939.185 1617.07 939.651 1617C940.116 1616.9 940.488 1616.83 940.767 1616.77L942.107 1622.69C941.661 1622.86 941.037 1623.03 940.237 1623.2C939.437 1623.38 938.422 1623.47 937.194 1623.47C935.332 1623.47 933.508 1623.07 931.722 1622.27C929.954 1621.47 928.483 1620.25 927.311 1618.62C926.157 1616.98 925.58 1614.91 925.58 1612.42V1569.76ZM969.886 1580.03V1585.62H947.663V1580.03H969.886ZM954.14 1569.76H960.729V1610.63C960.729 1612.49 960.999 1613.89 961.539 1614.82C962.097 1615.73 962.804 1616.35 963.66 1616.66C964.535 1616.96 965.457 1617.11 966.424 1617.11C967.15 1617.11 967.746 1617.07 968.211 1617C968.676 1616.9 969.049 1616.83 969.328 1616.77L970.668 1622.69C970.221 1622.86 969.598 1623.03 968.797 1623.2C967.997 1623.38 966.983 1623.47 965.754 1623.47C963.893 1623.47 962.069 1623.07 960.282 1622.27C958.514 1621.47 957.044 1620.25 955.871 1618.62C954.717 1616.98 954.14 1614.91 954.14 1612.42V1569.76ZM996.758 1623.81C992.886 1623.81 989.49 1622.89 986.568 1621.05C983.664 1619.2 981.393 1616.63 979.755 1613.31C978.136 1610 977.327 1606.13 977.327 1601.7C977.327 1597.23 978.136 1593.33 979.755 1590C981.393 1586.67 983.664 1584.08 986.568 1582.24C989.49 1580.4 992.886 1579.47 996.758 1579.47C1000.63 1579.47 1004.02 1580.4 1006.92 1582.24C1009.84 1584.08 1012.11 1586.67 1013.73 1590C1015.37 1593.33 1016.19 1597.23 1016.19 1601.7C1016.19 1606.13 1015.37 1610 1013.73 1613.31C1012.11 1616.63 1009.84 1619.2 1006.92 1621.05C1004.02 1622.89 1000.63 1623.81 996.758 1623.81ZM996.758 1617.89C999.699 1617.89 1002.12 1617.14 1004.02 1615.63C1005.92 1614.12 1007.32 1612.14 1008.23 1609.68C1009.14 1607.23 1009.6 1604.56 1009.6 1601.7C1009.6 1598.83 1009.14 1596.16 1008.23 1593.69C1007.32 1591.21 1005.92 1589.21 1004.02 1587.68C1002.12 1586.16 999.699 1585.39 996.758 1585.39C993.817 1585.39 991.397 1586.16 989.499 1587.68C987.601 1589.21 986.195 1591.21 985.283 1593.69C984.371 1596.16 983.915 1598.83 983.915 1601.7C983.915 1604.56 984.371 1607.23 985.283 1609.68C986.195 1612.14 987.601 1614.12 989.499 1615.63C991.397 1617.14 993.817 1617.89 996.758 1617.89ZM1032.84 1597.12V1622.92H1026.25V1580.03H1032.61V1586.73H1033.17C1034.18 1584.56 1035.7 1582.81 1037.75 1581.48C1039.8 1580.14 1042.44 1579.47 1045.68 1579.47C1048.58 1579.47 1051.12 1580.07 1053.3 1581.26C1055.48 1582.43 1057.17 1584.22 1058.38 1586.62C1059.59 1589 1060.2 1592.02 1060.2 1595.67V1622.92H1053.61V1596.11C1053.61 1592.75 1052.73 1590.12 1050.98 1588.24C1049.23 1586.34 1046.83 1585.39 1043.78 1585.39C1041.68 1585.39 1039.8 1585.85 1038.14 1586.76C1036.5 1587.67 1035.21 1589 1034.26 1590.75C1033.31 1592.5 1032.84 1594.63 1032.84 1597.12Z" fill="black"/>
<path d="M1041 27C1080.21 27 1112 58.7878 1112 98V1251.7C1112 1284.84 1085.14 1311.71 1052 1311.71H811.922C778.785 1311.71 751.922 1338.57 751.922 1371.71V1628C751.922 1661.14 725.059 1688 691.922 1688H98C58.7878 1688 27 1656.21 27 1617V98C27 58.7878 58.7878 27 98 27H1041Z" fill="black"/>
<path d="M485.273 765.344L479.494 766.979C479.13 766.016 478.594 765.08 477.885 764.172C477.195 763.245 476.25 762.481 475.05 761.882C473.851 761.282 472.315 760.982 470.443 760.982C467.88 760.982 465.745 761.573 464.036 762.754C462.346 763.917 461.501 765.398 461.501 767.198C461.501 768.797 462.083 770.06 463.246 770.987C464.409 771.914 466.226 772.686 468.698 773.304L474.914 774.831C478.658 775.74 481.448 777.13 483.283 779.002C485.119 780.856 486.037 783.246 486.037 786.172C486.037 788.571 485.346 790.715 483.965 792.606C482.602 794.496 480.693 795.986 478.24 797.077C475.786 798.167 472.933 798.712 469.68 798.712C465.409 798.712 461.874 797.785 459.075 795.932C456.276 794.078 454.504 791.37 453.759 787.808L459.865 786.281C460.447 788.534 461.547 790.225 463.164 791.352C464.8 792.478 466.935 793.042 469.571 793.042C472.569 793.042 474.95 792.406 476.713 791.133C478.494 789.843 479.385 788.298 479.385 786.499C479.385 785.045 478.876 783.827 477.858 782.846C476.84 781.846 475.277 781.101 473.169 780.61L466.19 778.975C462.355 778.066 459.538 776.657 457.739 774.749C455.958 772.823 455.067 770.414 455.067 767.525C455.067 765.162 455.731 763.072 457.057 761.255C458.402 759.437 460.229 758.01 462.537 756.974C464.863 755.938 467.499 755.42 470.443 755.42C474.587 755.42 477.84 756.329 480.203 758.147C482.584 759.964 484.274 762.363 485.273 765.344ZM512.733 798.712C508.807 798.712 505.427 797.785 502.591 795.932C499.756 794.078 497.575 791.524 496.049 788.271C494.522 785.018 493.759 781.301 493.759 777.121C493.759 772.868 494.54 769.115 496.103 765.862C497.684 762.59 499.883 760.037 502.701 758.201C505.536 756.347 508.844 755.42 512.624 755.42C515.568 755.42 518.222 755.966 520.584 757.056C522.947 758.147 524.883 759.673 526.391 761.636C527.9 763.599 528.835 765.889 529.199 768.506H522.765C522.274 766.598 521.184 764.908 519.494 763.435C517.822 761.945 515.568 761.2 512.733 761.2C510.225 761.2 508.026 761.854 506.135 763.163C504.264 764.453 502.8 766.28 501.746 768.642C500.71 770.987 500.192 773.74 500.192 776.903C500.192 780.138 500.701 782.955 501.719 785.354C502.755 787.753 504.209 789.616 506.081 790.943C507.971 792.269 510.188 792.933 512.733 792.933C514.405 792.933 515.922 792.642 517.286 792.06C518.649 791.479 519.803 790.643 520.748 789.552C521.693 788.462 522.365 787.153 522.765 785.627H529.199C528.835 788.098 527.936 790.325 526.5 792.306C525.082 794.269 523.201 795.832 520.857 796.995C518.531 798.14 515.823 798.712 512.733 798.712ZM538.604 797.84V755.966H544.82V762.29H545.256C546.02 760.219 547.401 758.537 549.4 757.247C551.399 755.957 553.653 755.311 556.161 755.311C556.633 755.311 557.224 755.321 557.933 755.339C558.642 755.357 559.178 755.384 559.541 755.42V761.963C559.323 761.909 558.823 761.827 558.042 761.718C557.279 761.591 556.47 761.527 555.616 761.527C553.58 761.527 551.763 761.954 550.163 762.808C548.582 763.644 547.328 764.808 546.401 766.298C545.492 767.77 545.038 769.451 545.038 771.341V797.84H538.604ZM583.45 798.712C579.415 798.712 575.935 797.822 573.009 796.041C570.101 794.241 567.856 791.733 566.275 788.516C564.712 785.281 563.931 781.519 563.931 777.23C563.931 772.941 564.712 769.16 566.275 765.889C567.856 762.599 570.055 760.037 572.872 758.201C575.708 756.347 579.015 755.42 582.796 755.42C584.977 755.42 587.13 755.784 589.257 756.511C591.383 757.238 593.319 758.419 595.063 760.055C596.808 761.673 598.199 763.817 599.235 766.489C600.27 769.16 600.788 772.45 600.788 776.358V779.084H568.51V773.522H594.246C594.246 771.16 593.773 769.051 592.828 767.198C591.901 765.344 590.574 763.881 588.848 762.808C587.139 761.736 585.122 761.2 582.796 761.2C580.233 761.2 578.016 761.836 576.144 763.108C574.29 764.362 572.863 765.998 571.864 768.015C570.864 770.033 570.364 772.196 570.364 774.504V778.211C570.364 781.374 570.91 784.054 572 786.254C573.109 788.435 574.644 790.097 576.607 791.242C578.57 792.369 580.851 792.933 583.45 792.933C585.14 792.933 586.667 792.696 588.03 792.224C589.411 791.733 590.602 791.006 591.601 790.043C592.601 789.062 593.373 787.844 593.918 786.39L600.134 788.135C599.48 790.243 598.38 792.097 596.836 793.696C595.291 795.277 593.382 796.513 591.111 797.404C588.839 798.276 586.285 798.712 583.45 798.712ZM628.132 798.712C624.097 798.712 620.617 797.822 617.691 796.041C614.783 794.241 612.538 791.733 610.957 788.516C609.394 785.281 608.613 781.519 608.613 777.23C608.613 772.941 609.394 769.16 610.957 765.889C612.538 762.599 614.737 760.037 617.554 758.201C620.39 756.347 623.697 755.42 627.478 755.42C629.659 755.42 631.812 755.784 633.939 756.511C636.065 757.238 638.001 758.419 639.746 760.055C641.49 761.673 642.881 763.817 643.917 766.489C644.953 769.16 645.471 772.45 645.471 776.358V779.084H613.193V773.522H638.928C638.928 771.16 638.455 769.051 637.51 767.198C636.583 765.344 635.256 763.881 633.53 762.808C631.821 761.736 629.804 761.2 627.478 761.2C624.915 761.2 622.698 761.836 620.826 763.108C618.972 764.362 617.545 765.998 616.546 768.015C615.546 770.033 615.046 772.196 615.046 774.504V778.211C615.046 781.374 615.592 784.054 616.682 786.254C617.791 788.435 619.326 790.097 621.289 791.242C623.252 792.369 625.533 792.933 628.132 792.933C629.822 792.933 631.349 792.696 632.712 792.224C634.093 791.733 635.284 791.006 636.283 790.043C637.283 789.062 638.055 787.844 638.601 786.39L644.816 788.135C644.162 790.243 643.062 792.097 641.518 793.696C639.973 795.277 638.064 796.513 635.793 797.404C633.521 798.276 630.967 798.712 628.132 798.712ZM661.691 772.65V797.84H655.258V755.966H661.473V762.509H662.018C663 760.382 664.49 758.674 666.489 757.383C668.489 756.075 671.069 755.42 674.232 755.42C677.067 755.42 679.548 756.002 681.674 757.165C683.801 758.31 685.455 760.055 686.636 762.4C687.817 764.726 688.408 767.67 688.408 771.232V797.84H681.974V771.669C681.974 768.379 681.12 765.816 679.411 763.981C677.703 762.127 675.359 761.2 672.378 761.2C670.324 761.2 668.489 761.645 666.871 762.536C665.272 763.426 664.009 764.726 663.082 766.434C662.155 768.143 661.691 770.215 661.691 772.65Z" fill="white"/>
<rect x="834.539" y="1745" width="221.245" height="478.012" rx="31.4615" fill="#D9D9D9"/>
<line opacity="0.3" x1="855.836" y1="1769.86" x2="1033.44" y2="1769.86" stroke="black" stroke-width="3.04466"/>
<line opacity="0.3" x1="855.836" y1="1817.57" x2="1033.44" y2="1817.57" stroke="black" stroke-width="3.04466"/>
<line opacity="0.3" x1="855.836" y1="1865.26" x2="1033.44" y2="1865.26" stroke="black" stroke-width="3.04466"/>
<line opacity="0.3" x1="855.836" y1="1912.96" x2="1033.44" y2="1912.96" stroke="black" stroke-width="3.04466"/>
<line opacity="0.3" x1="855.836" y1="2008.36" x2="1033.44" y2="2008.36" stroke="black" stroke-width="3.04466"/>
<line opacity="0.3" x1="855.836" y1="2056.06" x2="1033.44" y2="2056.06" stroke="black" stroke-width="3.04466"/>
<line opacity="0.3" x1="855.836" y1="2103.76" x2="1033.44" y2="2103.76" stroke="black" stroke-width="3.04466"/>
<line opacity="0.3" x1="855.836" y1="2151.46" x2="1033.44" y2="2151.46" stroke="black" stroke-width="3.04466"/>
<line opacity="0.3" x1="855.836" y1="2199.16" x2="1033.44" y2="2199.16" stroke="black" stroke-width="3.04466"/>
<line opacity="0.3" x1="855.836" y1="1960.66" x2="1033.44" y2="1960.66" stroke="black" stroke-width="3.04466"/>
<path d="M879.5 1992.81V1950.91H884.574V1971.7H885.065L903.888 1950.91H910.517L892.922 1969.82L910.517 1992.81H904.379L889.812 1973.34L884.574 1979.23V1992.81H879.5ZM921.259 1973.91V1992.81H916.43V1961.39H921.095V1966.3H921.504C922.241 1964.7 923.359 1963.42 924.86 1962.45C926.36 1961.47 928.297 1960.98 930.67 1960.98C932.798 1960.98 934.66 1961.42 936.256 1962.29C937.852 1963.15 939.093 1964.46 939.979 1966.22C940.866 1967.96 941.309 1970.17 941.309 1972.85V1992.81H936.481V1973.17C936.481 1970.7 935.84 1968.78 934.558 1967.4C933.275 1966.01 931.516 1965.32 929.279 1965.32C927.738 1965.32 926.36 1965.65 925.146 1966.32C923.946 1966.99 922.998 1967.96 922.302 1969.24C921.606 1970.53 921.259 1972.08 921.259 1973.91ZM962.9 1993.47C960.063 1993.47 957.573 1992.79 955.432 1991.44C953.304 1990.09 951.64 1988.2 950.44 1985.78C949.253 1983.35 948.66 1980.51 948.66 1977.26C948.66 1973.99 949.253 1971.13 950.44 1968.69C951.64 1966.25 953.304 1964.35 955.432 1963C957.573 1961.65 960.063 1960.98 962.9 1960.98C965.737 1960.98 968.219 1961.65 970.347 1963C972.489 1964.35 974.153 1966.25 975.339 1968.69C976.54 1971.13 977.14 1973.99 977.14 1977.26C977.14 1980.51 976.54 1983.35 975.339 1985.78C974.153 1988.2 972.489 1990.09 970.347 1991.44C968.219 1992.79 965.737 1993.47 962.9 1993.47ZM962.9 1989.13C965.055 1989.13 966.828 1988.58 968.219 1987.47C969.611 1986.37 970.64 1984.92 971.309 1983.12C971.977 1981.32 972.311 1979.37 972.311 1977.26C972.311 1975.16 971.977 1973.21 971.309 1971.39C970.64 1969.58 969.611 1968.11 968.219 1966.99C966.828 1965.88 965.055 1965.32 962.9 1965.32C960.745 1965.32 958.971 1965.88 957.58 1966.99C956.189 1968.11 955.159 1969.58 954.491 1971.39C953.822 1973.21 953.488 1975.16 953.488 1977.26C953.488 1979.37 953.822 1981.32 954.491 1983.12C955.159 1984.92 956.189 1986.37 957.58 1987.47C958.971 1988.58 960.745 1989.13 962.9 1989.13ZM985.165 1992.81V1950.91H989.994V1966.38H990.403C990.758 1965.83 991.249 1965.14 991.876 1964.29C992.517 1963.43 993.431 1962.67 994.618 1962C995.818 1961.32 997.441 1960.98 999.487 1960.98C1002.13 1960.98 1004.47 1961.64 1006.48 1962.96C1008.5 1964.29 1010.08 1966.16 1011.21 1968.59C1012.34 1971.02 1012.91 1973.88 1012.91 1977.18C1012.91 1980.51 1012.34 1983.4 1011.21 1985.84C1010.08 1988.27 1008.51 1990.15 1006.5 1991.48C1004.5 1992.81 1002.19 1993.47 999.569 1993.47C997.55 1993.47 995.934 1993.13 994.72 1992.47C993.506 1991.78 992.572 1991.01 991.917 1990.15C991.262 1989.28 990.758 1988.56 990.403 1987.99H989.83V1992.81H985.165ZM989.912 1977.1C989.912 1979.47 990.26 1981.57 990.955 1983.38C991.651 1985.18 992.667 1986.59 994.004 1987.62C995.341 1988.63 996.977 1989.13 998.914 1989.13C1000.93 1989.13 1002.62 1988.6 1003.97 1987.54C1005.33 1986.46 1006.35 1985.01 1007.04 1983.2C1007.73 1981.37 1008.08 1979.34 1008.08 1977.1C1008.08 1974.89 1007.74 1972.9 1007.06 1971.13C1006.39 1969.34 1005.37 1967.93 1004.01 1966.89C1002.66 1965.84 1000.96 1965.32 998.914 1965.32C996.95 1965.32 995.3 1965.81 993.963 1966.81C992.626 1967.79 991.617 1969.17 990.935 1970.94C990.253 1972.7 989.912 1974.76 989.912 1977.1Z" fill="black"/>
<path d="M97.4719 2209.82H101.256L110.154 2231.55H110.461L119.358 2209.82H123.142V2236H120.176V2216.11H119.921L111.739 2236H108.875L100.694 2216.11H100.438V2236H97.4719V2209.82ZM134.803 2236.41C132.911 2236.41 131.279 2235.99 129.907 2235.16C128.543 2234.31 127.491 2233.14 126.749 2231.63C126.016 2230.11 125.65 2228.35 125.65 2226.34C125.65 2224.32 126.016 2222.55 126.749 2221.02C127.491 2219.47 128.522 2218.27 129.843 2217.41C131.172 2216.54 132.724 2216.11 134.496 2216.11C135.519 2216.11 136.529 2216.28 137.526 2216.62C138.523 2216.96 139.431 2217.51 140.249 2218.28C141.067 2219.04 141.719 2220.05 142.205 2221.3C142.691 2222.55 142.934 2224.09 142.934 2225.93V2227.2H127.797V2224.6H139.866C139.866 2223.49 139.644 2222.5 139.201 2221.63C138.766 2220.76 138.144 2220.08 137.334 2219.57C136.533 2219.07 135.587 2218.82 134.496 2218.82C133.295 2218.82 132.255 2219.12 131.377 2219.71C130.508 2220.3 129.839 2221.07 129.37 2222.01C128.901 2222.96 128.667 2223.97 128.667 2225.06V2226.8C128.667 2228.28 128.922 2229.54 129.434 2230.57C129.954 2231.59 130.674 2232.37 131.594 2232.91C132.515 2233.43 133.584 2233.7 134.803 2233.7C135.596 2233.7 136.312 2233.59 136.951 2233.37C137.599 2233.14 138.157 2232.8 138.626 2232.34C139.094 2231.88 139.457 2231.31 139.712 2230.63L142.627 2231.45C142.32 2232.44 141.805 2233.31 141.08 2234.06C140.356 2234.8 139.461 2235.38 138.395 2235.8C137.33 2236.2 136.133 2236.41 134.803 2236.41ZM148.02 2224.19V2236H145.003V2216.36H147.918V2219.43H148.174C148.634 2218.43 149.333 2217.63 150.27 2217.03C151.208 2216.41 152.418 2216.11 153.901 2216.11C155.231 2216.11 156.394 2216.38 157.391 2216.93C158.388 2217.46 159.164 2218.28 159.718 2219.38C160.272 2220.47 160.549 2221.85 160.549 2223.52V2236H157.532V2223.73C157.532 2222.18 157.131 2220.98 156.33 2220.12C155.529 2219.25 154.429 2218.82 153.032 2218.82C152.069 2218.82 151.208 2219.03 150.449 2219.44C149.699 2219.86 149.107 2220.47 148.672 2221.27C148.238 2222.07 148.02 2223.05 148.02 2224.19ZM175.917 2227.97V2216.36H178.934V2236H175.917V2232.68H175.712C175.252 2233.67 174.536 2234.52 173.565 2235.22C172.593 2235.91 171.366 2236.26 169.883 2236.26C168.656 2236.26 167.565 2235.99 166.61 2235.45C165.656 2234.9 164.906 2234.09 164.36 2233C163.815 2231.9 163.542 2230.51 163.542 2228.84V2216.36H166.559V2228.64C166.559 2230.07 166.96 2231.21 167.761 2232.06C168.57 2232.91 169.602 2233.34 170.854 2233.34C171.604 2233.34 172.367 2233.15 173.143 2232.77C173.927 2232.38 174.583 2231.79 175.112 2231C175.648 2230.21 175.917 2229.2 175.917 2227.97Z" fill="black"/>
<rect x="27" y="2131" width="222" height="70" rx="35" fill="#D9D9D9"/>
<path d="M359.563 2218C359.282 2217.14 358.911 2216.37 358.451 2215.69C357.999 2215 357.458 2214.41 356.827 2213.92C356.205 2213.44 355.498 2213.07 354.705 2212.81C353.913 2212.55 353.043 2212.43 352.097 2212.43C350.546 2212.43 349.136 2212.83 347.866 2213.63C346.596 2214.43 345.586 2215.61 344.836 2217.17C344.086 2218.73 343.711 2220.64 343.711 2222.91C343.711 2225.18 344.09 2227.09 344.849 2228.65C345.607 2230.21 346.634 2231.39 347.93 2232.19C349.225 2232.99 350.683 2233.39 352.302 2233.39C353.802 2233.39 355.123 2233.07 356.265 2232.43C357.416 2231.79 358.31 2230.87 358.95 2229.7C359.597 2228.51 359.921 2227.12 359.921 2225.52L360.893 2225.72H353.018V2222.91H362.989V2225.72C362.989 2227.88 362.529 2229.75 361.609 2231.35C360.697 2232.94 359.435 2234.18 357.825 2235.05C356.222 2235.92 354.381 2236.36 352.302 2236.36C349.984 2236.36 347.947 2235.81 346.191 2234.72C344.444 2233.63 343.08 2232.08 342.1 2230.07C341.129 2228.06 340.643 2225.67 340.643 2222.91C340.643 2220.84 340.92 2218.98 341.474 2217.32C342.036 2215.66 342.829 2214.25 343.852 2213.08C344.874 2211.91 346.085 2211.02 347.482 2210.39C348.88 2209.77 350.418 2209.46 352.097 2209.46C353.478 2209.46 354.765 2209.67 355.958 2210.09C357.16 2210.5 358.229 2211.08 359.167 2211.84C360.113 2212.59 360.901 2213.49 361.532 2214.54C362.163 2215.58 362.597 2216.73 362.836 2218H359.563ZM371.269 2236.46C370.024 2236.46 368.895 2236.23 367.881 2235.76C366.867 2235.28 366.061 2234.59 365.465 2233.7C364.868 2232.8 364.57 2231.7 364.57 2230.43C364.57 2229.3 364.791 2228.39 365.235 2227.69C365.678 2226.98 366.27 2226.43 367.012 2226.03C367.753 2225.63 368.571 2225.33 369.466 2225.13C370.37 2224.93 371.277 2224.77 372.189 2224.65C373.382 2224.49 374.35 2224.38 375.091 2224.3C375.841 2224.22 376.387 2224.08 376.728 2223.88C377.077 2223.68 377.252 2223.34 377.252 2222.86V2222.76C377.252 2221.49 376.907 2220.51 376.216 2219.82C375.534 2219.12 374.499 2218.77 373.11 2218.77C371.669 2218.77 370.54 2219.08 369.722 2219.71C368.904 2220.34 368.328 2221.02 367.996 2221.73L365.132 2220.71C365.644 2219.52 366.326 2218.59 367.178 2217.92C368.039 2217.25 368.976 2216.78 369.99 2216.52C371.013 2216.24 372.019 2216.11 373.007 2216.11C373.638 2216.11 374.363 2216.18 375.181 2216.34C376.007 2216.48 376.804 2216.79 377.571 2217.25C378.347 2217.71 378.99 2218.4 379.502 2219.33C380.013 2220.26 380.269 2221.5 380.269 2223.06V2236H377.252V2233.34H377.098C376.894 2233.77 376.553 2234.22 376.076 2234.71C375.598 2235.19 374.963 2235.61 374.171 2235.95C373.378 2236.29 372.411 2236.46 371.269 2236.46ZM371.729 2233.75C372.922 2233.75 373.928 2233.52 374.746 2233.05C375.573 2232.58 376.195 2231.97 376.613 2231.23C377.039 2230.49 377.252 2229.71 377.252 2228.89V2226.13C377.124 2226.28 376.843 2226.42 376.408 2226.55C375.982 2226.67 375.488 2226.78 374.925 2226.87C374.371 2226.96 373.83 2227.03 373.301 2227.1C372.782 2227.16 372.36 2227.21 372.036 2227.26C371.252 2227.36 370.519 2227.52 369.837 2227.75C369.164 2227.98 368.618 2228.31 368.201 2228.76C367.791 2229.21 367.587 2229.81 367.587 2230.58C367.587 2231.63 367.975 2232.42 368.75 2232.96C369.534 2233.49 370.527 2233.75 371.729 2233.75ZM383.256 2236V2216.36H386.17V2219.43H386.426C386.835 2218.38 387.496 2217.57 388.407 2216.99C389.319 2216.4 390.415 2216.11 391.693 2216.11C392.988 2216.11 394.067 2216.4 394.927 2216.99C395.797 2217.57 396.474 2218.38 396.96 2219.43H397.165C397.667 2218.42 398.422 2217.61 399.427 2217.02C400.433 2216.41 401.639 2216.11 403.045 2216.11C404.801 2216.11 406.237 2216.66 407.354 2217.76C408.47 2218.85 409.028 2220.55 409.028 2222.86V2236H406.011V2222.86C406.011 2221.41 405.615 2220.37 404.822 2219.75C404.03 2219.13 403.096 2218.82 402.023 2218.82C400.642 2218.82 399.572 2219.24 398.814 2220.07C398.055 2220.9 397.676 2221.95 397.676 2223.22V2236H394.608V2222.55C394.608 2221.43 394.246 2220.54 393.521 2219.85C392.797 2219.16 391.863 2218.82 390.721 2218.82C389.937 2218.82 389.204 2219.03 388.523 2219.44C387.849 2219.86 387.304 2220.44 386.886 2221.18C386.477 2221.92 386.273 2222.76 386.273 2223.73V2236H383.256ZM420.258 2236.41C418.365 2236.41 416.733 2235.99 415.361 2235.16C413.998 2234.31 412.945 2233.14 412.204 2231.63C411.471 2230.11 411.104 2228.35 411.104 2226.34C411.104 2224.32 411.471 2222.55 412.204 2221.02C412.945 2219.47 413.976 2218.27 415.297 2217.41C416.627 2216.54 418.178 2216.11 419.951 2216.11C420.973 2216.11 421.983 2216.28 422.981 2216.62C423.978 2216.96 424.885 2217.51 425.704 2218.28C426.522 2219.04 427.174 2220.05 427.66 2221.3C428.145 2222.55 428.388 2224.09 428.388 2225.93V2227.2H413.252V2224.6H425.32C425.32 2223.49 425.098 2222.5 424.655 2221.63C424.221 2220.76 423.598 2220.08 422.789 2219.57C421.988 2219.07 421.042 2218.82 419.951 2218.82C418.749 2218.82 417.709 2219.12 416.831 2219.71C415.962 2220.3 415.293 2221.07 414.824 2222.01C414.356 2222.96 414.121 2223.97 414.121 2225.06V2226.8C414.121 2228.28 414.377 2229.54 414.888 2230.57C415.408 2231.59 416.128 2232.37 417.049 2232.91C417.969 2233.43 419.039 2233.7 420.258 2233.7C421.05 2233.7 421.766 2233.59 422.405 2233.37C423.053 2233.14 423.611 2232.8 424.08 2232.34C424.549 2231.88 424.911 2231.31 425.167 2230.63L428.081 2231.45C427.775 2232.44 427.259 2233.31 426.535 2234.06C425.81 2234.8 424.915 2235.38 423.85 2235.8C422.785 2236.2 421.587 2236.41 420.258 2236.41ZM444.367 2220.76L441.657 2221.53C441.486 2221.08 441.235 2220.64 440.902 2220.21C440.578 2219.78 440.135 2219.42 439.573 2219.14C439.01 2218.86 438.29 2218.72 437.412 2218.72C436.211 2218.72 435.209 2218.99 434.408 2219.55C433.615 2220.09 433.219 2220.79 433.219 2221.63C433.219 2222.38 433.492 2222.97 434.037 2223.41C434.583 2223.84 435.435 2224.2 436.594 2224.49L439.509 2225.21C441.265 2225.64 442.573 2226.29 443.434 2227.17C444.294 2228.04 444.725 2229.16 444.725 2230.53C444.725 2231.65 444.401 2232.66 443.753 2233.55C443.114 2234.43 442.219 2235.13 441.068 2235.64C439.918 2236.15 438.58 2236.41 437.054 2236.41C435.051 2236.41 433.394 2235.97 432.081 2235.11C430.769 2234.24 429.938 2232.97 429.588 2231.3L432.452 2230.58C432.725 2231.64 433.24 2232.43 433.999 2232.96C434.766 2233.49 435.767 2233.75 437.003 2233.75C438.409 2233.75 439.526 2233.45 440.353 2232.86C441.188 2232.25 441.605 2231.53 441.605 2230.68C441.605 2230 441.367 2229.43 440.89 2228.97C440.412 2228.5 439.679 2228.15 438.691 2227.92L435.418 2227.15C433.62 2226.73 432.299 2226.07 431.455 2225.17C430.62 2224.27 430.202 2223.14 430.202 2221.78C430.202 2220.68 430.513 2219.7 431.135 2218.84C431.766 2217.99 432.622 2217.32 433.705 2216.84C434.796 2216.35 436.032 2216.11 437.412 2216.11C439.355 2216.11 440.881 2216.53 441.989 2217.39C443.105 2218.24 443.898 2219.36 444.367 2220.76Z" fill="black"/>
<rect x="282" y="2131" width="222" height="70" rx="35" fill="#D9D9D9"/>
</svg>
