<svg width="864" height="874" viewBox="0 0 864 874" fill="none" xmlns="http://www.w3.org/2000/svg">
<path d="M448.542 6.82812C499.869 -2.45249 549.735 -2.27309 598.137 7.36816C644.798 16.6697 688.524 37.1425 726.765 64.9229C734.449 70.5058 744.477 79.1327 756.848 90.8027C777.273 110.085 795.701 133.087 812.13 159.807C843.556 210.933 859.997 273.232 862.763 333.845C864.606 374.233 861.48 413.411 853.384 451.379C847.327 479.788 839.169 507.563 828.91 534.705C814.031 574.105 793.574 612.269 770.753 645.349C743.05 685.505 708.486 722.479 669.117 753.057C641.162 774.76 612.568 793.666 583.335 809.776C571.459 816.327 559.942 822.065 548.786 826.988C496.357 850.154 442.722 865.013 387.882 871.564C361.369 874.732 334.252 873.68 309.206 865.878C283.728 857.952 267.705 838.978 266.484 811.738C266.005 801.279 266.577 789.227 264.43 780.791C255.932 747.51 226.034 733.187 193.974 727.037C160.6 720.656 127.148 714.429 96.8184 699.735C72.5612 687.972 51.275 671.98 32.9609 651.761C8.16261 624.367 -3.95091 595.072 1.14746 558.67C3.74319 540.098 11.3709 523.523 24.0303 508.948C26.8218 505.734 32.4868 500.44 41.0254 493.065C46.7113 488.152 60.2877 476.764 81.7539 458.903C97.2046 446.033 109.551 430.428 118.466 411.995C121.216 406.289 124.517 396.06 128.369 381.31C137.815 345.042 148.558 306.903 160.6 266.896C169.267 238.112 181.892 208.214 197.651 183.987C216.563 154.924 240.99 125.582 266.376 101.881C309.927 61.2555 360.503 32.0125 418.104 14.1514C427.497 11.2364 437.644 8.79548 448.542 6.82812Z" fill="white"/>
<path d="M311.836 477.247C317.172 463.094 327.632 456.744 343.217 458.196C356.613 459.448 361.248 469.397 367.846 479.703C370.946 484.555 375.422 489.742 381.272 495.263C402.1 514.906 426.739 527.214 455.189 532.189C487.327 537.813 522.694 535.095 551.587 520.062C573.239 508.803 591.136 493.877 605.278 475.284C608.322 471.267 612.957 466.276 617.577 464.113C629.103 458.721 643.906 462.429 650.858 473.307C659.155 486.316 656.096 500.562 648.881 513.093C634.28 538.432 609.913 558.704 583.863 573.66C521.102 609.722 445.733 605.875 382.184 573.289C362.973 563.432 346.668 550.855 333.267 535.559C320.056 520.494 303.74 498.677 311.836 477.247ZM341.996 197.664C357.509 181.518 380.685 171.274 402.826 175.585C424.967 179.896 442.628 198.081 450.94 218.847C461.632 245.546 462.512 275.381 457.012 303.579C451.527 331.777 439.522 359.11 419.621 379.86C404.108 396.006 380.932 406.235 358.791 401.924C336.65 397.613 318.99 379.443 310.678 358.662C299.986 331.963 299.12 302.127 304.605 273.93C310.091 245.732 322.095 218.399 341.996 197.664ZM574.964 330.881C603.532 305.063 648.618 302.544 683.599 313.452C711.055 322.027 747.503 353.207 733.149 385.7C730.44 391.839 725.506 395.522 718.348 396.748C705.616 398.927 698.431 390.491 688.836 383.09C664.609 364.41 630.741 361.814 604.243 376.538C604.058 376.641 599.407 379.33 590.291 384.604C578.239 391.556 561.785 390.042 556.794 375.024C551.602 359.373 563.391 341.341 574.964 330.881Z" fill="#373737"/>
</svg>
