<svg width="1080" height="1080" viewBox="0 0 1080 1080" fill="none" xmlns="http://www.w3.org/2000/svg">
<rect width="1080" height="1080" fill="#FFC016"/>
<rect x="384.68" y="185.123" width="396.246" height="188.957" fill="white"/>
<path d="M725.367 140C760.155 140 777.55 140 790.541 147.409C799.315 152.414 806.585 159.684 811.59 168.458C819 181.449 819 198.843 819 233.632V660.301C819 695.089 819 712.484 811.59 725.475C806.585 734.249 799.316 741.519 790.541 746.523C777.55 753.933 760.156 753.934 725.367 753.934H673.492C639.488 753.934 622.485 753.934 609.714 761.024C600.496 766.142 592.897 773.741 587.779 782.959C581.132 794.932 580.716 810.624 580.69 840.558L580.687 852.917C580.661 882.851 580.245 898.542 573.598 910.516C568.48 919.734 560.881 927.332 551.663 932.45C538.892 939.541 521.889 939.541 487.885 939.541H355.633C320.845 939.541 303.45 939.541 290.459 932.132C281.685 927.127 274.415 919.857 269.41 911.083C262 898.092 262 880.698 262 845.909V233.632C262 198.843 262 181.449 269.41 168.458C274.415 159.684 281.685 152.414 290.459 147.409C303.45 140 320.845 140 355.633 140H725.367ZM494.671 210.506C488.122 210.506 484.847 210.506 482.101 210.894C464.677 213.353 450.984 227.046 448.524 244.47C448.137 247.216 448.137 250.491 448.137 257.04V285.242C448.137 291.791 448.137 295.066 448.524 297.812C450.984 315.236 464.677 328.929 482.101 331.389C484.847 331.776 488.122 331.776 494.671 331.776C501.22 331.776 504.495 331.776 507.241 331.389C524.665 328.929 538.358 315.236 540.817 297.812C541.205 295.066 541.205 291.791 541.205 285.242V257.04C541.205 250.491 541.205 247.216 540.817 244.47C538.357 227.046 524.665 213.353 507.241 210.894C504.495 210.506 501.22 210.506 494.671 210.506ZM701.96 210.506C695.411 210.506 692.136 210.506 689.39 210.894C671.966 213.353 658.273 227.046 655.813 244.47C655.426 247.216 655.426 250.491 655.426 257.04V285.242C655.426 291.791 655.426 295.066 655.813 297.812C658.273 315.236 671.966 328.929 689.39 331.389C692.136 331.776 695.411 331.776 701.96 331.776C708.509 331.776 711.783 331.776 714.529 331.389C731.953 328.929 745.647 315.236 748.106 297.812C748.494 295.066 748.494 291.791 748.494 285.242V257.04C748.494 250.491 748.494 247.216 748.106 244.47C745.647 227.046 731.953 213.353 714.529 210.894C711.783 210.506 708.509 210.506 701.96 210.506Z" fill="#373738"/>
</svg>
