<svg width="1577" height="897" viewBox="0 0 1577 897" fill="none" xmlns="http://www.w3.org/2000/svg"><g transform="translate(9,9)">
<g clip-path="url(#clip0_3737_1870)">
<rect width="1559" height="879" fill="#222222"/>
<path d="M121.893 0.347656C131.044 0.347656 135.62 0.347709 139.037 2.29693C141.345 3.61351 143.258 5.52576 144.574 7.83395C146.524 11.2513 146.524 15.8272 146.524 24.9786V137.217C146.524 146.369 146.524 150.945 144.574 154.362C143.258 156.67 141.345 158.582 139.037 159.899C135.62 161.848 131.044 161.848 121.893 161.848H108.247C99.3015 161.848 94.8289 161.848 91.4693 163.713C89.0444 165.06 87.0453 167.059 85.699 169.484C83.9503 172.633 83.8409 176.761 83.8341 184.635L83.8334 187.887C83.8265 195.761 83.7172 199.889 81.9685 203.038C80.6222 205.463 78.6231 207.462 76.1982 208.809C72.8386 210.674 68.366 210.674 59.4209 210.674H24.6309C15.4795 210.674 10.9036 210.674 7.48629 208.725C5.17811 207.408 3.26585 205.496 1.94928 203.188C5.30642e-05 199.77 0 195.194 0 186.043V24.9786C0 15.8272 5.30642e-05 11.2513 1.94928 7.83395C3.26585 5.52576 5.17811 3.61351 7.48629 2.29693C10.9036 0.347709 15.4795 0.347656 24.6309 0.347656H121.893ZM61.206 107.18C59.4832 107.18 58.6218 107.18 57.8994 107.282C53.316 107.929 49.7141 111.531 49.067 116.115C48.965 116.837 48.9648 117.698 48.9648 119.421V126.84C48.9648 128.563 48.965 129.424 49.067 130.147C49.7141 134.73 53.316 138.332 57.8994 138.979C58.6218 139.081 59.4832 139.081 61.206 139.081C62.9289 139.081 63.7903 139.081 64.5127 138.979C69.0961 138.332 72.698 134.73 73.3451 130.147C73.4471 129.424 73.4473 128.563 73.4473 126.84V119.421C73.4473 117.698 73.4471 116.837 73.3451 116.115C72.698 111.531 69.0961 107.929 64.5127 107.282C63.7903 107.18 62.9289 107.18 61.206 107.18ZM115.735 107.18C114.012 107.18 113.151 107.18 112.428 107.282C107.845 107.929 104.243 111.531 103.596 116.115C103.494 116.837 103.494 117.698 103.494 119.421V126.84C103.494 128.563 103.494 129.424 103.596 130.147C104.243 134.73 107.845 138.332 112.428 138.979C113.151 139.081 114.012 139.081 115.735 139.081C117.458 139.081 118.319 139.081 119.042 138.979C123.625 138.332 127.227 134.73 127.874 130.147C127.976 129.424 127.976 128.563 127.976 126.84V119.421C127.976 117.698 127.976 116.837 127.874 116.115C127.227 111.531 123.625 107.929 119.042 107.282C118.319 107.18 117.458 107.18 115.735 107.18Z" fill="#2D2D2D"/>
<path d="M1063 0.347656C1072.15 0.347656 1076.73 0.347709 1080.15 2.29693C1082.45 3.61351 1084.37 5.52576 1085.68 7.83395C1087.63 11.2513 1087.63 15.8272 1087.63 24.9786V137.217C1087.63 146.369 1087.63 150.945 1085.68 154.362C1084.37 156.67 1082.45 158.582 1080.15 159.899C1076.73 161.848 1072.15 161.848 1063 161.848H1049.36C1040.41 161.848 1035.94 161.848 1032.58 163.713C1030.15 165.06 1028.15 167.059 1026.81 169.484C1025.06 172.633 1024.95 176.761 1024.94 184.635L1024.94 187.887C1024.94 195.761 1024.83 199.889 1023.08 203.038C1021.73 205.463 1019.73 207.462 1017.31 208.809C1013.95 210.674 1009.48 210.674 1000.53 210.674H965.74C956.589 210.674 952.013 210.674 948.596 208.725C946.287 207.408 944.375 205.496 943.059 203.188C941.109 199.77 941.109 195.194 941.109 186.043V24.9786C941.109 15.8272 941.109 11.2513 943.059 7.83395C944.375 5.52576 946.287 3.61351 948.596 2.29693C952.013 0.347709 956.589 0.347656 965.74 0.347656H1063ZM1002.32 107.18C1000.59 107.18 999.731 107.18 999.009 107.282C994.425 107.929 990.823 111.531 990.176 116.115C990.074 116.837 990.074 117.698 990.074 119.421V126.84C990.074 128.563 990.074 129.424 990.176 130.147C990.823 134.73 994.425 138.332 999.009 138.979C999.731 139.081 1000.59 139.081 1002.32 139.081C1004.04 139.081 1004.9 139.081 1005.62 138.979C1010.21 138.332 1013.81 134.73 1014.45 130.147C1014.56 129.424 1014.56 128.563 1014.56 126.84V119.421C1014.56 117.698 1014.56 116.837 1014.45 116.115C1013.81 111.531 1010.21 107.929 1005.62 107.282C1004.9 107.18 1004.04 107.18 1002.32 107.18ZM1056.84 107.18C1055.12 107.18 1054.26 107.18 1053.54 107.282C1048.95 107.929 1045.35 111.531 1044.71 116.115C1044.6 116.837 1044.6 117.698 1044.6 119.421V126.84C1044.6 128.563 1044.6 129.424 1044.71 130.147C1045.35 134.73 1048.95 138.332 1053.54 138.979C1054.26 139.081 1055.12 139.081 1056.84 139.081C1058.57 139.081 1059.43 139.081 1060.15 138.979C1064.73 138.332 1068.34 134.73 1068.98 130.147C1069.09 129.424 1069.09 128.563 1069.09 126.84V119.421C1069.09 117.698 1069.09 116.837 1068.98 116.115C1068.34 111.531 1064.73 107.929 1060.15 107.282C1059.43 107.18 1058.57 107.18 1056.84 107.18Z" fill="#2D2D2D"/>
<path d="M749.299 0.347656C758.45 0.347656 763.026 0.347709 766.444 2.29693C768.752 3.61351 770.664 5.52576 771.981 7.83395C773.93 11.2513 773.93 15.8272 773.93 24.9786V137.217C773.93 146.369 773.93 150.945 771.981 154.362C770.664 156.67 768.752 158.582 766.444 159.899C763.026 161.848 758.45 161.848 749.299 161.848H735.653C726.708 161.848 722.235 161.848 718.876 163.713C716.451 165.06 714.452 167.059 713.105 169.484C711.357 172.633 711.247 176.761 711.24 184.635L711.24 187.887C711.233 195.761 711.123 199.889 709.375 203.038C708.028 205.463 706.029 207.462 703.604 208.809C700.245 210.674 695.772 210.674 686.827 210.674H652.037C642.886 210.674 638.31 210.674 634.893 208.725C632.584 207.408 630.672 205.496 629.356 203.188C627.406 199.77 627.406 195.194 627.406 186.043V24.9786C627.406 15.8272 627.406 11.2513 629.356 7.83395C630.672 5.52576 632.584 3.61351 634.893 2.29693C638.31 0.347709 642.886 0.347656 652.037 0.347656H749.299ZM688.612 107.18C686.889 107.18 686.028 107.18 685.306 107.282C680.722 107.929 677.12 111.531 676.473 116.115C676.371 116.837 676.371 117.698 676.371 119.421V126.84C676.371 128.563 676.371 129.424 676.473 130.147C677.12 134.73 680.722 138.332 685.306 138.979C686.028 139.081 686.889 139.081 688.612 139.081C690.335 139.081 691.197 139.081 691.919 138.979C696.502 138.332 700.104 134.73 700.751 130.147C700.853 129.424 700.854 128.563 700.854 126.84V119.421C700.854 117.698 700.853 116.837 700.751 116.115C700.104 111.531 696.502 107.929 691.919 107.282C691.197 107.18 690.335 107.18 688.612 107.18ZM743.141 107.18C741.418 107.18 740.557 107.18 739.835 107.282C735.251 107.929 731.649 111.531 731.002 116.115C730.9 116.837 730.9 117.698 730.9 119.421V126.84C730.9 128.563 730.9 129.424 731.002 130.147C731.649 134.73 735.251 138.332 739.835 138.979C740.557 139.081 741.418 139.081 743.141 139.081C744.864 139.081 745.726 139.081 746.448 138.979C751.031 138.332 754.633 134.73 755.28 130.147C755.382 129.424 755.383 128.563 755.383 126.84V119.421C755.383 117.698 755.382 116.837 755.28 116.115C754.633 111.531 751.031 107.929 746.448 107.282C745.726 107.18 744.864 107.18 743.141 107.18Z" fill="#2D2D2D"/>
<path d="M435.596 0.347656C444.747 0.347656 449.323 0.347709 452.74 2.29693C455.049 3.61351 456.961 5.52576 458.277 7.83395C460.227 11.2513 460.227 15.8272 460.227 24.9786V137.217C460.227 146.369 460.227 150.945 458.277 154.362C456.961 156.67 455.049 158.582 452.74 159.899C449.323 161.848 444.747 161.848 435.596 161.848H421.95C413.005 161.848 408.532 161.848 405.172 163.713C402.748 165.06 400.748 167.059 399.402 169.484C397.653 172.633 397.544 176.761 397.537 184.635L397.537 187.887C397.53 195.761 397.42 199.889 395.672 203.038C394.325 205.463 392.326 207.462 389.901 208.809C386.542 210.674 382.069 210.674 373.124 210.674H338.334C329.183 210.674 324.607 210.674 321.189 208.725C318.881 207.408 316.969 205.496 315.652 203.188C313.703 199.77 313.703 195.194 313.703 186.043V24.9786C313.703 15.8272 313.703 11.2513 315.652 7.83395C316.969 5.52576 318.881 3.61351 321.189 2.29693C324.607 0.347709 329.183 0.347656 338.334 0.347656H435.596ZM374.909 107.18C373.186 107.18 372.325 107.18 371.603 107.282C367.019 107.929 363.417 111.531 362.77 116.115C362.668 116.837 362.668 117.698 362.668 119.421V126.84C362.668 128.563 362.668 129.424 362.77 130.147C363.417 134.73 367.019 138.332 371.603 138.979C372.325 139.081 373.186 139.081 374.909 139.081C376.632 139.081 377.493 139.081 378.216 138.979C382.799 138.332 386.401 134.73 387.048 130.147C387.15 129.424 387.15 128.563 387.15 126.84V119.421C387.15 117.698 387.15 116.837 387.048 116.115C386.401 111.531 382.799 107.929 378.216 107.282C377.493 107.18 376.632 107.18 374.909 107.18ZM429.438 107.18C427.715 107.18 426.854 107.18 426.132 107.282C421.548 107.929 417.946 111.531 417.299 116.115C417.197 116.837 417.197 117.698 417.197 119.421V126.84C417.197 128.563 417.197 129.424 417.299 130.147C417.946 134.73 421.548 138.332 426.132 138.979C426.854 139.081 427.715 139.081 429.438 139.081C431.161 139.081 432.022 139.081 432.745 138.979C437.328 138.332 440.93 134.73 441.577 130.147C441.679 129.424 441.679 128.563 441.679 126.84V119.421C441.679 117.698 441.679 116.837 441.577 116.115C440.93 111.531 437.328 107.929 432.745 107.282C432.022 107.18 431.161 107.18 429.438 107.18Z" fill="#2D2D2D"/>
<path d="M1376.71 0.347656C1385.86 0.347656 1390.43 0.347709 1393.85 2.29693C1396.16 3.61351 1398.07 5.52576 1399.39 7.83395C1401.34 11.2513 1401.34 15.8272 1401.34 24.9786V137.217C1401.34 146.369 1401.34 150.945 1399.39 154.362C1398.07 156.67 1396.16 158.582 1393.85 159.899C1390.43 161.848 1385.86 161.848 1376.71 161.848H1363.06C1354.11 161.848 1349.64 161.848 1346.28 163.713C1343.86 165.06 1341.86 167.059 1340.51 169.484C1338.76 172.633 1338.65 176.761 1338.65 184.635L1338.65 187.887C1338.64 195.761 1338.53 199.889 1336.78 203.038C1335.43 205.463 1333.44 207.462 1331.01 208.809C1327.65 210.674 1323.18 210.674 1314.23 210.674H1279.44C1270.29 210.674 1265.72 210.674 1262.3 208.725C1259.99 207.408 1258.08 205.496 1256.76 203.188C1254.81 199.77 1254.81 195.194 1254.81 186.043V24.9786C1254.81 15.8272 1254.81 11.2513 1256.76 7.83395C1258.08 5.52576 1259.99 3.61351 1262.3 2.29693C1265.72 0.347709 1270.29 0.347656 1279.44 0.347656H1376.71ZM1316.02 107.18C1314.3 107.18 1313.43 107.18 1312.71 107.282C1308.13 107.929 1304.53 111.531 1303.88 116.115C1303.78 116.837 1303.78 117.698 1303.78 119.421V126.84C1303.78 128.563 1303.78 129.424 1303.88 130.147C1304.53 134.73 1308.13 138.332 1312.71 138.979C1313.43 139.081 1314.3 139.081 1316.02 139.081C1317.74 139.081 1318.6 139.081 1319.33 138.979C1323.91 138.332 1327.51 134.73 1328.16 130.147C1328.26 129.424 1328.26 128.563 1328.26 126.84V119.421C1328.26 117.698 1328.26 116.837 1328.16 116.115C1327.51 111.531 1323.91 107.929 1319.33 107.282C1318.6 107.18 1317.74 107.18 1316.02 107.18ZM1370.55 107.18C1368.82 107.18 1367.96 107.18 1367.24 107.282C1362.66 107.929 1359.06 111.531 1358.41 116.115C1358.31 116.837 1358.31 117.698 1358.31 119.421V126.84C1358.31 128.563 1358.31 129.424 1358.41 130.147C1359.06 134.73 1362.66 138.332 1367.24 138.979C1367.96 139.081 1368.82 139.081 1370.55 139.081C1372.27 139.081 1373.13 139.081 1373.85 138.979C1378.44 138.332 1382.04 134.73 1382.69 130.147C1382.79 129.424 1382.79 128.563 1382.79 126.84V119.421C1382.79 117.698 1382.79 116.837 1382.69 116.115C1382.04 111.531 1378.44 107.929 1373.85 107.282C1373.13 107.18 1372.27 107.18 1370.55 107.18Z" fill="#2D2D2D"/>
<path d="M181.482 210.324C172.331 210.324 167.755 210.324 164.338 208.375C162.03 207.058 160.117 205.146 158.801 202.838C156.851 199.421 156.851 194.845 156.851 185.693V73.4547C156.851 64.3032 156.851 59.7274 158.801 56.31C160.117 54.0018 162.03 52.0896 164.338 50.773C167.755 48.8238 172.331 48.8237 181.482 48.8237H195.128C204.073 48.8237 208.546 48.8237 211.906 46.9585C214.331 45.6122 216.33 43.6131 217.676 41.1882C219.425 38.0385 219.534 33.9107 219.541 26.0366L219.542 22.7851C219.548 14.911 219.658 10.7832 221.406 7.63352C222.753 5.20863 224.752 3.20951 227.177 1.86321C230.536 -0.00202262 235.009 -0.00202245 243.954 -0.00202245H278.744C287.895 -0.00202245 292.471 -0.00196938 295.889 1.94725C298.197 3.26383 300.109 5.17608 301.426 7.48427C303.375 10.9016 303.375 15.4775 303.375 24.6289V185.693C303.375 194.845 303.375 199.421 301.426 202.838C300.109 205.146 298.197 207.058 295.889 208.375C292.471 210.324 287.895 210.324 278.744 210.324H181.482ZM242.169 103.492C243.892 103.492 244.753 103.492 245.476 103.39C250.059 102.743 253.661 99.1407 254.308 94.5573C254.41 93.8349 254.41 92.9735 254.41 91.2506V83.8317C254.41 82.1089 254.41 81.2475 254.308 80.5251C253.661 75.9416 250.059 72.3397 245.476 71.6927C244.753 71.5907 243.892 71.5905 242.169 71.5905C240.446 71.5905 239.585 71.5907 238.862 71.6927C234.279 72.3397 230.677 75.9416 230.03 80.5251C229.928 81.2475 229.928 82.1089 229.928 83.8317V91.2506C229.928 92.9735 229.928 93.8349 230.03 94.5573C230.677 99.1407 234.279 102.743 238.862 103.39C239.585 103.492 240.446 103.492 242.169 103.492ZM187.64 103.492C189.363 103.492 190.224 103.492 190.947 103.39C195.53 102.743 199.132 99.1407 199.779 94.5573C199.881 93.8349 199.881 92.9735 199.881 91.2506V83.8317C199.881 82.1089 199.881 81.2475 199.779 80.5251C199.132 75.9416 195.53 72.3397 190.947 71.6927C190.224 71.5907 189.363 71.5905 187.64 71.5905C185.917 71.5905 185.056 71.5907 184.333 71.6927C179.75 72.3397 176.148 75.9416 175.501 80.5251C175.399 81.2475 175.399 82.1089 175.399 83.8317V91.2506C175.399 92.9735 175.399 93.8349 175.501 94.5573C176.148 99.1407 179.75 102.743 184.333 103.39C185.056 103.492 185.917 103.492 187.64 103.492Z" fill="#2D2D2D"/>
<path d="M1122.59 210.324C1113.44 210.324 1108.86 210.324 1105.45 208.375C1103.14 207.058 1101.23 205.146 1099.91 202.838C1097.96 199.421 1097.96 194.845 1097.96 185.693V73.4547C1097.96 64.3032 1097.96 59.7274 1099.91 56.31C1101.23 54.0018 1103.14 52.0896 1105.45 50.773C1108.86 48.8238 1113.44 48.8237 1122.59 48.8237H1136.24C1145.18 48.8237 1149.66 48.8237 1153.02 46.9585C1155.44 45.6122 1157.44 43.6131 1158.79 41.1882C1160.53 38.0385 1160.64 33.9107 1160.65 26.0366L1160.65 22.7851C1160.66 14.911 1160.77 10.7832 1162.52 7.63352C1163.86 5.20863 1165.86 3.20951 1168.29 1.86321C1171.65 -0.00202262 1176.12 -0.00202245 1185.06 -0.00202245H1219.85C1229 -0.00202245 1233.58 -0.00196938 1237 1.94725C1239.31 3.26383 1241.22 5.17608 1242.54 7.48427C1244.48 10.9016 1244.48 15.4775 1244.48 24.6289V185.693C1244.48 194.845 1244.48 199.421 1242.54 202.838C1241.22 205.146 1239.31 207.058 1237 208.375C1233.58 210.324 1229 210.324 1219.85 210.324H1122.59ZM1183.28 103.492C1185 103.492 1185.86 103.492 1186.58 103.39C1191.17 102.743 1194.77 99.1407 1195.42 94.5573C1195.52 93.8349 1195.52 92.9735 1195.52 91.2506V83.8317C1195.52 82.1089 1195.52 81.2475 1195.42 80.5251C1194.77 75.9416 1191.17 72.3397 1186.58 71.6927C1185.86 71.5907 1185 71.5905 1183.28 71.5905C1181.56 71.5905 1180.69 71.5907 1179.97 71.6927C1175.39 72.3397 1171.79 75.9416 1171.14 80.5251C1171.04 81.2475 1171.04 82.1089 1171.04 83.8317V91.2506C1171.04 92.9735 1171.04 93.8349 1171.14 94.5573C1171.79 99.1407 1175.39 102.743 1179.97 103.39C1180.69 103.492 1181.56 103.492 1183.28 103.492ZM1128.75 103.492C1130.47 103.492 1131.33 103.492 1132.06 103.39C1136.64 102.743 1140.24 99.1407 1140.89 94.5573C1140.99 93.8349 1140.99 92.9735 1140.99 91.2506V83.8317C1140.99 82.1089 1140.99 81.2475 1140.89 80.5251C1140.24 75.9416 1136.64 72.3397 1132.06 71.6927C1131.33 71.5907 1130.47 71.5905 1128.75 71.5905C1127.03 71.5905 1126.17 71.5907 1125.44 71.6927C1120.86 72.3397 1117.26 75.9416 1116.61 80.5251C1116.51 81.2475 1116.51 82.1089 1116.51 83.8317V91.2506C1116.51 92.9735 1116.51 93.8349 1116.61 94.5573C1117.26 99.1407 1120.86 102.743 1125.44 103.39C1126.17 103.492 1127.03 103.492 1128.75 103.492Z" fill="#2D2D2D"/>
<path d="M808.889 210.324C799.737 210.324 795.161 210.324 791.744 208.375C789.436 207.058 787.524 205.146 786.207 202.838C784.258 199.421 784.258 194.845 784.258 185.693V73.4547C784.258 64.3032 784.258 59.7274 786.207 56.31C787.524 54.0018 789.436 52.0896 791.744 50.773C795.161 48.8238 799.737 48.8237 808.889 48.8237H822.535C831.48 48.8237 835.952 48.8237 839.312 46.9585C841.737 45.6122 843.736 43.6131 845.082 41.1882C846.831 38.0385 846.94 33.9107 846.947 26.0366L846.948 22.7851C846.955 14.911 847.064 10.7832 848.813 7.63352C850.159 5.20863 852.158 3.20951 854.583 1.86321C857.943 -0.00202262 862.415 -0.00202245 871.36 -0.00202245H906.15C915.302 -0.00202245 919.878 -0.00196938 923.295 1.94725C925.603 3.26383 927.515 5.17608 928.832 7.48427C930.781 10.9016 930.781 15.4775 930.781 24.6289V185.693C930.781 194.845 930.781 199.421 928.832 202.838C927.515 205.146 925.603 207.058 923.295 208.375C919.878 210.324 915.302 210.324 906.15 210.324H808.889ZM869.575 103.492C871.298 103.492 872.159 103.492 872.882 103.39C877.465 102.743 881.067 99.1407 881.714 94.5573C881.816 93.8349 881.816 92.9735 881.816 91.2506V83.8317C881.816 82.1089 881.816 81.2475 881.714 80.5251C881.067 75.9416 877.465 72.3397 872.882 71.6927C872.159 71.5907 871.298 71.5905 869.575 71.5905C867.852 71.5905 866.991 71.5907 866.269 71.6927C861.685 72.3397 858.083 75.9416 857.436 80.5251C857.334 81.2475 857.334 82.1089 857.334 83.8317V91.2506C857.334 92.9735 857.334 93.8349 857.436 94.5573C858.083 99.1407 861.685 102.743 866.269 103.39C866.991 103.492 867.852 103.492 869.575 103.492ZM815.046 103.492C816.769 103.492 817.63 103.492 818.353 103.39C822.936 102.743 826.538 99.1407 827.185 94.5573C827.287 93.8349 827.287 92.9735 827.287 91.2506V83.8317C827.287 82.1089 827.287 81.2475 827.185 80.5251C826.538 75.9416 822.936 72.3397 818.353 71.6927C817.63 71.5907 816.769 71.5905 815.046 71.5905C813.323 71.5905 812.462 71.5907 811.74 71.6927C807.156 72.3397 803.554 75.9416 802.907 80.5251C802.805 81.2475 802.805 82.1089 802.805 83.8317V91.2506C802.805 92.9735 802.805 93.8349 802.907 94.5573C803.554 99.1407 807.156 102.743 811.74 103.39C812.462 103.492 813.323 103.492 815.046 103.492Z" fill="#2D2D2D"/>
<path d="M495.185 210.324C486.034 210.324 481.458 210.324 478.041 208.375C475.733 207.058 473.82 205.146 472.504 202.838C470.555 199.421 470.555 194.845 470.555 185.693V73.4547C470.555 64.3032 470.555 59.7274 472.504 56.31C473.82 54.0018 475.733 52.0896 478.041 50.773C481.458 48.8238 486.034 48.8237 495.185 48.8237H508.832C517.777 48.8237 522.249 48.8237 525.609 46.9585C528.034 45.6122 530.033 43.6131 531.379 41.1882C533.128 38.0385 533.237 33.9107 533.244 26.0366L533.245 22.7851C533.252 14.911 533.361 10.7832 535.11 7.63352C536.456 5.20863 538.455 3.20951 540.88 1.86321C544.24 -0.00202262 548.712 -0.00202245 557.657 -0.00202245H592.447C601.599 -0.00202245 606.174 -0.00196938 609.592 1.94725C611.9 3.26383 613.812 5.17608 615.129 7.48427C617.078 10.9016 617.078 15.4775 617.078 24.6289V185.693C617.078 194.845 617.078 199.421 615.129 202.838C613.812 205.146 611.9 207.058 609.592 208.375C606.174 210.324 601.599 210.324 592.447 210.324H495.185ZM555.872 103.492C557.595 103.492 558.456 103.492 559.179 103.39C563.762 102.743 567.364 99.1407 568.011 94.5573C568.113 93.8349 568.113 92.9735 568.113 91.2506V83.8317C568.113 82.1089 568.113 81.2475 568.011 80.5251C567.364 75.9416 563.762 72.3397 559.179 71.6927C558.456 71.5907 557.595 71.5905 555.872 71.5905C554.149 71.5905 553.288 71.5907 552.565 71.6927C547.982 72.3397 544.38 75.9416 543.733 80.5251C543.631 81.2475 543.631 82.1089 543.631 83.8317V91.2506C543.631 92.9735 543.631 93.8349 543.733 94.5573C544.38 99.1407 547.982 102.743 552.565 103.39C553.288 103.492 554.149 103.492 555.872 103.492ZM501.343 103.492C503.066 103.492 503.927 103.492 504.65 103.39C509.233 102.743 512.835 99.1407 513.482 94.5573C513.584 93.8349 513.584 92.9735 513.584 91.2506V83.8317C513.584 82.1089 513.584 81.2475 513.482 80.5251C512.835 75.9416 509.233 72.3397 504.65 71.6927C503.927 71.5907 503.066 71.5905 501.343 71.5905C499.62 71.5905 498.759 71.5907 498.036 71.6927C493.453 72.3397 489.851 75.9416 489.204 80.5251C489.102 81.2475 489.102 82.1089 489.102 83.8317V91.2506C489.102 92.9735 489.102 93.8349 489.204 94.5573C489.851 99.1407 493.453 102.743 498.036 103.39C498.759 103.492 499.62 103.492 501.343 103.492Z" fill="#2D2D2D"/>
<path d="M1436.29 210.324C1427.14 210.324 1422.57 210.324 1419.15 208.375C1416.84 207.058 1414.93 205.146 1413.61 202.838C1411.66 199.421 1411.66 194.845 1411.66 185.693V73.4547C1411.66 64.3032 1411.66 59.7274 1413.61 56.31C1414.93 54.0018 1416.84 52.0896 1419.15 50.773C1422.57 48.8238 1427.14 48.8237 1436.29 48.8237H1449.94C1458.89 48.8237 1463.36 48.8237 1466.72 46.9585C1469.14 45.6122 1471.14 43.6131 1472.49 41.1882C1474.24 38.0385 1474.35 33.9107 1474.35 26.0366L1474.35 22.7851C1474.36 14.911 1474.47 10.7832 1476.22 7.63352C1477.57 5.20863 1479.56 3.20951 1481.99 1.86321C1485.35 -0.00202262 1489.82 -0.00202245 1498.77 -0.00202245H1533.56C1542.71 -0.00202245 1547.28 -0.00196938 1550.7 1.94725C1553.01 3.26383 1554.92 5.17608 1556.24 7.48427C1558.19 10.9016 1558.19 15.4775 1558.19 24.6289V185.693C1558.19 194.845 1558.19 199.421 1556.24 202.838C1554.92 205.146 1553.01 207.058 1550.7 208.375C1547.28 210.324 1542.71 210.324 1533.56 210.324H1436.29ZM1496.98 103.492C1498.7 103.492 1499.57 103.492 1500.29 103.39C1504.87 102.743 1508.47 99.1407 1509.12 94.5573C1509.22 93.8349 1509.22 92.9735 1509.22 91.2506V83.8317C1509.22 82.1089 1509.22 81.2475 1509.12 80.5251C1508.47 75.9416 1504.87 72.3397 1500.29 71.6927C1499.57 71.5907 1498.7 71.5905 1496.98 71.5905C1495.26 71.5905 1494.4 71.5907 1493.67 71.6927C1489.09 72.3397 1485.49 75.9416 1484.84 80.5251C1484.74 81.2475 1484.74 82.1089 1484.74 83.8317V91.2506C1484.74 92.9735 1484.74 93.8349 1484.84 94.5573C1485.49 99.1407 1489.09 102.743 1493.67 103.39C1494.4 103.492 1495.26 103.492 1496.98 103.492ZM1442.45 103.492C1444.18 103.492 1445.04 103.492 1445.76 103.39C1450.34 102.743 1453.94 99.1407 1454.59 94.5573C1454.69 93.8349 1454.69 92.9735 1454.69 91.2506V83.8317C1454.69 82.1089 1454.69 81.2475 1454.59 80.5251C1453.94 75.9416 1450.34 72.3397 1445.76 71.6927C1445.04 71.5907 1444.18 71.5905 1442.45 71.5905C1440.73 71.5905 1439.87 71.5907 1439.15 71.6927C1434.56 72.3397 1430.96 75.9416 1430.31 80.5251C1430.21 81.2475 1430.21 82.1089 1430.21 83.8317V91.2506C1430.21 92.9735 1430.21 93.8349 1430.31 94.5573C1430.96 99.1407 1434.56 102.743 1439.15 103.39C1439.87 103.492 1440.73 103.492 1442.45 103.492Z" fill="#2D2D2D"/>
<path d="M749.752 445.695C758.903 445.695 763.479 445.695 766.897 447.645C769.205 448.961 771.117 450.873 772.434 453.182C774.383 456.599 774.383 461.175 774.383 470.326V582.565C774.383 591.716 774.383 596.292 772.434 599.71C771.117 602.018 769.205 603.93 766.897 605.247C763.479 607.196 758.903 607.196 749.752 607.196H736.106C727.161 607.196 722.688 607.196 719.329 609.061C716.904 610.407 714.905 612.406 713.558 614.831C711.81 617.981 711.7 622.109 711.693 629.983L711.693 633.234C711.686 641.109 711.577 645.236 709.828 648.386C708.482 650.811 706.482 652.81 704.058 654.156C700.698 656.022 696.225 656.022 687.28 656.022H652.49C643.339 656.022 638.763 656.022 635.346 654.072C633.037 652.756 631.125 650.843 629.809 648.535C627.859 645.118 627.859 640.542 627.859 631.391V470.326C627.859 461.175 627.859 456.599 629.809 453.182C631.125 450.873 633.037 448.961 635.346 447.645C638.763 445.695 643.339 445.695 652.49 445.695H749.752ZM689.065 552.528C687.343 552.528 686.481 552.528 685.759 552.63C681.175 553.277 677.573 556.879 676.926 561.462C676.824 562.185 676.824 563.046 676.824 564.769V572.188C676.824 573.911 676.824 574.772 676.926 575.494C677.573 580.078 681.175 583.68 685.759 584.327C686.481 584.429 687.343 584.429 689.065 584.429C690.788 584.429 691.65 584.429 692.372 584.327C696.955 583.68 700.557 580.078 701.204 575.494C701.306 574.772 701.307 573.911 701.307 572.188V564.769C701.307 563.046 701.306 562.185 701.204 561.462C700.557 556.879 696.955 553.277 692.372 552.63C691.65 552.528 690.788 552.528 689.065 552.528ZM743.594 552.528C741.872 552.528 741.01 552.528 740.288 552.63C735.704 553.277 732.102 556.879 731.455 561.462C731.353 562.185 731.353 563.046 731.353 564.769V572.188C731.353 573.911 731.353 574.772 731.455 575.494C732.102 580.078 735.704 583.68 740.288 584.327C741.01 584.429 741.872 584.429 743.594 584.429C745.317 584.429 746.179 584.429 746.901 584.327C751.485 583.68 755.086 580.078 755.734 575.494C755.835 574.772 755.836 573.911 755.836 572.188V564.769C755.836 563.046 755.835 562.185 755.734 561.462C755.086 556.879 751.485 553.277 746.901 552.63C746.179 552.528 745.317 552.528 743.594 552.528Z" fill="#2D2D2D"/>
<path d="M436.049 445.695C445.2 445.695 449.776 445.695 453.194 447.645C455.502 448.961 457.414 450.873 458.731 453.182C460.68 456.599 460.68 461.175 460.68 470.326V582.565C460.68 591.716 460.68 596.292 458.731 599.71C457.414 602.018 455.502 603.93 453.194 605.247C449.776 607.196 445.2 607.196 436.049 607.196H422.403C413.458 607.196 408.985 607.196 405.626 609.061C403.201 610.407 401.202 612.406 399.855 614.831C398.107 617.981 397.997 622.109 397.99 629.983L397.99 633.234C397.983 641.109 397.873 645.236 396.125 648.386C394.778 650.811 392.779 652.81 390.354 654.156C386.995 656.022 382.522 656.022 373.577 656.022H338.787C329.636 656.022 325.06 656.022 321.643 654.072C319.334 652.756 317.422 650.843 316.106 648.535C314.156 645.118 314.156 640.542 314.156 631.391V470.326C314.156 461.175 314.156 456.599 316.106 453.182C317.422 450.873 319.334 448.961 321.643 447.645C325.06 445.695 329.636 445.695 338.787 445.695H436.049ZM375.362 552.528C373.639 552.528 372.778 552.528 372.056 552.63C367.472 553.277 363.87 556.879 363.223 561.462C363.121 562.185 363.121 563.046 363.121 564.769V572.188C363.121 573.911 363.121 574.772 363.223 575.494C363.87 580.078 367.472 583.68 372.056 584.327C372.778 584.429 373.639 584.429 375.362 584.429C377.085 584.429 377.947 584.429 378.669 584.327C383.252 583.68 386.854 580.078 387.501 575.494C387.603 574.772 387.604 573.911 387.604 572.188V564.769C387.604 563.046 387.603 562.185 387.501 561.462C386.854 556.879 383.252 553.277 378.669 552.63C377.947 552.528 377.085 552.528 375.362 552.528ZM429.891 552.528C428.168 552.528 427.307 552.528 426.585 552.63C422.001 553.277 418.399 556.879 417.752 561.462C417.65 562.185 417.65 563.046 417.65 564.769V572.188C417.65 573.911 417.65 574.772 417.752 575.494C418.399 580.078 422.001 583.68 426.585 584.327C427.307 584.429 428.168 584.429 429.891 584.429C431.614 584.429 432.476 584.429 433.198 584.327C437.781 583.68 441.383 580.078 442.03 575.494C442.132 574.772 442.133 573.911 442.133 572.188V564.769C442.133 563.046 442.132 562.185 442.03 561.462C441.383 556.879 437.781 553.277 433.198 552.63C432.476 552.528 431.614 552.528 429.891 552.528Z" fill="#2D2D2D"/>
<path d="M1377.16 445.695C1386.31 445.695 1390.89 445.695 1394.3 447.645C1396.61 448.961 1398.52 450.873 1399.84 453.182C1401.79 456.599 1401.79 461.175 1401.79 470.326V582.565C1401.79 591.716 1401.79 596.292 1399.84 599.71C1398.52 602.018 1396.61 603.93 1394.3 605.247C1390.89 607.196 1386.31 607.196 1377.16 607.196H1363.51C1354.57 607.196 1350.09 607.196 1346.73 609.061C1344.31 610.407 1342.31 612.406 1340.96 614.831C1339.22 617.981 1339.11 622.109 1339.1 629.983L1339.1 633.234C1339.09 641.109 1338.98 645.236 1337.23 648.386C1335.89 650.811 1333.89 652.81 1331.46 654.156C1328.1 656.022 1323.63 656.022 1314.69 656.022H1279.9C1270.75 656.022 1266.17 656.022 1262.75 654.072C1260.44 652.756 1258.53 650.843 1257.21 648.535C1255.27 645.118 1255.27 640.542 1255.27 631.391V470.326C1255.27 461.175 1255.27 456.599 1257.21 453.182C1258.53 450.873 1260.44 448.961 1262.75 447.645C1266.17 445.695 1270.75 445.695 1279.9 445.695H1377.16ZM1316.47 552.528C1314.75 552.528 1313.89 552.528 1313.17 552.63C1308.58 553.277 1304.98 556.879 1304.33 561.462C1304.23 562.185 1304.23 563.046 1304.23 564.769V572.188C1304.23 573.911 1304.23 574.772 1304.33 575.494C1304.98 580.078 1308.58 583.68 1313.17 584.327C1313.89 584.429 1314.75 584.429 1316.47 584.429C1318.19 584.429 1319.06 584.429 1319.78 584.327C1324.36 583.68 1327.96 580.078 1328.61 575.494C1328.71 574.772 1328.71 573.911 1328.71 572.188V564.769C1328.71 563.046 1328.71 562.185 1328.61 561.462C1327.96 556.879 1324.36 553.277 1319.78 552.63C1319.06 552.528 1318.19 552.528 1316.47 552.528ZM1371 552.528C1369.28 552.528 1368.42 552.528 1367.69 552.63C1363.11 553.277 1359.51 556.879 1358.86 561.462C1358.76 562.185 1358.76 563.046 1358.76 564.769V572.188C1358.76 573.911 1358.76 574.772 1358.86 575.494C1359.51 580.078 1363.11 583.68 1367.69 584.327C1368.42 584.429 1369.28 584.429 1371 584.429C1372.72 584.429 1373.58 584.429 1374.31 584.327C1378.89 583.68 1382.49 580.078 1383.14 575.494C1383.24 574.772 1383.24 573.911 1383.24 572.188V564.769C1383.24 563.046 1383.24 562.185 1383.14 561.462C1382.49 556.879 1378.89 553.277 1374.31 552.63C1373.58 552.528 1372.72 552.528 1371 552.528Z" fill="#2D2D2D"/>
<path d="M122.346 445.695C131.497 445.695 136.073 445.695 139.49 447.645C141.799 448.961 143.711 450.873 145.027 453.182C146.977 456.599 146.977 461.175 146.977 470.326V582.565C146.977 591.716 146.977 596.292 145.027 599.71C143.711 602.018 141.799 603.93 139.49 605.247C136.073 607.196 131.497 607.196 122.346 607.196H108.7C99.7546 607.196 95.282 607.196 91.9224 609.061C89.4975 610.407 87.4984 612.406 86.1521 614.831C84.4035 617.981 84.2941 622.109 84.2872 629.983L84.2865 633.234C84.2797 641.109 84.1703 645.236 82.4216 648.386C81.0753 650.811 79.0762 652.81 76.6513 654.156C73.2917 656.022 68.8191 656.022 59.874 656.022H25.0841C15.9326 656.022 11.3568 656.022 7.93942 654.072C5.63123 652.756 3.71897 650.843 2.4024 648.535C0.453178 645.118 0.453125 640.542 0.453125 631.391V470.326C0.453125 461.175 0.453178 456.599 2.4024 453.182C3.71897 450.873 5.63123 448.961 7.93942 447.645C11.3568 445.695 15.9326 445.695 25.0841 445.695H122.346ZM61.6592 552.528C59.9363 552.528 59.0749 552.528 58.3525 552.63C53.7691 553.277 50.1672 556.879 49.5201 561.462C49.4181 562.185 49.418 563.046 49.418 564.769V572.188C49.418 573.911 49.4181 574.772 49.5201 575.494C50.1672 580.078 53.7691 583.68 58.3525 584.327C59.0749 584.429 59.9363 584.429 61.6592 584.429C63.382 584.429 64.2434 584.429 64.9658 584.327C69.5492 583.68 73.1512 580.078 73.7982 575.494C73.9002 574.772 73.9004 573.911 73.9004 572.188V564.769C73.9004 563.046 73.9002 562.185 73.7982 561.462C73.1512 556.879 69.5492 553.277 64.9658 552.63C64.2434 552.528 63.382 552.528 61.6592 552.528ZM116.188 552.528C114.465 552.528 113.604 552.528 112.882 552.63C108.298 553.277 104.696 556.879 104.049 561.462C103.947 562.185 103.947 563.046 103.947 564.769V572.188C103.947 573.911 103.947 574.772 104.049 575.494C104.696 580.078 108.298 583.68 112.882 584.327C113.604 584.429 114.465 584.429 116.188 584.429C117.911 584.429 118.772 584.429 119.495 584.327C124.078 583.68 127.68 580.078 128.327 575.494C128.429 574.772 128.429 573.911 128.429 572.188V564.769C128.429 563.046 128.429 562.185 128.327 561.462C127.68 556.879 124.078 553.277 119.495 552.63C118.772 552.528 117.911 552.528 116.188 552.528Z" fill="#2D2D2D"/>
<path d="M1063.46 445.695C1072.61 445.695 1077.18 445.695 1080.6 447.645C1082.91 448.961 1084.82 450.873 1086.14 453.182C1088.09 456.599 1088.09 461.175 1088.09 470.326V582.565C1088.09 591.716 1088.09 596.292 1086.14 599.71C1084.82 602.018 1082.91 603.93 1080.6 605.247C1077.18 607.196 1072.61 607.196 1063.46 607.196H1049.81C1040.86 607.196 1036.39 607.196 1033.03 609.061C1030.61 610.407 1028.61 612.406 1027.26 614.831C1025.51 617.981 1025.4 622.109 1025.4 629.983L1025.4 633.234C1025.39 641.109 1025.28 645.236 1023.53 648.386C1022.18 650.811 1020.19 652.81 1017.76 654.156C1014.4 656.022 1009.93 656.022 1000.98 656.022H966.193C957.042 656.022 952.466 656.022 949.049 654.072C946.741 652.756 944.828 650.843 943.512 648.535C941.563 645.118 941.562 640.542 941.562 631.391V470.326C941.562 461.175 941.563 456.599 943.512 453.182C944.828 450.873 946.741 448.961 949.049 447.645C952.466 445.695 957.042 445.695 966.193 445.695H1063.46ZM1002.77 552.528C1001.05 552.528 1000.18 552.528 999.462 552.63C994.878 553.277 991.277 556.879 990.629 561.462C990.528 562.185 990.527 563.046 990.527 564.769V572.188C990.527 573.911 990.528 574.772 990.629 575.494C991.277 580.078 994.878 583.68 999.462 584.327C1000.18 584.429 1001.05 584.429 1002.77 584.429C1004.49 584.429 1005.35 584.429 1006.08 584.327C1010.66 583.68 1014.26 580.078 1014.91 575.494C1015.01 574.772 1015.01 573.911 1015.01 572.188V564.769C1015.01 563.046 1015.01 562.185 1014.91 561.462C1014.26 556.879 1010.66 553.277 1006.08 552.63C1005.35 552.528 1004.49 552.528 1002.77 552.528ZM1057.3 552.528C1055.57 552.528 1054.71 552.528 1053.99 552.63C1049.41 553.277 1045.81 556.879 1045.16 561.462C1045.06 562.185 1045.06 563.046 1045.06 564.769V572.188C1045.06 573.911 1045.06 574.772 1045.16 575.494C1045.81 580.078 1049.41 583.68 1053.99 584.327C1054.71 584.429 1055.57 584.429 1057.3 584.429C1059.02 584.429 1059.88 584.429 1060.6 584.327C1065.19 583.68 1068.79 580.078 1069.44 575.494C1069.54 574.772 1069.54 573.911 1069.54 572.188V564.769C1069.54 563.046 1069.54 562.185 1069.44 561.462C1068.79 556.879 1065.19 553.277 1060.6 552.63C1059.88 552.528 1059.02 552.528 1057.3 552.528Z" fill="#2D2D2D"/>
<path d="M809.342 655.672C800.19 655.672 795.614 655.672 792.197 653.723C789.889 652.406 787.977 650.494 786.66 648.186C784.711 644.768 784.711 640.192 784.711 631.041V518.802C784.711 509.651 784.711 505.075 786.66 501.658C787.977 499.349 789.889 497.437 792.197 496.121C795.614 494.171 800.19 494.171 809.342 494.171H822.988C831.933 494.171 836.405 494.171 839.765 492.306C842.19 490.96 844.189 488.961 845.535 486.536C847.284 483.386 847.393 479.258 847.4 471.384L847.401 468.133C847.408 460.259 847.517 456.131 849.266 452.981C850.612 450.556 852.611 448.557 855.036 447.211C858.396 445.346 862.868 445.346 871.814 445.346H906.603C915.755 445.346 920.331 445.346 923.748 447.295C926.056 448.611 927.969 450.524 929.285 452.832C931.234 456.249 931.234 460.825 931.234 469.977V631.041C931.234 640.192 931.234 644.768 929.285 648.186C927.969 650.494 926.056 652.406 923.748 653.723C920.331 655.672 915.755 655.672 906.603 655.672H809.342ZM870.028 548.839C871.751 548.839 872.613 548.839 873.335 548.737C877.918 548.09 881.52 544.488 882.167 539.905C882.269 539.183 882.27 538.321 882.27 536.598V529.179C882.27 527.457 882.269 526.595 882.167 525.873C881.52 521.289 877.918 517.687 873.335 517.04C872.613 516.938 871.751 516.938 870.028 516.938C868.305 516.938 867.444 516.938 866.722 517.04C862.138 517.687 858.536 521.289 857.889 525.873C857.787 526.595 857.787 527.457 857.787 529.179V536.598C857.787 538.321 857.787 539.183 857.889 539.905C858.536 544.488 862.138 548.09 866.722 548.737C867.444 548.839 868.305 548.839 870.028 548.839ZM815.499 548.839C817.222 548.839 818.084 548.839 818.806 548.737C823.389 548.09 826.991 544.488 827.638 539.905C827.74 539.183 827.741 538.321 827.741 536.598V529.179C827.741 527.457 827.74 526.595 827.638 525.873C826.991 521.289 823.389 517.687 818.806 517.04C818.084 516.938 817.222 516.938 815.499 516.938C813.776 516.938 812.915 516.938 812.193 517.04C807.609 517.687 804.007 521.289 803.36 525.873C803.258 526.595 803.258 527.457 803.258 529.179V536.598C803.258 538.321 803.258 539.183 803.36 539.905C804.007 544.488 807.609 548.09 812.193 548.737C812.915 548.839 813.776 548.839 815.499 548.839Z" fill="#2D2D2D"/>
<path d="M495.639 655.672C486.487 655.672 481.911 655.672 478.494 653.723C476.186 652.406 474.274 650.494 472.957 648.186C471.008 644.768 471.008 640.192 471.008 631.041V518.802C471.008 509.651 471.008 505.075 472.957 501.658C474.274 499.349 476.186 497.437 478.494 496.121C481.911 494.171 486.487 494.171 495.639 494.171H509.285C518.23 494.171 522.702 494.171 526.062 492.306C528.487 490.96 530.486 488.961 531.832 486.536C533.581 483.386 533.69 479.258 533.697 471.384L533.698 468.133C533.705 460.259 533.814 456.131 535.563 452.981C536.909 450.556 538.908 448.557 541.333 447.211C544.693 445.346 549.165 445.346 558.11 445.346H592.9C602.052 445.346 606.628 445.346 610.045 447.295C612.353 448.611 614.265 450.524 615.582 452.832C617.531 456.249 617.531 460.825 617.531 469.977V631.041C617.531 640.192 617.531 644.768 615.582 648.186C614.265 650.494 612.353 652.406 610.045 653.723C606.628 655.672 602.052 655.672 592.9 655.672H495.639ZM556.325 548.839C558.048 548.839 558.909 548.839 559.632 548.737C564.215 548.09 567.817 544.488 568.464 539.905C568.566 539.183 568.566 538.321 568.566 536.598V529.179C568.566 527.457 568.566 526.595 568.464 525.873C567.817 521.289 564.215 517.687 559.632 517.04C558.909 516.938 558.048 516.938 556.325 516.938C554.602 516.938 553.741 516.938 553.019 517.04C548.435 517.687 544.833 521.289 544.186 525.873C544.084 526.595 544.084 527.457 544.084 529.179V536.598C544.084 538.321 544.084 539.183 544.186 539.905C544.833 544.488 548.435 548.09 553.019 548.737C553.741 548.839 554.602 548.839 556.325 548.839ZM501.796 548.839C503.519 548.839 504.38 548.839 505.103 548.737C509.686 548.09 513.288 544.488 513.935 539.905C514.037 539.183 514.037 538.321 514.037 536.598V529.179C514.037 527.457 514.037 526.595 513.935 525.873C513.288 521.289 509.686 517.687 505.103 517.04C504.38 516.938 503.519 516.938 501.796 516.938C500.073 516.938 499.212 516.938 498.49 517.04C493.906 517.687 490.304 521.289 489.657 525.873C489.555 526.595 489.555 527.457 489.555 529.179V536.598C489.555 538.321 489.555 539.183 489.657 539.905C490.304 544.488 493.906 548.09 498.49 548.737C499.212 548.839 500.073 548.839 501.796 548.839Z" fill="#2D2D2D"/>
<path d="M1436.75 655.672C1427.6 655.672 1423.02 655.672 1419.6 653.723C1417.3 652.406 1415.38 650.494 1414.07 648.186C1412.12 644.768 1412.12 640.192 1412.12 631.041V518.802C1412.12 509.651 1412.12 505.075 1414.07 501.658C1415.38 499.349 1417.3 497.437 1419.6 496.121C1423.02 494.171 1427.6 494.171 1436.75 494.171H1450.39C1459.34 494.171 1463.81 494.171 1467.17 492.306C1469.6 490.96 1471.6 488.961 1472.94 486.536C1474.69 483.386 1474.8 479.258 1474.81 471.384L1474.81 468.133C1474.81 460.259 1474.92 456.131 1476.67 452.981C1478.02 450.556 1480.02 448.557 1482.44 447.211C1485.8 445.346 1490.27 445.346 1499.22 445.346H1534.01C1543.16 445.346 1547.74 445.346 1551.15 447.295C1553.46 448.611 1555.37 450.524 1556.69 452.832C1558.64 456.249 1558.64 460.825 1558.64 469.977V631.041C1558.64 640.192 1558.64 644.768 1556.69 648.186C1555.37 650.494 1553.46 652.406 1551.15 653.723C1547.74 655.672 1543.16 655.672 1534.01 655.672H1436.75ZM1497.43 548.839C1499.16 548.839 1500.02 548.839 1500.74 548.737C1505.32 548.09 1508.93 544.488 1509.57 539.905C1509.68 539.183 1509.68 538.321 1509.68 536.598V529.179C1509.68 527.457 1509.68 526.595 1509.57 525.873C1508.93 521.289 1505.32 517.687 1500.74 517.04C1500.02 516.938 1499.16 516.938 1497.43 516.938C1495.71 516.938 1494.85 516.938 1494.13 517.04C1489.54 517.687 1485.94 521.289 1485.3 525.873C1485.19 526.595 1485.19 527.457 1485.19 529.179V536.598C1485.19 538.321 1485.19 539.183 1485.3 539.905C1485.94 544.488 1489.54 548.09 1494.13 548.737C1494.85 548.839 1495.71 548.839 1497.43 548.839ZM1442.91 548.839C1444.63 548.839 1445.49 548.839 1446.21 548.737C1450.8 548.09 1454.4 544.488 1455.04 539.905C1455.15 539.183 1455.15 538.321 1455.15 536.598V529.179C1455.15 527.457 1455.15 526.595 1455.04 525.873C1454.4 521.289 1450.8 517.687 1446.21 517.04C1445.49 516.938 1444.63 516.938 1442.91 516.938C1441.18 516.938 1440.32 516.938 1439.6 517.04C1435.02 517.687 1431.41 521.289 1430.77 525.873C1430.66 526.595 1430.66 527.457 1430.66 529.179V536.598C1430.66 538.321 1430.66 539.183 1430.77 539.905C1431.41 544.488 1435.02 548.09 1439.6 548.737C1440.32 548.839 1441.18 548.839 1442.91 548.839Z" fill="#2D2D2D"/>
<path d="M181.935 655.672C172.784 655.672 168.208 655.672 164.791 653.723C162.483 652.406 160.57 650.494 159.254 648.186C157.305 644.768 157.305 640.192 157.305 631.041V518.802C157.305 509.651 157.305 505.075 159.254 501.658C160.57 499.349 162.483 497.437 164.791 496.121C168.208 494.171 172.784 494.171 181.935 494.171H195.582C204.527 494.171 208.999 494.171 212.359 492.306C214.784 490.96 216.783 488.961 218.129 486.536C219.878 483.386 219.987 479.258 219.994 471.384L219.995 468.133C220.002 460.259 220.111 456.131 221.86 452.981C223.206 450.556 225.205 448.557 227.63 447.211C230.99 445.346 235.462 445.346 244.407 445.346H279.197C288.349 445.346 292.924 445.346 296.342 447.295C298.65 448.611 300.562 450.524 301.879 452.832C303.828 456.249 303.828 460.825 303.828 469.977V631.041C303.828 640.192 303.828 644.768 301.879 648.186C300.562 650.494 298.65 652.406 296.342 653.723C292.924 655.672 288.349 655.672 279.197 655.672H181.935ZM242.622 548.839C244.345 548.839 245.206 548.839 245.929 548.737C250.512 548.09 254.114 544.488 254.761 539.905C254.863 539.183 254.863 538.321 254.863 536.598V529.179C254.863 527.457 254.863 526.595 254.761 525.873C254.114 521.289 250.512 517.687 245.929 517.04C245.206 516.938 244.345 516.938 242.622 516.938C240.899 516.938 240.038 516.938 239.315 517.04C234.732 517.687 231.13 521.289 230.483 525.873C230.381 526.595 230.381 527.457 230.381 529.179V536.598C230.381 538.321 230.381 539.183 230.483 539.905C231.13 544.488 234.732 548.09 239.315 548.737C240.038 548.839 240.899 548.839 242.622 548.839ZM188.093 548.839C189.816 548.839 190.677 548.839 191.4 548.737C195.983 548.09 199.585 544.488 200.232 539.905C200.334 539.183 200.334 538.321 200.334 536.598V529.179C200.334 527.457 200.334 526.595 200.232 525.873C199.585 521.289 195.983 517.687 191.4 517.04C190.677 516.938 189.816 516.938 188.093 516.938C186.37 516.938 185.509 516.938 184.786 517.04C180.203 517.687 176.601 521.289 175.954 525.873C175.852 526.595 175.852 527.457 175.852 529.179V536.598C175.852 538.321 175.852 539.183 175.954 539.905C176.601 544.488 180.203 548.09 184.786 548.737C185.509 548.839 186.37 548.839 188.093 548.839Z" fill="#2D2D2D"/>
<path d="M1123.04 655.672C1113.89 655.672 1109.32 655.672 1105.9 653.723C1103.59 652.406 1101.68 650.494 1100.36 648.186C1098.41 644.768 1098.41 640.192 1098.41 631.041V518.802C1098.41 509.651 1098.41 505.075 1100.36 501.658C1101.68 499.349 1103.59 497.437 1105.9 496.121C1109.32 494.171 1113.89 494.171 1123.04 494.171H1136.69C1145.64 494.171 1150.11 494.171 1153.47 492.306C1155.89 490.96 1157.89 488.961 1159.24 486.536C1160.99 483.386 1161.1 479.258 1161.1 471.384L1161.1 468.133C1161.11 460.259 1161.22 456.131 1162.97 452.981C1164.32 450.556 1166.31 448.557 1168.74 447.211C1172.1 445.346 1176.57 445.346 1185.52 445.346H1220.31C1229.46 445.346 1234.03 445.346 1237.45 447.295C1239.76 448.611 1241.67 450.524 1242.99 452.832C1244.94 456.249 1244.94 460.825 1244.94 469.977V631.041C1244.94 640.192 1244.94 644.768 1242.99 648.186C1241.67 650.494 1239.76 652.406 1237.45 653.723C1234.03 655.672 1229.46 655.672 1220.31 655.672H1123.04ZM1183.73 548.839C1185.45 548.839 1186.32 548.839 1187.04 548.737C1191.62 548.09 1195.22 544.488 1195.87 539.905C1195.97 539.183 1195.97 538.321 1195.97 536.598V529.179C1195.97 527.457 1195.97 526.595 1195.87 525.873C1195.22 521.289 1191.62 517.687 1187.04 517.04C1186.32 516.938 1185.45 516.938 1183.73 516.938C1182.01 516.938 1181.15 516.938 1180.42 517.04C1175.84 517.687 1172.24 521.289 1171.59 525.873C1171.49 526.595 1171.49 527.457 1171.49 529.179V536.598C1171.49 538.321 1171.49 539.183 1171.59 539.905C1172.24 544.488 1175.84 548.09 1180.42 548.737C1181.15 548.839 1182.01 548.839 1183.73 548.839ZM1129.2 548.839C1130.93 548.839 1131.79 548.839 1132.51 548.737C1137.09 548.09 1140.69 544.488 1141.34 539.905C1141.44 539.183 1141.44 538.321 1141.44 536.598V529.179C1141.44 527.457 1141.44 526.595 1141.34 525.873C1140.69 521.289 1137.09 517.687 1132.51 517.04C1131.79 516.938 1130.93 516.938 1129.2 516.938C1127.48 516.938 1126.62 516.938 1125.9 517.04C1121.31 517.687 1117.71 521.289 1117.06 525.873C1116.96 526.595 1116.96 527.457 1116.96 529.179V536.598C1116.96 538.321 1116.96 539.183 1117.06 539.905C1117.71 544.488 1121.31 548.09 1125.9 548.737C1126.62 548.839 1127.48 548.839 1129.2 548.839Z" fill="#2D2D2D"/>
<path d="M906.377 223.02C915.528 223.02 920.104 223.02 923.522 224.969C925.83 226.285 927.742 228.198 929.059 230.506C931.008 233.923 931.008 238.499 931.008 247.65V359.889C931.008 369.041 931.008 373.616 929.059 377.034C927.742 379.342 925.83 381.254 923.522 382.571C920.104 384.52 915.528 384.52 906.377 384.52H892.731C883.786 384.52 879.313 384.52 875.954 386.385C873.529 387.732 871.53 389.731 870.183 392.156C868.435 395.305 868.325 399.433 868.318 407.307L868.318 410.559C868.311 418.433 868.202 422.561 866.453 425.71C865.107 428.135 863.107 430.134 860.683 431.481C857.323 433.346 852.85 433.346 843.905 433.346H809.115C799.964 433.346 795.388 433.346 791.971 431.396C789.662 430.08 787.75 428.168 786.434 425.859C784.484 422.442 784.484 417.866 784.484 408.715V247.65C784.484 238.499 784.484 233.923 786.434 230.506C787.75 228.198 789.662 226.285 791.971 224.969C795.388 223.02 799.964 223.02 809.115 223.02H906.377ZM845.69 329.852C843.968 329.852 843.106 329.852 842.384 329.954C837.8 330.601 834.198 334.203 833.551 338.786C833.449 339.509 833.449 340.37 833.449 342.093V349.512C833.449 351.235 833.449 352.096 833.551 352.819C834.198 357.402 837.8 361.004 842.384 361.651C843.106 361.753 843.968 361.753 845.69 361.753C847.413 361.753 848.275 361.753 848.997 361.651C853.58 361.004 857.182 357.402 857.829 352.819C857.931 352.096 857.932 351.235 857.932 349.512V342.093C857.932 340.37 857.931 339.509 857.829 338.786C857.182 334.203 853.58 330.601 848.997 329.954C848.275 329.852 847.413 329.852 845.69 329.852ZM900.219 329.852C898.497 329.852 897.635 329.852 896.913 329.954C892.329 330.601 888.727 334.203 888.08 338.786C887.978 339.509 887.978 340.37 887.978 342.093V349.512C887.978 351.235 887.978 352.096 888.08 352.819C888.727 357.402 892.329 361.004 896.913 361.651C897.635 361.753 898.497 361.753 900.219 361.753C901.942 361.753 902.804 361.753 903.526 361.651C908.11 361.004 911.711 357.402 912.359 352.819C912.46 352.096 912.461 351.235 912.461 349.512V342.093C912.461 340.37 912.46 339.509 912.359 338.786C911.711 334.203 908.11 330.601 903.526 329.954C902.804 329.852 901.942 329.852 900.219 329.852Z" fill="#2D2D2D"/>
<path d="M592.674 223.02C601.825 223.02 606.401 223.02 609.819 224.969C612.127 226.285 614.039 228.198 615.356 230.506C617.305 233.923 617.305 238.499 617.305 247.65V359.889C617.305 369.041 617.305 373.616 615.356 377.034C614.039 379.342 612.127 381.254 609.819 382.571C606.401 384.52 601.825 384.52 592.674 384.52H579.028C570.083 384.52 565.61 384.52 562.251 386.385C559.826 387.732 557.827 389.731 556.48 392.156C554.732 395.305 554.622 399.433 554.615 407.307L554.615 410.559C554.608 418.433 554.498 422.561 552.75 425.71C551.403 428.135 549.404 430.134 546.979 431.481C543.62 433.346 539.147 433.346 530.202 433.346H495.412C486.261 433.346 481.685 433.346 478.268 431.396C475.959 430.08 474.047 428.168 472.731 425.859C470.781 422.442 470.781 417.866 470.781 408.715V247.65C470.781 238.499 470.781 233.923 472.731 230.506C474.047 228.198 475.959 226.285 478.268 224.969C481.685 223.02 486.261 223.02 495.412 223.02H592.674ZM531.987 329.852C530.264 329.852 529.403 329.852 528.681 329.954C524.097 330.601 520.495 334.203 519.848 338.786C519.746 339.509 519.746 340.37 519.746 342.093V349.512C519.746 351.235 519.746 352.096 519.848 352.819C520.495 357.402 524.097 361.004 528.681 361.651C529.403 361.753 530.264 361.753 531.987 361.753C533.71 361.753 534.572 361.753 535.294 361.651C539.877 361.004 543.479 357.402 544.126 352.819C544.228 352.096 544.229 351.235 544.229 349.512V342.093C544.229 340.37 544.228 339.509 544.126 338.786C543.479 334.203 539.877 330.601 535.294 329.954C534.572 329.852 533.71 329.852 531.987 329.852ZM586.516 329.852C584.793 329.852 583.932 329.852 583.21 329.954C578.626 330.601 575.024 334.203 574.377 338.786C574.275 339.509 574.275 340.37 574.275 342.093V349.512C574.275 351.235 574.275 352.096 574.377 352.819C575.024 357.402 578.626 361.004 583.21 361.651C583.932 361.753 584.793 361.753 586.516 361.753C588.239 361.753 589.101 361.753 589.823 361.651C594.406 361.004 598.008 357.402 598.655 352.819C598.757 352.096 598.758 351.235 598.758 349.512V342.093C598.758 340.37 598.757 339.509 598.655 338.786C598.008 334.203 594.406 330.601 589.823 329.954C589.101 329.852 588.239 329.852 586.516 329.852Z" fill="#2D2D2D"/>
<path d="M1533.78 223.02C1542.93 223.02 1547.51 223.02 1550.93 224.969C1553.24 226.285 1555.15 228.198 1556.46 230.506C1558.41 233.923 1558.41 238.499 1558.41 247.65V359.889C1558.41 369.041 1558.41 373.616 1556.46 377.034C1555.15 379.342 1553.24 381.254 1550.93 382.571C1547.51 384.52 1542.93 384.52 1533.78 384.52H1520.14C1511.19 384.52 1506.72 384.52 1503.36 386.385C1500.94 387.732 1498.94 389.731 1497.59 392.156C1495.84 395.305 1495.73 399.433 1495.72 407.307L1495.72 410.559C1495.72 418.433 1495.61 422.561 1493.86 425.71C1492.51 428.135 1490.51 430.134 1488.09 431.481C1484.73 433.346 1480.26 433.346 1471.31 433.346H1436.52C1427.37 433.346 1422.79 433.346 1419.38 431.396C1417.07 430.08 1415.16 428.168 1413.84 425.859C1411.89 422.442 1411.89 417.866 1411.89 408.715V247.65C1411.89 238.499 1411.89 233.923 1413.84 230.506C1415.16 228.198 1417.07 226.285 1419.38 224.969C1422.79 223.02 1427.37 223.02 1436.52 223.02H1533.78ZM1473.1 329.852C1471.37 329.852 1470.51 329.852 1469.79 329.954C1465.21 330.601 1461.6 334.203 1460.96 338.786C1460.86 339.509 1460.86 340.37 1460.86 342.093V349.512C1460.86 351.235 1460.86 352.096 1460.96 352.819C1461.6 357.402 1465.21 361.004 1469.79 361.651C1470.51 361.753 1471.37 361.753 1473.1 361.753C1474.82 361.753 1475.68 361.753 1476.4 361.651C1480.99 361.004 1484.59 357.402 1485.24 352.819C1485.34 352.096 1485.34 351.235 1485.34 349.512V342.093C1485.34 340.37 1485.34 339.509 1485.24 338.786C1484.59 334.203 1480.99 330.601 1476.4 329.954C1475.68 329.852 1474.82 329.852 1473.1 329.852ZM1527.63 329.852C1525.9 329.852 1525.04 329.852 1524.32 329.954C1519.74 330.601 1516.13 334.203 1515.49 338.786C1515.38 339.509 1515.38 340.37 1515.38 342.093V349.512C1515.38 351.235 1515.38 352.096 1515.49 352.819C1516.13 357.402 1519.74 361.004 1524.32 361.651C1525.04 361.753 1525.9 361.753 1527.63 361.753C1529.35 361.753 1530.21 361.753 1530.93 361.651C1535.52 361.004 1539.12 357.402 1539.76 352.819C1539.87 352.096 1539.87 351.235 1539.87 349.512V342.093C1539.87 340.37 1539.87 339.509 1539.76 338.786C1539.12 334.203 1535.52 330.601 1530.93 329.954C1530.21 329.852 1529.35 329.852 1527.63 329.852Z" fill="#2D2D2D"/>
<path d="M278.971 223.02C288.122 223.02 292.698 223.02 296.115 224.969C298.424 226.285 300.336 228.198 301.652 230.506C303.602 233.923 303.602 238.499 303.602 247.65V359.889C303.602 369.041 303.602 373.616 301.652 377.034C300.336 379.342 298.424 381.254 296.115 382.571C292.698 384.52 288.122 384.52 278.971 384.52H265.325C256.38 384.52 251.907 384.52 248.547 386.385C246.123 387.732 244.123 389.731 242.777 392.156C241.028 395.305 240.919 399.433 240.912 407.307L240.912 410.559C240.905 418.433 240.795 422.561 239.047 425.71C237.7 428.135 235.701 430.134 233.276 431.481C229.917 433.346 225.444 433.346 216.499 433.346H181.709C172.558 433.346 167.982 433.346 164.564 431.396C162.256 430.08 160.344 428.168 159.027 425.859C157.078 422.442 157.078 417.866 157.078 408.715V247.65C157.078 238.499 157.078 233.923 159.027 230.506C160.344 228.198 162.256 226.285 164.564 224.969C167.982 223.02 172.558 223.02 181.709 223.02H278.971ZM218.284 329.852C216.561 329.852 215.7 329.852 214.978 329.954C210.394 330.601 206.792 334.203 206.145 338.786C206.043 339.509 206.043 340.37 206.043 342.093V349.512C206.043 351.235 206.043 352.096 206.145 352.819C206.792 357.402 210.394 361.004 214.978 361.651C215.7 361.753 216.561 361.753 218.284 361.753C220.007 361.753 220.868 361.753 221.591 361.651C226.174 361.004 229.776 357.402 230.423 352.819C230.525 352.096 230.525 351.235 230.525 349.512V342.093C230.525 340.37 230.525 339.509 230.423 338.786C229.776 334.203 226.174 330.601 221.591 329.954C220.868 329.852 220.007 329.852 218.284 329.852ZM272.813 329.852C271.09 329.852 270.229 329.852 269.507 329.954C264.923 330.601 261.321 334.203 260.674 338.786C260.572 339.509 260.572 340.37 260.572 342.093V349.512C260.572 351.235 260.572 352.096 260.674 352.819C261.321 357.402 264.923 361.004 269.507 361.651C270.229 361.753 271.09 361.753 272.813 361.753C274.536 361.753 275.397 361.753 276.12 361.651C280.703 361.004 284.305 357.402 284.952 352.819C285.054 352.096 285.054 351.235 285.054 349.512V342.093C285.054 340.37 285.054 339.509 284.952 338.786C284.305 334.203 280.703 330.601 276.12 329.954C275.397 329.852 274.536 329.852 272.813 329.852Z" fill="#2D2D2D"/>
<path d="M1220.08 223.02C1229.23 223.02 1233.81 223.02 1237.22 224.969C1239.53 226.285 1241.45 228.198 1242.76 230.506C1244.71 233.923 1244.71 238.499 1244.71 247.65V359.889C1244.71 369.041 1244.71 373.616 1242.76 377.034C1241.45 379.342 1239.53 381.254 1237.22 382.571C1233.81 384.52 1229.23 384.52 1220.08 384.52H1206.43C1197.49 384.52 1193.02 384.52 1189.66 386.385C1187.23 387.732 1185.23 389.731 1183.89 392.156C1182.14 395.305 1182.03 399.433 1182.02 407.307L1182.02 410.559C1182.01 418.433 1181.9 422.561 1180.16 425.71C1178.81 428.135 1176.81 430.134 1174.39 431.481C1171.03 433.346 1166.55 433.346 1157.61 433.346H1122.82C1113.67 433.346 1109.09 433.346 1105.67 431.396C1103.37 430.08 1101.45 428.168 1100.14 425.859C1098.19 422.442 1098.19 417.866 1098.19 408.715V247.65C1098.19 238.499 1098.19 233.923 1100.14 230.506C1101.45 228.198 1103.37 226.285 1105.67 224.969C1109.09 223.02 1113.67 223.02 1122.82 223.02H1220.08ZM1159.39 329.852C1157.67 329.852 1156.81 329.852 1156.09 329.954C1151.5 330.601 1147.9 334.203 1147.25 338.786C1147.15 339.509 1147.15 340.37 1147.15 342.093V349.512C1147.15 351.235 1147.15 352.096 1147.25 352.819C1147.9 357.402 1151.5 361.004 1156.09 361.651C1156.81 361.753 1157.67 361.753 1159.39 361.753C1161.12 361.753 1161.98 361.753 1162.7 361.651C1167.28 361.004 1170.89 357.402 1171.53 352.819C1171.63 352.096 1171.63 351.235 1171.63 349.512V342.093C1171.63 340.37 1171.63 339.509 1171.53 338.786C1170.89 334.203 1167.28 330.601 1162.7 329.954C1161.98 329.852 1161.12 329.852 1159.39 329.852ZM1213.92 329.852C1212.2 329.852 1211.34 329.852 1210.62 329.954C1206.03 330.601 1202.43 334.203 1201.78 338.786C1201.68 339.509 1201.68 340.37 1201.68 342.093V349.512C1201.68 351.235 1201.68 352.096 1201.78 352.819C1202.43 357.402 1206.03 361.004 1210.62 361.651C1211.34 361.753 1212.2 361.753 1213.92 361.753C1215.65 361.753 1216.51 361.753 1217.23 361.651C1221.81 361.004 1225.41 357.402 1226.06 352.819C1226.16 352.096 1226.16 351.235 1226.16 349.512V342.093C1226.16 340.37 1226.16 339.509 1226.06 338.786C1225.41 334.203 1221.81 330.601 1217.23 329.954C1216.51 329.852 1215.65 329.852 1213.92 329.852Z" fill="#2D2D2D"/>
<path d="M24.8574 433C15.7059 433 11.1301 433 7.71272 431.051C5.40453 429.734 3.49228 427.822 2.1757 425.514C0.226481 422.096 0.226428 417.52 0.226428 408.369V296.13C0.226428 286.979 0.226481 282.403 2.1757 278.986C3.49228 276.678 5.40453 274.765 7.71272 273.449C11.1301 271.5 15.7059 271.499 24.8574 271.499H38.5034C47.4485 271.499 51.9211 271.499 55.2807 269.634C57.7056 268.288 59.7047 266.289 61.051 263.864C62.7997 260.714 62.9091 256.587 62.9159 248.712L62.9166 245.461C62.9235 237.587 63.0328 233.459 64.7815 230.309C66.1278 227.884 68.1269 225.885 70.5518 224.539C73.9114 222.674 78.384 222.674 87.3291 222.674H122.119C131.27 222.674 135.846 222.674 139.264 224.623C141.572 225.94 143.484 227.852 144.801 230.16C146.75 233.577 146.75 238.153 146.75 247.305V408.369C146.75 417.52 146.75 422.096 144.801 425.514C143.484 427.822 141.572 429.734 139.264 431.051C135.846 433 131.27 433 122.119 433H24.8574ZM85.544 326.168C87.2668 326.168 88.1282 326.167 88.8506 326.065C93.434 325.418 97.0359 321.816 97.683 317.233C97.785 316.511 97.7852 315.649 97.7852 313.926V306.507C97.7852 304.785 97.785 303.923 97.683 303.201C97.0359 298.617 93.434 295.016 88.8506 294.368C88.1282 294.266 87.2668 294.266 85.544 294.266C83.8211 294.266 82.9597 294.266 82.2373 294.368C77.6539 295.016 74.052 298.617 73.4049 303.201C73.3029 303.923 73.3027 304.785 73.3027 306.507V313.926C73.3027 315.649 73.3029 316.511 73.4049 317.233C74.052 321.816 77.6539 325.418 82.2373 326.065C82.9597 326.167 83.8211 326.168 85.544 326.168ZM31.0149 326.168C32.7378 326.168 33.5992 326.167 34.3216 326.065C38.905 325.418 42.5069 321.816 43.154 317.233C43.256 316.511 43.2561 315.649 43.2561 313.926V306.507C43.2561 304.785 43.256 303.923 43.154 303.201C42.5069 298.617 38.905 295.016 34.3216 294.368C33.5992 294.266 32.7378 294.266 31.0149 294.266C29.2921 294.266 28.4307 294.266 27.7083 294.368C23.1249 295.016 19.5229 298.617 18.8759 303.201C18.7739 303.923 18.7737 304.785 18.7737 306.507V313.926C18.7737 315.649 18.7739 316.511 18.8759 317.233C19.5229 321.816 23.1249 325.418 27.7083 326.065C28.4307 326.167 29.2921 326.168 31.0149 326.168Z" fill="#2D2D2D"/>
<path d="M965.967 433C956.815 433 952.239 433 948.822 431.051C946.514 429.734 944.602 427.822 943.285 425.514C941.336 422.096 941.336 417.52 941.336 408.369V296.13C941.336 286.979 941.336 282.403 943.285 278.986C944.602 276.678 946.514 274.765 948.822 273.449C952.239 271.5 956.815 271.499 965.967 271.499H979.613C988.558 271.499 993.03 271.499 996.39 269.634C998.815 268.288 1000.81 266.289 1002.16 263.864C1003.91 260.714 1004.02 256.587 1004.03 248.712L1004.03 245.461C1004.03 237.587 1004.14 233.459 1005.89 230.309C1007.24 227.884 1009.24 225.885 1011.66 224.539C1015.02 222.674 1019.49 222.674 1028.44 222.674H1063.23C1072.38 222.674 1076.96 222.674 1080.37 224.623C1082.68 225.94 1084.59 227.852 1085.91 230.16C1087.86 233.577 1087.86 238.153 1087.86 247.305V408.369C1087.86 417.52 1087.86 422.096 1085.91 425.514C1084.59 427.822 1082.68 429.734 1080.37 431.051C1076.96 433 1072.38 433 1063.23 433H965.967ZM1026.65 326.168C1028.38 326.168 1029.24 326.167 1029.96 326.065C1034.54 325.418 1038.15 321.816 1038.79 317.233C1038.89 316.511 1038.89 315.649 1038.89 313.926V306.507C1038.89 304.785 1038.89 303.923 1038.79 303.201C1038.15 298.617 1034.54 295.016 1029.96 294.368C1029.24 294.266 1028.38 294.266 1026.65 294.266C1024.93 294.266 1024.07 294.266 1023.35 294.368C1018.76 295.016 1015.16 298.617 1014.51 303.201C1014.41 303.923 1014.41 304.785 1014.41 306.507V313.926C1014.41 315.649 1014.41 316.511 1014.51 317.233C1015.16 321.816 1018.76 325.418 1023.35 326.065C1024.07 326.167 1024.93 326.168 1026.65 326.168ZM972.124 326.168C973.847 326.168 974.709 326.167 975.431 326.065C980.014 325.418 983.616 321.816 984.263 317.233C984.365 316.511 984.366 315.649 984.366 313.926V306.507C984.366 304.785 984.365 303.923 984.263 303.201C983.616 298.617 980.014 295.016 975.431 294.368C974.709 294.266 973.847 294.266 972.124 294.266C970.401 294.266 969.54 294.266 968.818 294.368C964.234 295.016 960.632 298.617 959.985 303.201C959.883 303.923 959.883 304.785 959.883 306.507V313.926C959.883 315.649 959.883 316.511 959.985 317.233C960.632 321.816 964.234 325.418 968.818 326.065C969.54 326.167 970.401 326.168 972.124 326.168Z" fill="#2D2D2D"/>
<path d="M652.264 433C643.112 433 638.536 433 635.119 431.051C632.811 429.734 630.899 427.822 629.582 425.514C627.633 422.096 627.633 417.52 627.633 408.369V296.13C627.633 286.979 627.633 282.403 629.582 278.986C630.899 276.678 632.811 274.765 635.119 273.449C638.536 271.5 643.112 271.499 652.264 271.499H665.91C674.855 271.499 679.327 271.499 682.687 269.634C685.112 268.288 687.111 266.289 688.457 263.864C690.206 260.714 690.315 256.587 690.322 248.712L690.323 245.461C690.33 237.587 690.439 233.459 692.188 230.309C693.534 227.884 695.533 225.885 697.958 224.539C701.318 222.674 705.79 222.674 714.735 222.674H749.525C758.677 222.674 763.253 222.674 766.67 224.623C768.978 225.94 770.89 227.852 772.207 230.16C774.156 233.577 774.156 238.153 774.156 247.305V408.369C774.156 417.52 774.156 422.096 772.207 425.514C770.89 427.822 768.978 429.734 766.67 431.051C763.253 433 758.677 433 749.525 433H652.264ZM712.95 326.168C714.673 326.168 715.534 326.167 716.257 326.065C720.84 325.418 724.442 321.816 725.089 317.233C725.191 316.511 725.191 315.649 725.191 313.926V306.507C725.191 304.785 725.191 303.923 725.089 303.201C724.442 298.617 720.84 295.016 716.257 294.368C715.534 294.266 714.673 294.266 712.95 294.266C711.227 294.266 710.366 294.266 709.644 294.368C705.06 295.016 701.458 298.617 700.811 303.201C700.709 303.923 700.709 304.785 700.709 306.507V313.926C700.709 315.649 700.709 316.511 700.811 317.233C701.458 321.816 705.06 325.418 709.644 326.065C710.366 326.167 711.227 326.168 712.95 326.168ZM658.421 326.168C660.144 326.168 661.005 326.167 661.728 326.065C666.311 325.418 669.913 321.816 670.56 317.233C670.662 316.511 670.662 315.649 670.662 313.926V306.507C670.662 304.785 670.662 303.923 670.56 303.201C669.913 298.617 666.311 295.016 661.728 294.368C661.005 294.266 660.144 294.266 658.421 294.266C656.698 294.266 655.837 294.266 655.115 294.368C650.531 295.016 646.929 298.617 646.282 303.201C646.18 303.923 646.18 304.785 646.18 306.507V313.926C646.18 315.649 646.18 316.511 646.282 317.233C646.929 321.816 650.531 325.418 655.115 326.065C655.837 326.167 656.698 326.168 658.421 326.168Z" fill="#2D2D2D"/>
<path d="M338.56 433C329.409 433 324.833 433 321.416 431.051C319.108 429.734 317.195 427.822 315.879 425.514C313.93 422.096 313.93 417.52 313.93 408.369V296.13C313.93 286.979 313.93 282.403 315.879 278.986C317.195 276.678 319.108 274.765 321.416 273.449C324.833 271.5 329.409 271.499 338.56 271.499H352.207C361.152 271.499 365.624 271.499 368.984 269.634C371.409 268.288 373.408 266.289 374.754 263.864C376.503 260.714 376.612 256.587 376.619 248.712L376.62 245.461C376.627 237.587 376.736 233.459 378.485 230.309C379.831 227.884 381.83 225.885 384.255 224.539C387.615 222.674 392.087 222.674 401.032 222.674H435.822C444.974 222.674 449.549 222.674 452.967 224.623C455.275 225.94 457.187 227.852 458.504 230.16C460.453 233.577 460.453 238.153 460.453 247.305V408.369C460.453 417.52 460.453 422.096 458.504 425.514C457.187 427.822 455.275 429.734 452.967 431.051C449.549 433 444.974 433 435.822 433H338.56ZM399.247 326.168C400.97 326.168 401.831 326.167 402.554 326.065C407.137 325.418 410.739 321.816 411.386 317.233C411.488 316.511 411.488 315.649 411.488 313.926V306.507C411.488 304.785 411.488 303.923 411.386 303.201C410.739 298.617 407.137 295.016 402.554 294.368C401.831 294.266 400.97 294.266 399.247 294.266C397.524 294.266 396.663 294.266 395.94 294.368C391.357 295.016 387.755 298.617 387.108 303.201C387.006 303.923 387.006 304.785 387.006 306.507V313.926C387.006 315.649 387.006 316.511 387.108 317.233C387.755 321.816 391.357 325.418 395.94 326.065C396.663 326.167 397.524 326.168 399.247 326.168ZM344.718 326.168C346.441 326.168 347.302 326.167 348.025 326.065C352.608 325.418 356.21 321.816 356.857 317.233C356.959 316.511 356.959 315.649 356.959 313.926V306.507C356.959 304.785 356.959 303.923 356.857 303.201C356.21 298.617 352.608 295.016 348.025 294.368C347.302 294.266 346.441 294.266 344.718 294.266C342.995 294.266 342.134 294.266 341.411 294.368C336.828 295.016 333.226 298.617 332.579 303.201C332.477 303.923 332.477 304.785 332.477 306.507V313.926C332.477 315.649 332.477 316.511 332.579 317.233C333.226 321.816 336.828 325.418 341.411 326.065C342.134 326.167 342.995 326.168 344.718 326.168Z" fill="#2D2D2D"/>
<path d="M1279.67 433C1270.52 433 1265.94 433 1262.53 431.051C1260.22 429.734 1258.3 427.822 1256.99 425.514C1255.04 422.096 1255.04 417.52 1255.04 408.369V296.13C1255.04 286.979 1255.04 282.403 1256.99 278.986C1258.3 276.678 1260.22 274.765 1262.53 273.449C1265.94 271.5 1270.52 271.499 1279.67 271.499H1293.32C1302.26 271.499 1306.73 271.499 1310.09 269.634C1312.52 268.288 1314.52 266.289 1315.86 263.864C1317.61 260.714 1317.72 256.587 1317.73 248.712L1317.73 245.461C1317.74 237.587 1317.85 233.459 1319.59 230.309C1320.94 227.884 1322.94 225.885 1325.36 224.539C1328.72 222.674 1333.2 222.674 1342.14 222.674H1376.93C1386.08 222.674 1390.66 222.674 1394.08 224.623C1396.38 225.94 1398.3 227.852 1399.61 230.16C1401.56 233.577 1401.56 238.153 1401.56 247.305V408.369C1401.56 417.52 1401.56 422.096 1399.61 425.514C1398.3 427.822 1396.38 429.734 1394.08 431.051C1390.66 433 1386.08 433 1376.93 433H1279.67ZM1340.36 326.168C1342.08 326.168 1342.94 326.167 1343.66 326.065C1348.25 325.418 1351.85 321.816 1352.5 317.233C1352.6 316.511 1352.6 315.649 1352.6 313.926V306.507C1352.6 304.785 1352.6 303.923 1352.5 303.201C1351.85 298.617 1348.25 295.016 1343.66 294.368C1342.94 294.266 1342.08 294.266 1340.36 294.266C1338.63 294.266 1337.77 294.266 1337.05 294.368C1332.47 295.016 1328.86 298.617 1328.22 303.201C1328.12 303.923 1328.12 304.785 1328.12 306.507V313.926C1328.12 315.649 1328.12 316.511 1328.22 317.233C1328.86 321.816 1332.47 325.418 1337.05 326.065C1337.77 326.167 1338.63 326.168 1340.36 326.168ZM1285.83 326.168C1287.55 326.168 1288.41 326.167 1289.13 326.065C1293.72 325.418 1297.32 321.816 1297.97 317.233C1298.07 316.511 1298.07 315.649 1298.07 313.926V306.507C1298.07 304.785 1298.07 303.923 1297.97 303.201C1297.32 298.617 1293.72 295.016 1289.13 294.368C1288.41 294.266 1287.55 294.266 1285.83 294.266C1284.1 294.266 1283.24 294.266 1282.52 294.368C1277.94 295.016 1274.34 298.617 1273.69 303.201C1273.59 303.923 1273.59 304.785 1273.59 306.507V313.926C1273.59 315.649 1273.59 316.511 1273.69 317.233C1274.34 321.816 1277.94 325.418 1282.52 326.065C1283.24 326.167 1284.1 326.168 1285.83 326.168Z" fill="#2D2D2D"/>
<path d="M906.752 668.367C915.903 668.367 920.479 668.367 923.897 670.316C926.205 671.633 928.117 673.545 929.434 675.853C931.383 679.271 931.383 683.847 931.383 692.998V805.237C931.383 814.388 931.383 818.964 929.434 822.381C928.117 824.69 926.205 826.602 923.897 827.918C920.479 829.868 915.903 829.868 906.752 829.868H893.106C884.161 829.868 879.688 829.868 876.329 831.733C873.904 833.079 871.905 835.078 870.558 837.503C868.81 840.653 868.7 844.781 868.693 852.655L868.693 855.906C868.686 863.78 868.577 867.908 866.828 871.058C865.482 873.483 863.482 875.482 861.058 876.828C857.698 878.693 853.225 878.693 844.28 878.693H809.49C800.339 878.693 795.763 878.693 792.346 876.744C790.037 875.428 788.125 873.515 786.809 871.207C784.859 867.79 784.859 863.214 784.859 854.062V692.998C784.859 683.847 784.859 679.271 786.809 675.853C788.125 673.545 790.037 671.633 792.346 670.316C795.763 668.367 800.339 668.367 809.49 668.367H906.752ZM846.065 775.2C844.343 775.2 843.481 775.2 842.759 775.302C838.175 775.949 834.573 779.551 833.926 784.134C833.824 784.857 833.824 785.718 833.824 787.441V794.86C833.824 796.583 833.824 797.444 833.926 798.166C834.573 802.75 838.175 806.352 842.759 806.999C843.481 807.101 844.343 807.101 846.065 807.101C847.788 807.101 848.65 807.101 849.372 806.999C853.955 806.352 857.557 802.75 858.204 798.166C858.306 797.444 858.307 796.583 858.307 794.86V787.441C858.307 785.718 858.306 784.857 858.204 784.134C857.557 779.551 853.955 775.949 849.372 775.302C848.65 775.2 847.788 775.2 846.065 775.2ZM900.594 775.2C898.872 775.2 898.01 775.2 897.288 775.302C892.704 775.949 889.102 779.551 888.455 784.134C888.353 784.857 888.353 785.718 888.353 787.441V794.86C888.353 796.583 888.353 797.444 888.455 798.166C889.102 802.75 892.704 806.352 897.288 806.999C898.01 807.101 898.872 807.101 900.594 807.101C902.317 807.101 903.179 807.101 903.901 806.999C908.485 806.352 912.086 802.75 912.734 798.166C912.835 797.444 912.836 796.583 912.836 794.86V787.441C912.836 785.718 912.835 784.857 912.734 784.134C912.086 779.551 908.485 775.949 903.901 775.302C903.179 775.2 902.317 775.2 900.594 775.2Z" fill="#2D2D2D"/>
<path d="M593.049 668.367C602.2 668.367 606.776 668.367 610.194 670.316C612.502 671.633 614.414 673.545 615.731 675.853C617.68 679.271 617.68 683.847 617.68 692.998V805.237C617.68 814.388 617.68 818.964 615.731 822.381C614.414 824.69 612.502 826.602 610.194 827.918C606.776 829.868 602.2 829.868 593.049 829.868H579.403C570.458 829.868 565.985 829.868 562.626 831.733C560.201 833.079 558.202 835.078 556.855 837.503C555.107 840.653 554.997 844.781 554.99 852.655L554.99 855.906C554.983 863.78 554.873 867.908 553.125 871.058C551.778 873.483 549.779 875.482 547.354 876.828C543.995 878.693 539.522 878.693 530.577 878.693H495.787C486.636 878.693 482.06 878.693 478.643 876.744C476.334 875.428 474.422 873.515 473.106 871.207C471.156 867.79 471.156 863.214 471.156 854.062V692.998C471.156 683.847 471.156 679.271 473.106 675.853C474.422 673.545 476.334 671.633 478.643 670.316C482.06 668.367 486.636 668.367 495.787 668.367H593.049ZM532.362 775.2C530.639 775.2 529.778 775.2 529.056 775.302C524.472 775.949 520.87 779.551 520.223 784.134C520.121 784.857 520.121 785.718 520.121 787.441V794.86C520.121 796.583 520.121 797.444 520.223 798.166C520.87 802.75 524.472 806.352 529.056 806.999C529.778 807.101 530.639 807.101 532.362 807.101C534.085 807.101 534.947 807.101 535.669 806.999C540.252 806.352 543.854 802.75 544.501 798.166C544.603 797.444 544.604 796.583 544.604 794.86V787.441C544.604 785.718 544.603 784.857 544.501 784.134C543.854 779.551 540.252 775.949 535.669 775.302C534.947 775.2 534.085 775.2 532.362 775.2ZM586.891 775.2C585.168 775.2 584.307 775.2 583.585 775.302C579.001 775.949 575.399 779.551 574.752 784.134C574.65 784.857 574.65 785.718 574.65 787.441V794.86C574.65 796.583 574.65 797.444 574.752 798.166C575.399 802.75 579.001 806.352 583.585 806.999C584.307 807.101 585.168 807.101 586.891 807.101C588.614 807.101 589.476 807.101 590.198 806.999C594.781 806.352 598.383 802.75 599.03 798.166C599.132 797.444 599.133 796.583 599.133 794.86V787.441C599.133 785.718 599.132 784.857 599.03 784.134C598.383 779.551 594.781 775.949 590.198 775.302C589.476 775.2 588.614 775.2 586.891 775.2Z" fill="#2D2D2D"/>
<path d="M1534.16 668.367C1543.31 668.367 1547.89 668.367 1551.3 670.316C1553.61 671.633 1555.52 673.545 1556.84 675.853C1558.79 679.271 1558.79 683.847 1558.79 692.998V805.237C1558.79 814.388 1558.79 818.964 1556.84 822.381C1555.52 824.69 1553.61 826.602 1551.3 827.918C1547.89 829.868 1543.31 829.868 1534.16 829.868H1520.51C1511.57 829.868 1507.09 829.868 1503.73 831.733C1501.31 833.079 1499.31 835.078 1497.96 837.503C1496.22 840.653 1496.11 844.781 1496.1 852.655L1496.1 855.906C1496.09 863.78 1495.98 867.908 1494.23 871.058C1492.89 873.483 1490.89 875.482 1488.46 876.828C1485.1 878.693 1480.63 878.693 1471.69 878.693H1436.9C1427.75 878.693 1423.17 878.693 1419.75 876.744C1417.44 875.428 1415.53 873.515 1414.21 871.207C1412.27 867.79 1412.27 863.214 1412.27 854.062V692.998C1412.27 683.847 1412.27 679.271 1414.21 675.853C1415.53 673.545 1417.44 671.633 1419.75 670.316C1423.17 668.367 1427.75 668.367 1436.9 668.367H1534.16ZM1473.47 775.2C1471.75 775.2 1470.89 775.2 1470.17 775.302C1465.58 775.949 1461.98 779.551 1461.33 784.134C1461.23 784.857 1461.23 785.718 1461.23 787.441V794.86C1461.23 796.583 1461.23 797.444 1461.33 798.166C1461.98 802.75 1465.58 806.352 1470.17 806.999C1470.89 807.101 1471.75 807.101 1473.47 807.101C1475.19 807.101 1476.06 807.101 1476.78 806.999C1481.36 806.352 1484.96 802.75 1485.61 798.166C1485.71 797.444 1485.71 796.583 1485.71 794.86V787.441C1485.71 785.718 1485.71 784.857 1485.61 784.134C1484.96 779.551 1481.36 775.949 1476.78 775.302C1476.06 775.2 1475.19 775.2 1473.47 775.2ZM1528 775.2C1526.28 775.2 1525.42 775.2 1524.69 775.302C1520.11 775.949 1516.51 779.551 1515.86 784.134C1515.76 784.857 1515.76 785.718 1515.76 787.441V794.86C1515.76 796.583 1515.76 797.444 1515.86 798.166C1516.51 802.75 1520.11 806.352 1524.69 806.999C1525.42 807.101 1526.28 807.101 1528 807.101C1529.72 807.101 1530.58 807.101 1531.31 806.999C1535.89 806.352 1539.49 802.75 1540.14 798.166C1540.24 797.444 1540.24 796.583 1540.24 794.86V787.441C1540.24 785.718 1540.24 784.857 1540.14 784.134C1539.49 779.551 1535.89 775.949 1531.31 775.302C1530.58 775.2 1529.72 775.2 1528 775.2Z" fill="#2D2D2D"/>
<path d="M279.346 668.367C288.497 668.367 293.073 668.367 296.49 670.316C298.799 671.633 300.711 673.545 302.027 675.853C303.977 679.271 303.977 683.847 303.977 692.998V805.237C303.977 814.388 303.977 818.964 302.027 822.381C300.711 824.69 298.799 826.602 296.49 827.918C293.073 829.868 288.497 829.868 279.346 829.868H265.7C256.755 829.868 252.282 829.868 248.922 831.733C246.498 833.079 244.498 835.078 243.152 837.503C241.403 840.653 241.294 844.781 241.287 852.655L241.287 855.906C241.28 863.78 241.17 867.908 239.422 871.058C238.075 873.483 236.076 875.482 233.651 876.828C230.292 878.693 225.819 878.693 216.874 878.693H182.084C172.933 878.693 168.357 878.693 164.939 876.744C162.631 875.428 160.719 873.515 159.402 871.207C157.453 867.79 157.453 863.214 157.453 854.062V692.998C157.453 683.847 157.453 679.271 159.402 675.853C160.719 673.545 162.631 671.633 164.939 670.316C168.357 668.367 172.933 668.367 182.084 668.367H279.346ZM218.659 775.2C216.936 775.2 216.075 775.2 215.353 775.302C210.769 775.949 207.167 779.551 206.52 784.134C206.418 784.857 206.418 785.718 206.418 787.441V794.86C206.418 796.583 206.418 797.444 206.52 798.166C207.167 802.75 210.769 806.352 215.353 806.999C216.075 807.101 216.936 807.101 218.659 807.101C220.382 807.101 221.243 807.101 221.966 806.999C226.549 806.352 230.151 802.75 230.798 798.166C230.9 797.444 230.9 796.583 230.9 794.86V787.441C230.9 785.718 230.9 784.857 230.798 784.134C230.151 779.551 226.549 775.949 221.966 775.302C221.243 775.2 220.382 775.2 218.659 775.2ZM273.188 775.2C271.465 775.2 270.604 775.2 269.882 775.302C265.298 775.949 261.696 779.551 261.049 784.134C260.947 784.857 260.947 785.718 260.947 787.441V794.86C260.947 796.583 260.947 797.444 261.049 798.166C261.696 802.75 265.298 806.352 269.882 806.999C270.604 807.101 271.465 807.101 273.188 807.101C274.911 807.101 275.772 807.101 276.495 806.999C281.078 806.352 284.68 802.75 285.327 798.166C285.429 797.444 285.429 796.583 285.429 794.86V787.441C285.429 785.718 285.429 784.857 285.327 784.134C284.68 779.551 281.078 775.949 276.495 775.302C275.772 775.2 274.911 775.2 273.188 775.2Z" fill="#2D2D2D"/>
<path d="M1220.46 668.367C1229.61 668.367 1234.18 668.367 1237.6 670.316C1239.91 671.633 1241.82 673.545 1243.14 675.853C1245.09 679.271 1245.09 683.847 1245.09 692.998V805.237C1245.09 814.388 1245.09 818.964 1243.14 822.381C1241.82 824.69 1239.91 826.602 1237.6 827.918C1234.18 829.868 1229.61 829.868 1220.46 829.868H1206.81C1197.86 829.868 1193.39 829.868 1190.03 831.733C1187.61 833.079 1185.61 835.078 1184.26 837.503C1182.51 840.653 1182.4 844.781 1182.4 852.655L1182.4 855.906C1182.39 863.78 1182.28 867.908 1180.53 871.058C1179.18 873.483 1177.19 875.482 1174.76 876.828C1171.4 878.693 1166.93 878.693 1157.98 878.693H1123.19C1114.04 878.693 1109.47 878.693 1106.05 876.744C1103.74 875.428 1101.83 873.515 1100.51 871.207C1098.56 867.79 1098.56 863.214 1098.56 854.062V692.998C1098.56 683.847 1098.56 679.271 1100.51 675.853C1101.83 673.545 1103.74 671.633 1106.05 670.316C1109.47 668.367 1114.04 668.367 1123.19 668.367H1220.46ZM1159.77 775.2C1158.05 775.2 1157.18 775.2 1156.46 775.302C1151.88 775.949 1148.28 779.551 1147.63 784.134C1147.53 784.857 1147.53 785.718 1147.53 787.441V794.86C1147.53 796.583 1147.53 797.444 1147.63 798.166C1148.28 802.75 1151.88 806.352 1156.46 806.999C1157.18 807.101 1158.05 807.101 1159.77 807.101C1161.49 807.101 1162.35 807.101 1163.08 806.999C1167.66 806.352 1171.26 802.75 1171.91 798.166C1172.01 797.444 1172.01 796.583 1172.01 794.86V787.441C1172.01 785.718 1172.01 784.857 1171.91 784.134C1171.26 779.551 1167.66 775.949 1163.08 775.302C1162.35 775.2 1161.49 775.2 1159.77 775.2ZM1214.3 775.2C1212.57 775.2 1211.71 775.2 1210.99 775.302C1206.41 775.949 1202.81 779.551 1202.16 784.134C1202.06 784.857 1202.06 785.718 1202.06 787.441V794.86C1202.06 796.583 1202.06 797.444 1202.16 798.166C1202.81 802.75 1206.41 806.352 1210.99 806.999C1211.71 807.101 1212.57 807.101 1214.3 807.101C1216.02 807.101 1216.88 807.101 1217.6 806.999C1222.19 806.352 1225.79 802.75 1226.44 798.166C1226.54 797.444 1226.54 796.583 1226.54 794.86V787.441C1226.54 785.718 1226.54 784.857 1226.44 784.134C1225.79 779.551 1222.19 775.949 1217.6 775.302C1216.88 775.2 1216.02 775.2 1214.3 775.2Z" fill="#2D2D2D"/>
<path d="M25.2324 878.348C16.0809 878.348 11.5051 878.348 8.08772 876.398C5.77953 875.082 3.86728 873.17 2.5507 870.861C0.601481 867.444 0.601428 862.868 0.601428 853.717V741.478C0.601428 732.327 0.601481 727.751 2.5507 724.333C3.86728 722.025 5.77953 720.113 8.08772 718.796C11.5051 716.847 16.0809 716.847 25.2324 716.847H38.8784C47.8235 716.847 52.2961 716.847 55.6557 714.982C58.0806 713.636 60.0797 711.636 61.426 709.212C63.1747 706.062 63.2841 701.934 63.2909 694.06L63.2916 690.808C63.2985 682.934 63.4078 678.807 65.1565 675.657C66.5028 673.232 68.5019 671.233 70.9268 669.887C74.2864 668.021 78.759 668.021 87.7041 668.021H122.494C131.645 668.021 136.221 668.021 139.639 669.971C141.947 671.287 143.859 673.2 145.176 675.508C147.125 678.925 147.125 683.501 147.125 692.652V853.717C147.125 862.868 147.125 867.444 145.176 870.861C143.859 873.17 141.947 875.082 139.639 876.398C136.221 878.348 131.645 878.348 122.494 878.348H25.2324ZM85.919 771.515C87.6418 771.515 88.5032 771.515 89.2256 771.413C93.809 770.766 97.4109 767.164 98.058 762.581C98.16 761.858 98.1602 760.997 98.1602 759.274V751.855C98.1602 750.132 98.16 749.271 98.058 748.549C97.4109 743.965 93.809 740.363 89.2256 739.716C88.5032 739.614 87.6418 739.614 85.919 739.614C84.1961 739.614 83.3347 739.614 82.6123 739.716C78.0289 740.363 74.427 743.965 73.7799 748.549C73.6779 749.271 73.6777 750.132 73.6777 751.855V759.274C73.6777 760.997 73.6779 761.858 73.7799 762.581C74.427 767.164 78.0289 770.766 82.6123 771.413C83.3347 771.515 84.1961 771.515 85.919 771.515ZM31.3899 771.515C33.1128 771.515 33.9742 771.515 34.6966 771.413C39.28 770.766 42.8819 767.164 43.529 762.581C43.631 761.858 43.6311 760.997 43.6311 759.274V751.855C43.6311 750.132 43.631 749.271 43.529 748.549C42.8819 743.965 39.28 740.363 34.6966 739.716C33.9742 739.614 33.1128 739.614 31.3899 739.614C29.6671 739.614 28.8057 739.614 28.0833 739.716C23.4999 740.363 19.8979 743.965 19.2509 748.549C19.1489 749.271 19.1487 750.132 19.1487 751.855V759.274C19.1487 760.997 19.1489 761.858 19.2509 762.581C19.8979 767.164 23.4999 770.766 28.0833 771.413C28.8057 771.515 29.6671 771.515 31.3899 771.515Z" fill="#2D2D2D"/>
<path d="M966.342 878.348C957.19 878.348 952.614 878.348 949.197 876.398C946.889 875.082 944.977 873.17 943.66 870.861C941.711 867.444 941.711 862.868 941.711 853.717V741.478C941.711 732.327 941.711 727.751 943.66 724.333C944.977 722.025 946.889 720.113 949.197 718.796C952.614 716.847 957.19 716.847 966.342 716.847H979.988C988.933 716.847 993.405 716.847 996.765 714.982C999.19 713.636 1001.19 711.636 1002.54 709.212C1004.28 706.062 1004.39 701.934 1004.4 694.06L1004.4 690.808C1004.41 682.934 1004.52 678.807 1006.27 675.657C1007.61 673.232 1009.61 671.233 1012.04 669.887C1015.4 668.021 1019.87 668.021 1028.81 668.021H1063.6C1072.75 668.021 1077.33 668.021 1080.75 669.971C1083.06 671.287 1084.97 673.2 1086.29 675.508C1088.23 678.925 1088.23 683.501 1088.23 692.652V853.717C1088.23 862.868 1088.23 867.444 1086.29 870.861C1084.97 873.17 1083.06 875.082 1080.75 876.398C1077.33 878.348 1072.75 878.348 1063.6 878.348H966.342ZM1027.03 771.515C1028.75 771.515 1029.61 771.515 1030.33 771.413C1034.92 770.766 1038.52 767.164 1039.17 762.581C1039.27 761.858 1039.27 760.997 1039.27 759.274V751.855C1039.27 750.132 1039.27 749.271 1039.17 748.549C1038.52 743.965 1034.92 740.363 1030.33 739.716C1029.61 739.614 1028.75 739.614 1027.03 739.614C1025.31 739.614 1024.44 739.614 1023.72 739.716C1019.14 740.363 1015.54 743.965 1014.89 748.549C1014.79 749.271 1014.79 750.132 1014.79 751.855V759.274C1014.79 760.997 1014.79 761.858 1014.89 762.581C1015.54 767.164 1019.14 770.766 1023.72 771.413C1024.44 771.515 1025.31 771.515 1027.03 771.515ZM972.499 771.515C974.222 771.515 975.084 771.515 975.806 771.413C980.389 770.766 983.991 767.164 984.638 762.581C984.74 761.858 984.741 760.997 984.741 759.274V751.855C984.741 750.132 984.74 749.271 984.638 748.549C983.991 743.965 980.389 740.363 975.806 739.716C975.084 739.614 974.222 739.614 972.499 739.614C970.776 739.614 969.915 739.614 969.193 739.716C964.609 740.363 961.007 743.965 960.36 748.549C960.258 749.271 960.258 750.132 960.258 751.855V759.274C960.258 760.997 960.258 761.858 960.36 762.581C961.007 767.164 964.609 770.766 969.193 771.413C969.915 771.515 970.776 771.515 972.499 771.515Z" fill="#2D2D2D"/>
<path d="M652.639 878.348C643.487 878.348 638.911 878.348 635.494 876.398C633.186 875.082 631.274 873.17 629.957 870.861C628.008 867.444 628.008 862.868 628.008 853.717V741.478C628.008 732.327 628.008 727.751 629.957 724.333C631.274 722.025 633.186 720.113 635.494 718.796C638.911 716.847 643.487 716.847 652.639 716.847H666.285C675.23 716.847 679.702 716.847 683.062 714.982C685.487 713.636 687.486 711.636 688.832 709.212C690.581 706.062 690.69 701.934 690.697 694.06L690.698 690.808C690.705 682.934 690.814 678.807 692.563 675.657C693.909 673.232 695.908 671.233 698.333 669.887C701.693 668.021 706.165 668.021 715.11 668.021H749.9C759.052 668.021 763.628 668.021 767.045 669.971C769.353 671.287 771.265 673.2 772.582 675.508C774.531 678.925 774.531 683.501 774.531 692.652V853.717C774.531 862.868 774.531 867.444 772.582 870.861C771.265 873.17 769.353 875.082 767.045 876.398C763.628 878.348 759.052 878.348 749.9 878.348H652.639ZM713.325 771.515C715.048 771.515 715.909 771.515 716.632 771.413C721.215 770.766 724.817 767.164 725.464 762.581C725.566 761.858 725.566 760.997 725.566 759.274V751.855C725.566 750.132 725.566 749.271 725.464 748.549C724.817 743.965 721.215 740.363 716.632 739.716C715.909 739.614 715.048 739.614 713.325 739.614C711.602 739.614 710.741 739.614 710.019 739.716C705.435 740.363 701.833 743.965 701.186 748.549C701.084 749.271 701.084 750.132 701.084 751.855V759.274C701.084 760.997 701.084 761.858 701.186 762.581C701.833 767.164 705.435 770.766 710.019 771.413C710.741 771.515 711.602 771.515 713.325 771.515ZM658.796 771.515C660.519 771.515 661.38 771.515 662.103 771.413C666.686 770.766 670.288 767.164 670.935 762.581C671.037 761.858 671.037 760.997 671.037 759.274V751.855C671.037 750.132 671.037 749.271 670.935 748.549C670.288 743.965 666.686 740.363 662.103 739.716C661.38 739.614 660.519 739.614 658.796 739.614C657.073 739.614 656.212 739.614 655.49 739.716C650.906 740.363 647.304 743.965 646.657 748.549C646.555 749.271 646.555 750.132 646.555 751.855V759.274C646.555 760.997 646.555 761.858 646.657 762.581C647.304 767.164 650.906 770.766 655.49 771.413C656.212 771.515 657.073 771.515 658.796 771.515Z" fill="#2D2D2D"/>
<path d="M338.935 878.348C329.784 878.348 325.208 878.348 321.791 876.398C319.483 875.082 317.57 873.17 316.254 870.861C314.305 867.444 314.305 862.868 314.305 853.717V741.478C314.305 732.327 314.305 727.751 316.254 724.333C317.57 722.025 319.483 720.113 321.791 718.796C325.208 716.847 329.784 716.847 338.935 716.847H352.582C361.527 716.847 365.999 716.847 369.359 714.982C371.784 713.636 373.783 711.636 375.129 709.212C376.878 706.062 376.987 701.934 376.994 694.06L376.995 690.808C377.002 682.934 377.111 678.807 378.86 675.657C380.206 673.232 382.205 671.233 384.63 669.887C387.99 668.021 392.462 668.021 401.407 668.021H436.197C445.349 668.021 449.924 668.021 453.342 669.971C455.65 671.287 457.562 673.2 458.879 675.508C460.828 678.925 460.828 683.501 460.828 692.652V853.717C460.828 862.868 460.828 867.444 458.879 870.861C457.562 873.17 455.65 875.082 453.342 876.398C449.924 878.348 445.349 878.348 436.197 878.348H338.935ZM399.622 771.515C401.345 771.515 402.206 771.515 402.929 771.413C407.512 770.766 411.114 767.164 411.761 762.581C411.863 761.858 411.863 760.997 411.863 759.274V751.855C411.863 750.132 411.863 749.271 411.761 748.549C411.114 743.965 407.512 740.363 402.929 739.716C402.206 739.614 401.345 739.614 399.622 739.614C397.899 739.614 397.038 739.614 396.315 739.716C391.732 740.363 388.13 743.965 387.483 748.549C387.381 749.271 387.381 750.132 387.381 751.855V759.274C387.381 760.997 387.381 761.858 387.483 762.581C388.13 767.164 391.732 770.766 396.315 771.413C397.038 771.515 397.899 771.515 399.622 771.515ZM345.093 771.515C346.816 771.515 347.677 771.515 348.4 771.413C352.983 770.766 356.585 767.164 357.232 762.581C357.334 761.858 357.334 760.997 357.334 759.274V751.855C357.334 750.132 357.334 749.271 357.232 748.549C356.585 743.965 352.983 740.363 348.4 739.716C347.677 739.614 346.816 739.614 345.093 739.614C343.37 739.614 342.509 739.614 341.786 739.716C337.203 740.363 333.601 743.965 332.954 748.549C332.852 749.271 332.852 750.132 332.852 751.855V759.274C332.852 760.997 332.852 761.858 332.954 762.581C333.601 767.164 337.203 770.766 341.786 771.413C342.509 771.515 343.37 771.515 345.093 771.515Z" fill="#2D2D2D"/>
<path d="M1280.04 878.348C1270.89 878.348 1266.32 878.348 1262.9 876.398C1260.59 875.082 1258.68 873.17 1257.36 870.861C1255.41 867.444 1255.41 862.868 1255.41 853.717V741.478C1255.41 732.327 1255.41 727.751 1257.36 724.333C1258.68 722.025 1260.59 720.113 1262.9 718.796C1266.32 716.847 1270.89 716.847 1280.04 716.847H1293.69C1302.64 716.847 1307.11 716.847 1310.47 714.982C1312.89 713.636 1314.89 711.636 1316.24 709.212C1317.99 706.062 1318.1 701.934 1318.1 694.06L1318.1 690.808C1318.11 682.934 1318.22 678.807 1319.97 675.657C1321.32 673.232 1323.31 671.233 1325.74 669.887C1329.1 668.021 1333.57 668.021 1342.52 668.021H1377.31C1386.46 668.021 1391.03 668.021 1394.45 669.971C1396.76 671.287 1398.67 673.2 1399.99 675.508C1401.94 678.925 1401.94 683.501 1401.94 692.652V853.717C1401.94 862.868 1401.94 867.444 1399.99 870.861C1398.67 873.17 1396.76 875.082 1394.45 876.398C1391.03 878.348 1386.46 878.348 1377.31 878.348H1280.04ZM1340.73 771.515C1342.45 771.515 1343.32 771.515 1344.04 771.413C1348.62 770.766 1352.22 767.164 1352.87 762.581C1352.97 761.858 1352.97 760.997 1352.97 759.274V751.855C1352.97 750.132 1352.97 749.271 1352.87 748.549C1352.22 743.965 1348.62 740.363 1344.04 739.716C1343.32 739.614 1342.45 739.614 1340.73 739.614C1339.01 739.614 1338.15 739.614 1337.42 739.716C1332.84 740.363 1329.24 743.965 1328.59 748.549C1328.49 749.271 1328.49 750.132 1328.49 751.855V759.274C1328.49 760.997 1328.49 761.858 1328.59 762.581C1329.24 767.164 1332.84 770.766 1337.42 771.413C1338.15 771.515 1339.01 771.515 1340.73 771.515ZM1286.2 771.515C1287.93 771.515 1288.79 771.515 1289.51 771.413C1294.09 770.766 1297.69 767.164 1298.34 762.581C1298.44 761.858 1298.44 760.997 1298.44 759.274V751.855C1298.44 750.132 1298.44 749.271 1298.34 748.549C1297.69 743.965 1294.09 740.363 1289.51 739.716C1288.79 739.614 1287.93 739.614 1286.2 739.614C1284.48 739.614 1283.62 739.614 1282.9 739.716C1278.31 740.363 1274.71 743.965 1274.06 748.549C1273.96 749.271 1273.96 750.132 1273.96 751.855V759.274C1273.96 760.997 1273.96 761.858 1274.06 762.581C1274.71 767.164 1278.31 770.766 1282.9 771.413C1283.62 771.515 1284.48 771.515 1286.2 771.515Z" fill="#2D2D2D"/>
</g>
<defs>
<clipPath id="clip0_3737_1870">
<rect width="1559" height="879" fill="white"/>
</clipPath>
</defs>
</g></svg>
